<?xml version="1.0" encoding="UTF-8"?>
<svg width="32px" height="32px" viewBox="0 0 32 32" version="1.1" xmlns="http://www.w3.org/2000/svg" xmlns:xlink="http://www.w3.org/1999/xlink">
    <title>15</title>
    <g id="Symbols" stroke="none" stroke-width="1" fill="none" fill-rule="evenodd">
        <g id="Glyphs/White/pencil" transform="translate(-4.000000, -4.000000)" fill="#FFFFFF" fill-rule="nonzero">
            <g id="15" transform="translate(4.000000, 4.000000)">
                <path d="M31.9499203,31.1324288 L27.5689312,20.8755875 C27.5554312,20.8445849 27.5399313,20.8145824 27.5219313,20.7865801 C27.3334318,20.4895558 27.0789324,20.2880393 26.9584327,20.2015322 L8.15647964,1.3969896 C6.2924843,-0.465663199 3.26199186,-0.465663199 1.39949651,1.3969896 C0.496498761,2.30006368 0,3.49966208 0,4.7762668 C0,6.05287152 0.496498761,7.25246993 1.39949651,8.15454393 L2.60849349,9.36364311 C2.60899349,9.36414315 2.60899349,9.36464319 2.60949349,9.36514323 C2.60999349,9.36564328 2.61049348,9.36564328 2.61099348,9.36614332 L20.2384495,26.9960895 L20.2384495,26.9960895 L20.6789484,27.4366257 C20.7349483,27.4931303 20.8019481,27.5376339 20.8749479,27.5691365 L31.1319223,31.9499959 C31.2109221,31.9834986 31.2939219,32 31.3764217,32 C31.5384213,32 31.6979209,31.9364948 31.8169206,31.817485 C31.9974201,31.6374703 32.04992,31.365948 31.9499203,31.1324288 Z M5.10698725,7.74901066 L21.8544455,24.4983846 L20.6794484,25.673481 L3.93149019,8.9246071 L5.10698725,7.74901066 Z M22.2949444,24.0578485 L5.54748615,7.30847452 L7.30998176,5.54582993 L24.05744,22.2947039 L22.2949444,24.0578485 Z M24.4984389,21.8541677 L7.75098066,5.10479375 L8.92597772,3.92969736 L25.6734359,20.6790713 L24.4984389,21.8541677 Z M1.24649689,4.7762668 C1.24649689,3.8326894 1.61349597,2.94561663 2.28049431,2.27856191 C2.96899259,1.59000543 3.87299033,1.24597721 4.77748808,1.24597721 C5.68198582,1.24597721 6.58648356,1.59000543 7.27498184,2.27856191 L8.04447992,3.04812504 L3.05049239,8.04253474 L2.28099431,7.27297161 C1.61349597,6.60591689 1.24649689,5.71984421 1.24649689,4.7762668 Z M26.5204338,21.5951465 L28.9949276,27.3871216 L27.3874316,28.9947535 L21.5944461,26.5210506 L26.5204338,21.5951465 Z M28.6224286,29.5222968 L29.5224263,28.6222229 L30.1934246,30.1933518 L28.6224286,29.5222968 Z" id="Shape"></path>
            </g>
        </g>
    </g>
</svg>