<?xml version="1.0" encoding="UTF-8"?>
<svg width="31px" height="40px" viewBox="0 0 31 40" version="1.1" xmlns="http://www.w3.org/2000/svg" xmlns:xlink="http://www.w3.org/1999/xlink">
    <title>11</title>
    <g id="Symbols" stroke="none" stroke-width="1" fill="none" fill-rule="evenodd">
        <g id="Glyphs/White/screw" transform="translate(-4.000000, 0.000000)" fill="#FFFFFF" fill-rule="nonzero">
            <g id="11" transform="translate(4.000000, 0.000000)">
                <path d="M11.4046704,0 L0.651964378,0 C0.291783865,0 0,0.290625 0,0.649375 L0,3.95625 C0,4.315 0.291783865,4.605625 0.651964378,4.605625 L2.11778612,4.605625 L2.11778612,33.7475 C2.11778612,33.861875 2.14790574,33.97375 2.20563502,34.073125 L5.46420193,39.675625 C5.58091548,39.87625 5.7955178,40 6.0283174,40 C6.261117,40 6.47571933,39.87625 6.59243287,39.67625 L9.85037229,34.07375 C9.90810157,33.975 9.93822119,33.8625 9.93822119,33.748125 L9.93822119,4.605625 L11.4040429,4.605625 C11.7642234,4.605625 12.0560083,4.315 12.0560083,3.95625 L12.0560083,0.649375 C12.0566348,0.290625 11.7648509,0 11.4046704,0 Z M8.63491993,31.220625 L3.51646619,33.735625 L3.42234237,33.57375 L3.42234237,31.30375 L8.63491993,28.743125 L8.63491993,31.220625 Z M8.63491993,28.019375 L3.42234237,30.58 L3.42234237,28.1025 L8.63491993,25.54125 L8.63491993,28.019375 Z M8.63491993,24.8175 L3.42234237,27.37875 L3.42234237,24.900625 L8.63491993,22.34 L8.63491993,24.8175 Z M8.63491993,21.61625 L3.42234237,24.176875 L3.42234237,21.699375 L8.63491993,19.138125 L8.63491993,21.61625 Z M8.63491993,18.414375 L3.42234237,20.975625 L3.42234237,18.4975 L8.63491993,15.936875 L8.63491993,18.414375 Z M8.63491993,15.213125 L3.42234237,17.77375 L3.42234237,15.29625 L8.63491993,12.735 L8.63491993,15.213125 Z M8.63491993,12.01125 L3.42234237,14.5725 L3.42234237,12.094375 L8.63491993,9.533125 L8.63491993,12.01125 Z M8.63491993,8.809375 L3.42234237,11.370625 L3.42234237,8.8925 L8.63491993,6.331875 L8.63491993,8.809375 Z M6.0283174,38.055 L3.84338962,34.298125 L8.63491993,31.94375 L8.63491993,33.573125 L6.0283174,38.055 Z M8.63491993,5.608125 L3.42234237,8.16875 L3.42234237,4.605625 L8.63491993,4.605625 L8.63491993,5.608125 Z M10.752706,3.306875 L9.28688431,3.306875 L2.7697505,3.306875 L1.30392876,3.306875 L1.30392876,1.29875 L10.752706,1.29875 L10.752706,3.306875 L10.752706,3.306875 Z M30.5977738,11.609375 C30.3543069,11.508125 30.0731904,11.56375 29.8874527,11.750625 L28.9543718,12.683125 L28.9543718,1.6475 C28.9543718,1.28875 28.6625879,0.998125 28.3024074,0.998125 L20.3771812,0.998125 C20.0170006,0.998125 19.7252168,1.28875 19.7252168,1.6475 L19.7252168,12.683125 L18.7921359,11.750625 C18.6051432,11.56375 18.3246542,11.506875 18.0818147,11.609375 C17.8377203,11.709375 17.6789648,11.946875 17.6789648,12.209375 L17.6789648,15.786875 C17.6789648,15.94375 17.7354391,16.095 17.8389753,16.213125 L19.7252168,18.374375 L19.7252168,37.55125 C19.7252168,37.91 20.0170006,38.200625 20.3771812,38.200625 L28.3011524,38.200625 C28.661333,38.200625 28.9531168,37.91 28.9531168,37.55125 L28.9531168,18.37375 L30.8399858,16.2125 C30.943522,16.094375 30.9999982,15.943125 30.9999982,15.78625 L30.9999982,12.20875 C31.0006238,11.946875 30.8412408,11.709375 30.5977738,11.609375 Z M29.6966951,15.54375 L27.8098261,17.705 C27.7069173,17.823125 27.6498156,17.974375 27.6498156,18.13125 L27.6498156,21.093125 L26.247998,21.093125 L26.247998,22.391875 L27.6498156,22.391875 L27.6498156,24.295 L26.247998,24.295 L26.247998,25.59375 L27.6498156,25.59375 L27.6498156,27.49625 L26.247998,27.49625 L26.247998,28.795 L27.6498156,28.795 L27.6498156,30.698125 L26.247998,30.698125 L26.247998,31.996875 L27.6498156,31.996875 L27.6498156,33.899375 L26.247998,33.899375 L26.247998,35.198125 L27.6498156,35.198125 L27.6498156,36.90125 L21.029773,36.90125 L21.029773,35.198125 L22.4315906,35.198125 L22.4315906,33.899375 L21.029773,33.899375 L21.029773,31.996875 L22.4315906,31.996875 L22.4315906,30.698125 L21.029773,30.698125 L21.029773,28.795 L22.4315906,28.795 L22.4315906,27.49625 L21.029773,27.49625 L21.029773,25.59375 L22.4315906,25.59375 L22.4315906,24.295 L21.029773,24.295 L21.029773,22.391875 L22.4315906,22.391875 L22.4315906,21.093125 L21.029773,21.093125 L21.029773,18.13125 C21.029773,17.974375 20.9732987,17.823125 20.8697625,17.705 L18.9828935,15.54375 L18.9828935,13.78 L19.9159744,14.7125 C20.1023396,14.89875 20.3828286,14.955625 20.6262955,14.85375 C20.87039,14.75375 21.0291455,14.51625 21.0291455,14.25375 L21.0291455,2.296875 L27.6491881,2.296875 L27.6491881,14.25375 C27.6491881,14.51625 27.8085711,14.75375 28.052038,14.85375 C28.2948775,14.954375 28.575994,14.89875 28.7623592,14.7125 L29.6954401,13.78 L29.6954401,15.54375 L29.6966951,15.54375 Z M24.0134984,4.849375 L24.6654627,4.849375 L24.6654627,34.54875 L24.0134984,34.54875 L24.0134984,4.849375 Z" id="Shape"></path>
            </g>
        </g>
    </g>
</svg>