<?xml version="1.0" encoding="UTF-8"?>
<svg width="40px" height="31px" viewBox="0 0 40 31" version="1.1" xmlns="http://www.w3.org/2000/svg" xmlns:xlink="http://www.w3.org/1999/xlink">
    <title>9</title>
    <g id="Symbols" stroke="none" stroke-width="1" fill="none" fill-rule="evenodd">
        <g id="Glyphs/White/toolbox" transform="translate(0.000000, -4.000000)" fill="#FFFFFF" fill-rule="nonzero">
            <g id="9" transform="translate(0.000000, 4.000000)">
                <path d="M39.49625,0 L36.519375,0 C36.240625,0 36.015625,0.222250909 36.015625,0.49621671 L36.015625,3.12690406 L3.984375,3.12690406 L3.984375,0.496832364 C3.984375,0.222866562 3.75875,0.000615653486 3.480625,0.000615653486 L0.50375,0.000615653486 C0.225625,0 0,0.222250909 0,0.496832364 L0,30.5037833 C0,30.7783647 0.225625,31 0.50375,31 L39.49625,31 C39.775,31 40,30.7777491 40,30.5037833 L40,0.496832364 C40,0.222250909 39.774375,0 39.49625,0 Z M36.015625,4.11995313 L36.015625,13.0044486 L32.85,13.0044486 L32.85,10.6224853 L33.325625,10.6224853 C33.604375,10.6224853 33.829375,10.4002343 33.829375,10.1262685 L33.829375,5.75697575 C33.829375,5.48300995 33.60375,5.26075904 33.325625,5.26075904 L26.61125,5.26075904 C26.3325,5.26075904 26.1075,5.48300995 26.1075,5.75697575 L26.1075,10.1262685 C26.1075,10.4002343 26.333125,10.6224853 26.61125,10.6224853 L26.86875,10.6224853 L26.985625,13.0044486 L23.546875,13.0044486 L23.546875,10.5258277 L24.540625,9.38933132 C24.650625,9.26312236 24.689375,9.09135503 24.64375,8.93128513 L23.845,6.11898 C23.78375,5.90473259 23.585625,5.7563601 23.36,5.7563601 L21.385,5.7563601 C21.159375,5.7563601 20.960625,5.90473259 20.9,6.11898 L20.10125,8.93128513 C20.05625,9.09135503 20.094375,9.26312236 20.204375,9.38933132 L21.19875,10.5258277 L21.19875,13.0038329 L13.519375,13.0038329 L13.519375,10.7954839 C13.519375,10.013604 13.775625,9.48968284 14.280625,9.23788056 C14.9275,8.91527814 15.8575,9.10120549 16.25875,9.3776339 C16.4125,9.73286597 16.77,9.98282128 17.18625,9.98282128 L17.93875,9.98282128 C18.494375,9.98282128 18.94625,9.53770381 18.94625,8.99038786 L18.94625,6.25319246 C18.94625,5.70587651 18.49375,5.26075904 17.93875,5.26075904 L17.18625,5.26075904 C16.72875,5.26075904 16.34625,5.56427621 16.223125,5.97676405 C16.05375,6.00877803 15.634375,6.05926161 14.639375,6.05926161 C14.5675,6.05926161 14.35375,5.98107362 14.1825,5.91827696 C13.365,5.61906937 11.9975,5.11854309 9.65875,5.79145235 C5.988125,6.84668242 5.176875,9.67807281 5.015,10.5209024 C4.95375,10.8385796 5.081875,11.1568725 5.3425,11.3483407 L5.398125,11.3865112 C5.7175,11.585983 6.1375,11.5533533 6.42125,11.3070919 C8.04875,9.89047326 9.614375,9.03286795 10.14875,9.27112585 C10.40125,9.38317479 10.43875,9.8886263 10.43875,10.1804461 L10.43875,13.0050642 L3.984375,13.0050642 L3.984375,4.11995313 L36.015625,4.11995313 Z M27.994375,13.0044486 L27.8775,10.6224853 L31.841875,10.6224853 L31.841875,13.0044486 L27.994375,13.0044486 Z M32.82125,9.63005183 L27.115625,9.63005183 L27.115625,6.25319246 L32.82125,6.25319246 L32.82125,9.63005183 Z M22.085,10.0179135 L21.144375,8.9435982 L21.7675,6.75002482 L22.978125,6.75002482 L23.60125,8.9435982 L22.66125,10.0179135 C22.5825,10.1077989 22.539375,10.2229261 22.539375,10.3417473 L22.539375,13.0044486 L22.2075,13.0044486 L22.2075,10.3417473 C22.206875,10.2229261 22.16375,10.1077989 22.085,10.0179135 Z M16.17875,6.25319246 L16.17875,6.54993744 C16.131875,6.47298076 16.10625,6.38247969 16.11375,6.28766906 C16.12125,6.19347407 16.156875,6.11898 16.198125,6.06295553 C16.18625,6.12513654 16.17875,6.18854885 16.17875,6.25319246 Z M16.17875,6.98828272 L16.17875,8.24790976 C15.466875,8.01088316 14.560625,7.98625703 13.82625,8.3531865 C13.41625,8.55758346 12.958125,8.94113558 12.705625,9.63066749 L11.404375,9.63066749 C11.305625,8.9977757 11.025625,8.57112784 10.5625,8.36611523 C9.41375,7.85327587 7.576875,9.03902449 6.12,10.2512462 C6.420625,9.28220761 7.32125,7.49742816 9.940625,6.74448394 C11.96,6.16453836 13.085,6.57579489 13.83,6.84914504 C14.14,6.96304093 14.385,7.05292634 14.63875,7.05292634 C15.33,7.05169503 15.8225,7.03199412 16.17875,6.98828272 Z M11.446875,10.6231009 L12.5225,10.6231009 C12.52,10.6822036 12.511875,10.7345342 12.511875,10.7960995 L12.511875,13.0044486 L11.446875,13.0044486 L11.446875,10.6231009 Z M17.18625,8.99100352 L17.18625,6.25319246 L17.93875,6.25319246 L17.939375,8.99100352 L17.18625,8.99100352 Z M2.976875,0.993049074 L2.976875,13.501281 C2.976875,13.7752468 3.2025,13.9974977 3.480625,13.9974977 L36.51875,13.9974977 C36.7975,13.9974977 37.0225,13.7752468 37.0225,13.501281 L37.0225,0.993049074 L38.991875,0.993049074 L38.991875,21.6155939 L1.0075,21.6155939 L1.0075,0.993049074 L2.976875,0.993049074 Z M1.0075,30.0075666 L1.0075,22.608643 L38.991875,22.608643 L38.991875,30.0081822 L1.0075,30.0081822 L1.0075,30.0075666 Z M4.379375,20.4784819 C4.95,20.4784819 5.414375,20.021667 5.414375,19.4595754 C5.414375,18.8974838 4.950625,18.4406689 4.379375,18.4406689 C3.809375,18.4406689 3.345,18.8974838 3.345,19.4595754 C3.345,20.021667 3.80875,20.4784819 4.379375,20.4784819 Z M4.379375,18.9368856 C4.671875,18.9368856 4.91,19.1714496 4.91,19.4595754 C4.91,19.7477012 4.671875,19.9822652 4.379375,19.9822652 C4.086875,19.9822652 3.84875,19.7477012 3.84875,19.4595754 C3.84875,19.1714496 4.086875,18.9368856 4.379375,18.9368856 Z M35.115,17.500566 C35.685625,17.500566 36.15,17.0437511 36.15,16.4816595 C36.15,15.9195679 35.68625,15.462753 35.115,15.462753 C34.545,15.462753 34.080625,15.9195679 34.080625,16.4816595 C34.080625,17.0437511 34.544375,17.500566 35.115,17.500566 Z M35.115,15.9589697 C35.4075,15.9589697 35.645625,16.1935337 35.645625,16.4816595 C35.645625,16.7697853 35.4075,17.0043493 35.115,17.0043493 C34.8225,17.0043493 34.584375,16.7697853 34.584375,16.4816595 C34.584375,16.1935337 34.8225,15.9589697 35.115,15.9589697 Z M4.379375,17.500566 C4.95,17.500566 5.414375,17.0437511 5.414375,16.4816595 C5.414375,15.9195679 4.950625,15.462753 4.379375,15.462753 C3.809375,15.462753 3.345,15.9195679 3.345,16.4816595 C3.345,17.0437511 3.80875,17.500566 4.379375,17.500566 Z M4.379375,15.9589697 C4.671875,15.9589697 4.91,16.1935337 4.91,16.4816595 C4.91,16.7697853 4.671875,17.0043493 4.379375,17.0043493 C4.086875,17.0043493 3.84875,16.7697853 3.84875,16.4816595 C3.84875,16.1935337 4.086875,15.9589697 4.379375,15.9589697 Z M35.115,20.4784819 C35.685625,20.4784819 36.15,20.021667 36.15,19.4595754 C36.15,18.8974838 35.68625,18.4406689 35.115,18.4406689 C34.545,18.4406689 34.080625,18.8974838 34.080625,19.4595754 C34.080625,20.021667 34.544375,20.4784819 35.115,20.4784819 Z M35.115,18.9368856 C35.4075,18.9368856 35.645625,19.1714496 35.645625,19.4595754 C35.645625,19.7477012 35.4075,19.9822652 35.115,19.9822652 C34.8225,19.9822652 34.584375,19.7477012 34.584375,19.4595754 C34.584375,19.1714496 34.8225,18.9368856 35.115,18.9368856 Z M35.115,23.900284 C34.545,23.900284 34.080625,24.3570989 34.080625,24.9191905 C34.080625,25.4812821 34.544375,25.9387127 35.115,25.9387127 C35.685625,25.9387127 36.15,25.4818978 36.15,24.9191905 C36.149375,24.3570989 35.685625,23.900284 35.115,23.900284 Z M35.115,25.4418803 C34.8225,25.4418803 34.584375,25.2073163 34.584375,24.9191905 C34.584375,24.6310647 34.8225,24.3965007 35.115,24.3965007 C35.4075,24.3965007 35.645625,24.6310647 35.645625,24.9191905 C35.645625,25.2073163 35.4075,25.4418803 35.115,25.4418803 Z M4.379375,23.900284 C3.809375,23.900284 3.345,24.3570989 3.345,24.9191905 C3.345,25.4812821 3.80875,25.9387127 4.379375,25.9387127 C4.95,25.9387127 5.414375,25.4818978 5.414375,24.9191905 C5.414375,24.3570989 4.95,23.900284 4.379375,23.900284 Z M4.379375,25.4418803 C4.086875,25.4418803 3.84875,25.2073163 3.84875,24.9191905 C3.84875,24.6310647 4.086875,24.3965007 4.379375,24.3965007 C4.671875,24.3965007 4.91,24.6310647 4.91,24.9191905 C4.91,25.2073163 4.671875,25.4418803 4.379375,25.4418803 Z M4.379375,26.8781999 C3.809375,26.8781999 3.345,27.3350148 3.345,27.8971064 C3.345,28.4591981 3.80875,28.9166286 4.379375,28.9166286 C4.95,28.9166286 5.414375,28.4598137 5.414375,27.8971064 C5.414375,27.3350148 4.95,26.8781999 4.379375,26.8781999 Z M4.379375,28.4197962 C4.086875,28.4197962 3.84875,28.1852323 3.84875,27.8971064 C3.84875,27.6089806 4.086875,27.3744166 4.379375,27.3744166 C4.671875,27.3744166 4.91,27.6089806 4.91,27.8971064 C4.91,28.1852323 4.671875,28.4197962 4.379375,28.4197962 Z M35.115,26.8781999 C34.545,26.8781999 34.080625,27.3350148 34.080625,27.8971064 C34.080625,28.4591981 34.544375,28.9166286 35.115,28.9166286 C35.685625,28.9166286 36.15,28.4598137 36.15,27.8971064 C36.149375,27.3350148 35.685625,26.8781999 35.115,26.8781999 Z M35.115,28.4197962 C34.8225,28.4197962 34.584375,28.1852323 34.584375,27.8971064 C34.584375,27.6089806 34.8225,27.3744166 35.115,27.3744166 C35.4075,27.3744166 35.645625,27.6089806 35.645625,27.8971064 C35.645625,28.1852323 35.4075,28.4197962 35.115,28.4197962 Z M28.3725,9.06549759 L31.813125,9.06549759 C32.091875,9.06549759 32.316875,8.84324668 32.316875,8.56928088 L32.316875,7.26347983 C32.316875,6.98951403 32.09125,6.76726312 31.813125,6.76726312 L28.3725,6.76726312 C28.09375,6.76726312 27.86875,6.98951403 27.86875,7.26347983 L27.86875,8.56928088 C27.86875,8.84324668 28.094375,9.06549759 28.3725,9.06549759 Z M28.876875,7.75969654 L31.309375,7.75969654 L31.309375,8.07306417 L28.876875,8.07306417 L28.876875,7.75969654 Z" id="Shape"></path>
            </g>
        </g>
    </g>
</svg>