<?xml version="1.0" encoding="UTF-8"?>
<svg width="36px" height="40px" viewBox="0 0 36 40" version="1.1" xmlns="http://www.w3.org/2000/svg" xmlns:xlink="http://www.w3.org/1999/xlink">
    <title>8</title>
    <g id="Symbols" stroke="none" stroke-width="1" fill="none" fill-rule="evenodd">
        <g id="Glyphs/White/saw/2" transform="translate(-2.000000, 0.000000)" fill="#FFFFFF" fill-rule="nonzero">
            <g id="8" transform="translate(2.000000, 0.000000)">
                <path d="M35.0342529,34.3362168 L26.5895225,25.8474171 C26.345793,25.6024156 25.950976,25.6024156 25.7072465,25.8474171 L24.2554393,27.3068006 L22.0942051,25.1342879 L24.7746081,22.4398971 C26.9302464,20.2730094 26.9308682,16.7461138 24.7746081,14.5786011 L11.8880316,1.62540016 C9.73177145,-0.542112543 6.22380732,-0.541487539 4.06816896,1.62540016 L0,5.71417411 L0.882275983,6.60105431 L2.50755394,4.96729474 L21.4500628,24.0086563 L20.771102,24.6911603 C20.5273725,24.9361617 20.5273725,25.3330391 20.771102,25.5780405 L23.3737851,28.1943058 L21.9213561,29.6543144 C21.6776266,29.8993158 21.6776266,30.2961931 21.9213561,30.5411946 L30.3660865,39.0299943 C31.0089853,39.6762481 31.8545775,40 32.6995479,40 C33.5451401,40 34.3907323,39.6762481 35.0342529,39.0293693 C36.3219157,37.7349867 36.3219157,35.6305994 35.0342529,34.3362168 Z M3.38982992,4.08041454 L4.95044495,2.51165535 C6.62048955,0.833520517 9.33757626,0.834145521 11.0057556,2.51165535 L23.8923321,15.4654812 C25.5617549,17.1436161 25.5617549,19.8748821 23.8923321,21.5530169 L22.3323388,23.1211511 L3.38982992,4.08041454 Z M26.1486954,27.1780499 L27.3462032,28.3818069 L24.441967,31.301199 L23.2444592,30.097442 L26.1486954,27.1780499 Z M34.1519769,38.1424891 C33.3505296,38.9481188 32.0479445,38.9468688 31.2477407,38.1424891 L25.3236212,32.1874542 L28.2278574,29.2680621 L34.1519769,35.223097 C34.9528024,36.0281017 34.9528024,37.3381094 34.1519769,38.1424891 Z" id="Shape"></path>
            </g>
        </g>
    </g>
</svg>