<?xml version="1.0" encoding="UTF-8"?>
<svg width="40px" height="25px" viewBox="0 0 40 25" version="1.1" xmlns="http://www.w3.org/2000/svg" xmlns:xlink="http://www.w3.org/1999/xlink">
    <title>7</title>
    <g id="Symbols" stroke="none" stroke-width="1" fill="none" fill-rule="evenodd">
        <g id="Glyphs/White/ruler" transform="translate(0.000000, -8.000000)" fill="#FFFFFF" fill-rule="nonzero">
            <g id="7" transform="translate(0.000000, 8.000000)">
                <path d="M39.455,0 L31.37375,0 C31.0725,0 30.82875,0.241002571 30.82875,0.53885703 L30.82875,15.9327417 L0.545,15.9327417 C0.24375,15.9321238 0,16.1731264 0,16.4709808 L0,24.461143 C0,24.7589974 0.24375,25 0.545,25 L39.455,25 C39.75625,25 40,24.7589974 40,24.461143 L40,0.53885703 C40,0.241002571 39.75625,0 39.455,0 Z M38.91,23.9229039 L35.605,23.9229039 L35.605,22.5009887 L35.06,22.5009887 L35.06,23.9229039 L33.28125,23.9229039 L33.28125,22.0572968 L32.73625,22.0572968 L32.73625,23.9229039 L30.26625,23.9229039 L30.26625,22.5009887 L29.72125,22.5009887 L29.72125,23.9229039 L27.943125,23.9229039 L27.943125,22.0572968 L27.398125,22.0572968 L27.398125,23.9229039 L25.413125,23.9229039 L25.413125,22.5009887 L24.86875,22.5009887 L24.86875,23.9229039 L23.090625,23.9229039 L23.090625,22.0572968 L22.545625,22.0572968 L22.545625,23.9229039 L20.560625,23.9229039 L20.560625,22.5009887 L20.015625,22.5009887 L20.015625,23.9229039 L18.2375,23.9229039 L18.2375,22.0572968 L17.6925,22.0572968 L17.6925,23.9229039 L15.7075,23.9229039 L15.7075,22.5009887 L15.1625,22.5009887 L15.1625,23.9229039 L13.384375,23.9229039 L13.384375,22.0572968 L12.839375,22.0572968 L12.839375,23.9229039 L10.855,23.9229039 L10.855,22.5009887 L10.31,22.5009887 L10.31,23.9229039 L8.53125,23.9229039 L8.53125,22.0572968 L7.98625,22.0572968 L7.98625,23.9229039 L6.00125,23.9229039 L6.00125,22.5009887 L5.45625,22.5009887 L5.45625,23.9229039 L3.678125,23.9229039 L3.678125,22.0572968 L3.133125,22.0572968 L3.133125,23.9229039 L1.09,23.9229039 L1.09,17.0098378 L3.133125,17.0098378 L3.133125,19.0731906 L3.678125,19.0731906 L3.678125,17.0098378 L5.45625,17.0098378 L5.45625,18.6294987 L6.00125,18.6294987 L6.00125,17.0098378 L7.98625,17.0098378 L7.98625,19.0731906 L8.53125,19.0731906 L8.53125,17.0098378 L10.309375,17.0098378 L10.309375,18.6294987 L10.854375,18.6294987 L10.854375,17.0098378 L12.83875,17.0098378 L12.83875,19.0731906 L13.38375,19.0731906 L13.38375,17.0098378 L15.161875,17.0098378 L15.161875,18.6294987 L15.706875,18.6294987 L15.706875,17.0098378 L17.691875,17.0098378 L17.691875,19.0731906 L18.236875,19.0731906 L18.236875,17.0098378 L20.015,17.0098378 L20.015,18.6294987 L20.56,18.6294987 L20.56,17.0098378 L22.545,17.0098378 L22.545,19.0731906 L23.09,19.0731906 L23.09,17.0098378 L24.868125,17.0098378 L24.868125,18.6294987 L25.413125,18.6294987 L25.413125,17.0098378 L27.398125,17.0098378 L27.398125,19.0731906 L27.943125,19.0731906 L27.943125,17.0098378 L29.72125,17.0098378 L29.72125,18.6294987 L30.26625,18.6294987 L30.26625,17.0098378 L31.37375,17.0098378 C31.675,17.0098378 31.91875,16.7688353 31.91875,16.4709808 L31.91875,1.0770961 L38.91,1.0770961 L38.91,23.9229039 Z M35.3325,5.65799881 C36.34875,5.65799881 37.175625,4.84044394 37.175625,3.83564861 C37.175625,2.83085327 36.34875,2.0132984 35.3325,2.0132984 C34.31625,2.0132984 33.489375,2.83085327 33.489375,3.83564861 C33.489375,4.84106189 34.31625,5.65799881 35.3325,5.65799881 Z M35.3325,3.09163041 C35.7475,3.09163041 36.085625,3.42594424 36.085625,3.83626656 C36.085625,4.24658889 35.7475,4.58090271 35.3325,4.58090271 C34.9175,4.58090271 34.579375,4.24658889 34.579375,3.83626656 C34.579375,3.42532628 34.9175,3.09163041 35.3325,3.09163041 Z M38.0925,19.6120477 L37.5475,19.6120477 L37.5475,6.4656664 L38.0925,6.4656664 L38.0925,19.6120477 Z M38.0925,21.1371614 L37.5475,21.1371614 L37.5475,20.2176439 L38.0925,20.2176439 L38.0925,21.1371614 Z" id="Shape"></path>
            </g>
        </g>
    </g>
</svg>