<?xml version="1.0" encoding="UTF-8"?>
<svg width="23px" height="40px" viewBox="0 0 23 40" version="1.1" xmlns="http://www.w3.org/2000/svg" xmlns:xlink="http://www.w3.org/1999/xlink">
    <title>6</title>
    <g id="Symbols" stroke="none" stroke-width="1" fill="none" fill-rule="evenodd">
        <g id="Glyphs/White/clamp" transform="translate(-9.000000, 0.000000)" fill="#FFFFFF" fill-rule="nonzero">
            <g id="6" transform="translate(9.000000, 0.000000)">
                <path d="M7.06356823,4.31256738 L13.786731,4.31256738 C13.9795654,5.07757934 14.6634766,5.64821325 15.4813177,5.64821325 L21.2458888,5.64821325 C22.2131612,5.64821325 23,4.85507586 23,3.88006063 C23,2.90504539 22.2131612,2.111908 21.2458888,2.111908 L17.852375,2.111908 L17.852375,2.11065798 C16.7617135,2.11065798 15.9891357,1.43939749 15.5321615,0.876263692 C15.0801477,0.31937999 14.4111177,0 13.6980644,0 L6.33811398,0 C3.60742977,0 1.38580363,2.23940999 1.38580363,4.991953 L1.38580363,11.6320568 L1.28721626,11.6320568 C0.577263169,11.6320568 0,12.2139408 0,12.929577 L0,14.1670964 C0,14.8827325 0.577263169,15.4646166 1.28721626,15.4646166 L1.38580363,15.4646166 L1.38580363,38.7024797 C1.38580363,39.4181159 1.9630668,40 2.6730199,40 L4.43705181,40 C5.14700491,40 5.72426808,39.4181159 5.72426808,38.7024797 L5.72426808,15.4646166 L16.7331914,15.4646166 L16.7331914,18.3777872 L16.7096296,18.3777872 C16.2365342,18.3777872 15.8514854,18.7659182 15.8514854,19.2428007 L15.8514854,31.3061142 C15.8514854,31.7829966 16.2365342,32.1711277 16.7096296,32.1711277 L20.4838518,32.1711277 C20.9569472,32.1711277 21.341996,31.7829966 21.341996,31.3061142 L21.341996,19.2428007 C21.341996,18.7659182 20.9569472,18.3777872 20.4838518,18.3777872 L20.4615302,18.3777872 L20.4615302,15.4646166 L20.512374,15.4646166 C21.2223271,15.4646166 21.7995902,14.8827325 21.7995902,14.1670964 L21.7995902,12.929577 C21.7995902,12.2139408 21.2223271,11.6320568 20.512374,11.6320568 L20.4615302,11.6320568 L20.4615302,9.31264551 L20.913544,9.31264551 C21.3866393,9.31264551 21.7716881,8.92451445 21.7716881,8.44763199 L21.7716881,7.32386444 C21.7716881,6.84698198 21.3866393,6.45885092 20.913544,6.45885092 L16.2811775,6.45885092 C15.8080822,6.45885092 15.4230334,6.84698198 15.4230334,7.32386444 L15.4230334,8.44763199 C15.4230334,8.92451445 15.8080822,9.31264551 16.2811775,9.31264551 L16.7338114,9.31264551 L16.7338114,11.6320568 L5.72488812,11.6320568 L5.72488812,5.66633854 C5.72488812,4.92007688 6.32571305,4.31256738 7.06356823,4.31256738 Z M22.1418558,3.88006063 C22.1418558,4.37819341 21.7400658,4.78319974 21.2458888,4.78319974 L15.4813177,4.78319974 C14.9871408,4.78319974 14.5853507,4.37819341 14.5853507,3.88006063 C14.5853507,3.38192784 14.9871408,2.97692151 15.4813177,2.97692151 L21.2458888,2.97692151 C21.7400658,2.97692151 22.1418558,3.38192784 22.1418558,3.88006063 Z M4.86674395,38.7031047 C4.86674395,38.9418585 4.67390953,39.1356115 4.43767186,39.1356115 L2.67363994,39.1356115 C2.43678223,39.1356115 2.24456785,38.9418585 2.24456785,38.7031047 L2.24456785,15.4652416 L4.86674395,15.4652416 L4.86674395,38.7031047 Z M18.6596754,15.4646166 L17.5919556,16.1102517 L17.5919556,15.4646166 L18.6596754,15.4646166 Z M20.4850919,31.3061142 L16.7108697,31.3061142 L16.7108697,19.2428007 L20.4850919,19.2428007 L20.4850919,31.3061142 Z M17.5919556,18.3777872 L17.5919556,18.3452866 L19.603386,17.1296427 L19.603386,18.3784122 L17.5919556,18.3784122 L17.5919556,18.3777872 Z M19.603386,16.6246348 L17.5919556,17.8402788 L17.5919556,16.6146346 L19.4942578,15.4646166 L19.603386,15.4646166 L19.603386,16.6246348 Z M20.9420661,12.929577 L20.9420661,14.1670964 C20.9420661,14.4058501 20.7492317,14.5996031 20.512994,14.5996031 L1.28721626,14.5996031 C1.05035855,14.5996031 0.858144174,14.4052251 0.858144174,14.1670964 L0.858144174,12.929577 C0.858144174,12.6908233 1.05097859,12.4970703 1.28721626,12.4970703 L20.512994,12.4970703 C20.7498517,12.4970703 20.9420661,12.6914483 20.9420661,12.929577 Z M18.6788969,11.6320568 L19.604006,11.072673 L19.604006,11.6320568 L18.6788969,11.6320568 Z M16.2811775,7.32386444 L20.913544,7.32386444 L20.914164,8.44763199 L16.2811775,8.44763199 L16.2811775,7.32386444 Z M18.8184073,9.31264551 L17.5919556,10.0539071 L17.5919556,9.31264551 L18.8184073,9.31264551 Z M17.5919556,10.55829 L19.603386,9.34264598 L19.603386,10.5682901 L17.8436944,11.6320568 L17.5913355,11.6320568 L17.5913355,10.55829 L17.5919556,10.55829 Z M2.24456785,11.6320568 L2.24456785,4.991953 C2.24456785,2.71629244 4.0811452,0.865013516 6.33873403,0.865013516 L13.6986844,0.865013516 C14.1531784,0.865013516 14.5797703,1.0687667 14.8680919,1.42439726 C15.0516256,1.65065079 15.2822828,1.88940452 15.5507629,2.111908 L15.4813177,2.111908 C14.6628565,2.111908 13.9789454,2.68254191 13.786111,3.44817888 L7.06356823,3.44817888 C5.85199763,3.44817888 4.8661239,4.44381943 4.8661239,5.66696355 L4.8661239,11.6320568 L2.24456785,11.6320568 Z M3.31724807,36.6455726 L2.88817599,36.6455726 L2.88817599,18.9252957 L3.31724807,18.9252957 L3.31724807,36.6455726 Z M3.31724807,38.270598 L2.88817599,38.270598 L2.88817599,37.3843341 L3.31724807,37.3843341 L3.31724807,38.270598 Z" id="Shape"></path>
            </g>
        </g>
    </g>
</svg>