<?xml version="1.0" encoding="UTF-8"?>
<svg width="34px" height="34px" viewBox="0 0 34 34" version="1.1" xmlns="http://www.w3.org/2000/svg" xmlns:xlink="http://www.w3.org/1999/xlink">
    <title>14</title>
    <g id="Symbols" stroke="none" stroke-width="1" fill="none" fill-rule="evenodd">
        <g id="Glyphs/White/saw/3" transform="translate(-3.000000, -3.000000)" fill="#FFFFFF" fill-rule="nonzero">
            <g id="14" transform="translate(3.500000, 3.000000)">
                <path d="M31.955078,21.1278125 C32.2558749,21.1278125 32.5,20.8903437 32.5,20.5965625 L32.5,8.755 C32.4994551,3.92753125 28.4708467,0 23.5191404,0 L9.48085961,0 C4.52915333,0 0.500544922,3.92753125 0.500544922,8.755 L0.500544922,20.5965625 C0.500544922,20.8898125 0.74412506,21.1278125 1.04546693,21.1278125 L3.15540495,21.1278125 L3.15540495,23.0105625 C3.15540495,23.3038125 3.39898508,23.5418125 3.70032695,23.5418125 L6.78622028,23.5418125 L6.78622028,25.7257812 L1.04492201,25.7257812 C0.74412506,25.7257812 0.5,25.96325 0.5,26.2570312 L0.5,28.4032812 C0.5,28.6965312 0.743580138,28.9345312 1.04492201,28.9345312 L6.78567536,28.9345312 L6.78567536,33.46875 C6.78567536,33.762 7.0292555,34 7.33059737,34 C7.63193924,34 7.87551938,33.7625312 7.87551938,33.46875 L7.87551938,28.934 L31.955078,28.934 C32.2558749,28.934 32.5,28.6965312 32.5,28.40275 L32.5,26.2565 C32.5,25.96325 32.2564199,25.72525 31.955078,25.72525 L30.9344391,25.72525 L30.9344391,21.1278125 L31.955078,21.1278125 Z M1.58984402,8.755 C1.58984402,4.51296875 5.12965738,1.06196875 9.48085961,1.06196875 L23.5196853,1.06196875 C27.8708875,1.06196875 31.4107009,4.51296875 31.4107009,8.755 L31.4107009,20.0658437 L10.9614127,20.0658437 L3.69978203,20.0658437 L1.58984402,20.0658437 L1.58984402,8.755 Z M4.24470404,21.1278125 L10.4170356,21.1278125 L10.4170356,22.4798438 L4.24470404,22.4798438 L4.24470404,21.1278125 Z M7.87551938,23.5418125 L10.9614127,23.5418125 C11.2622097,23.5418125 11.5063347,23.3043437 11.5063347,23.0105625 L11.5063347,21.1278125 L17.2885021,21.1278125 L17.2885021,25.7257813 L7.87551938,25.7257813 L7.87551938,23.5418125 Z M31.410156,27.8720312 L1.58984402,27.8720312 L1.58984402,26.78775 L31.410156,26.78775 L31.410156,27.8720312 Z M29.8445951,25.7257813 L18.3778012,25.7257813 L18.3778012,21.1278125 L29.8445951,21.1278125 L29.8445951,25.7257813 Z M3.24259247,8.18284375 C3.24259247,8.32946875 3.12052994,8.44846875 2.97013146,8.44846875 C2.81973299,8.44846875 2.69767046,8.32946875 2.69767046,8.18284375 C2.69767046,4.7185625 5.58848171,1.89921875 9.14246305,1.89921875 L14.5137593,1.89921875 C14.6641578,1.89921875 14.7862203,2.01821875 14.7862203,2.16484375 C14.7862203,2.31146875 14.6641578,2.43046875 14.5137593,2.43046875 L9.14246305,2.43046875 C5.88927866,2.43046875 3.24259247,5.01075 3.24259247,8.18284375 Z M15.4063415,2.16484375 C15.4063415,2.01821875 15.5284041,1.89921875 15.6788025,1.89921875 L17.2372795,1.89921875 C17.387678,1.89921875 17.5097405,2.01821875 17.5097405,2.16484375 C17.5097405,2.31146875 17.387678,2.43046875 17.2372795,2.43046875 L15.6788025,2.43046875 C15.5278591,2.43046875 15.4063415,2.312 15.4063415,2.16484375 Z M16.7991622,4.67128125 C16.527791,5.21103125 16.5888223,5.84534375 16.9588243,6.3271875 L23.5714529,14.9398125 C23.878244,15.3398438 24.367584,15.578375 24.8798106,15.578375 L27.9084872,15.578375 C28.2092841,15.578375 28.4534092,15.3409062 28.4534092,15.047125 L28.4534092,10.2100937 C28.4534092,6.632125 25.4672366,3.720875 21.7971868,3.720875 C21.7939173,3.720875 21.7906478,3.720875 21.7879232,3.720875 L18.2388461,3.7793125 C17.6225393,3.78940625 17.0710783,4.131 16.7991622,4.67128125 Z M17.7778421,5.13825 C17.869389,4.9555 18.0486683,4.84446875 18.2568286,4.84128125 L21.8015462,4.78284375 C24.8689122,4.7855 27.3635652,7.21915625 27.3635652,10.2100937 L27.3635652,14.5164062 L24.8798106,14.5164062 C24.7092501,14.5164062 24.5457734,14.4367188 24.443873,14.303375 L17.8312445,5.69021875 C17.7053675,5.527125 17.6857503,5.321 17.7778421,5.13825 Z M15.2979021,16.1696562 C15.2979021,16.4629062 15.0543219,16.7009062 14.75298,16.7009062 L4.71006743,16.7009062 C4.40927049,16.7009062 4.16514543,16.4634375 4.16514543,16.1696562 C4.16514543,15.875875 4.40872556,15.6384062 4.71006743,15.6384062 L14.753525,15.6384062 C15.0543219,15.6389375 15.2979021,15.8764062 15.2979021,16.1696562 Z M14.753525,10.3285625 C15.0543219,10.3285625 15.298447,10.5660312 15.298447,10.8598125 C15.298447,11.1535938 15.0548668,11.3910625 14.753525,11.3910625 L4.71006743,11.3910625 C4.40927049,11.3910625 4.16514543,11.1535938 4.16514543,10.8598125 C4.16514543,10.5660312 4.40872556,10.3285625 4.71006743,10.3285625 L14.753525,10.3285625 Z M15.2979021,13.515 C15.2979021,13.80825 15.0543219,14.04625 14.75298,14.04625 L4.71006743,14.04625 C4.40927049,14.04625 4.16514543,13.8087813 4.16514543,13.515 C4.16514543,13.22175 4.40872556,12.98375 4.71006743,12.98375 L14.753525,12.98375 C15.0543219,12.98375 15.2979021,13.2212188 15.2979021,13.515 Z" id="Shape"></path>
            </g>
        </g>
    </g>
</svg>