<?xml version="1.0" encoding="UTF-8"?>
<svg width="26px" height="40px" viewBox="0 0 26 40" version="1.1" xmlns="http://www.w3.org/2000/svg" xmlns:xlink="http://www.w3.org/1999/xlink">
    <title>1</title>
    <g id="Symbols" stroke="none" stroke-width="1" fill="none" fill-rule="evenodd">
        <g id="Glyphs/White/hammer" transform="translate(-7.000000, 0.000000)" fill="#FFFFFF" fill-rule="nonzero">
            <g id="1" transform="translate(7.000000, 0.000000)">
                <path d="M25.0507942,0 L22.5923197,0 C22.0688374,0 21.6431139,0.421888184 21.6431139,0.940654395 L21.6431139,1.29754055 C21.5579692,1.34504203 21.0168273,1.5550486 18.1622723,1.5550486 C17.9333276,1.5550486 17.547969,1.41316916 17.1026937,1.24878902 C15.5795495,0.687521485 13.0321461,-0.251257852 8.6594925,1.01315666 C1.82521086,2.99009344 0.319095637,8.26963343 0.0201431178,9.84030751 C-0.067524393,10.3003219 0.135561495,10.7609613 0.539841168,11.0147192 C0.971241005,11.2847276 1.53824167,11.2409763 1.91981609,10.9072159 C4.53911949,8.61339417 8.14042515,6.17581799 9.67366053,6.8608394 C10.2425533,7.11459733 10.5307839,7.86337073 10.5307839,9.0846589 L10.5307839,21.3181662 L10.5024023,21.3181662 C9.97892007,21.3181662 9.55319655,21.7400544 9.55319655,22.2588206 L9.55319655,39.0593456 C9.55319655,39.5781118 9.97892007,40 10.5024023,40 L15.2641988,40 C15.787681,40 16.2134046,39.5781118 16.2134046,39.0593456 L16.2134046,22.2588206 C16.2134046,21.8188068 15.9056222,21.4506703 15.4931434,21.3487921 L15.4931434,10.2859464 C15.4931434,8.56089253 16.0815879,7.39085596 17.2420787,6.80896278 C18.7601773,6.04831401 20.7670695,6.51582862 21.632392,7.14709835 L21.6431139,7.1327229 L21.6431139,7.26647708 C21.6431139,7.78524329 22.0688374,8.20713147 22.5923197,8.20713147 L25.0507942,8.20713147 C25.5742765,8.20713147 26,7.78524329 26,7.26647708 L26,0.940654395 C26,0.421888184 25.5742765,0 25.0507942,0 Z M11.4799897,9.45217038 L14.5906096,9.45217038 C14.5609666,9.71280353 14.5433069,9.98906216 14.5433069,10.2859464 L14.5433069,21.3187912 L11.4799897,21.3187912 L11.4799897,9.45217038 Z M10.5024023,39.0605956 L10.5024023,22.2600706 L15.2641988,22.2600706 L15.2648295,39.0605956 L10.5024023,39.0605956 L10.5024023,39.0605956 Z M16.8132017,5.96956155 C16.0487915,6.35269852 15.177162,7.09334667 14.7728823,8.51151598 L11.4579151,8.51151598 C11.3551108,7.21460046 10.8871303,6.37207413 10.0634341,6.00393762 C7.68505865,4.93890434 3.13643931,8.58651833 1.29100667,10.2028188 C1.22352161,10.2628207 1.12576288,10.2690709 1.04629449,10.2190693 C0.975025214,10.1740679 0.939075228,10.0946905 0.954212064,10.015313 C1.22793652,8.57714304 2.61106495,3.74324198 8.92690994,1.9169349 C12.9968268,0.739398106 15.3606961,1.61130035 16.7728368,2.1313166 C17.325962,2.33507297 17.7630382,2.49632801 18.1635337,2.49632801 C20.0209496,2.49632801 21.0559308,2.41507547 21.6443753,2.28007125 L21.6443753,6.06018938 C20.3407153,5.41391918 18.3357152,5.2064127 16.8132017,5.96956155 Z M22.5923197,7.26585206 L22.5923197,0.940654395 L25.0507942,0.940654395 L25.0514249,7.26585206 L22.5923197,7.26585206 Z M14.1238904,24.5863933 L14.5988087,24.5863933 L14.5988087,35.5998625 L14.1238904,35.5998625 L14.1238904,24.5863933 Z M14.1238904,36.5173912 L14.5988087,36.5173912 L14.5988087,37.9449358 L14.1238904,37.9449358 L14.1238904,36.5173912 Z" id="Shape"></path>
            </g>
        </g>
    </g>
</svg>