<?xml version="1.0" standalone="no"?>
<!DOCTYPE svg PUBLIC "-//W3C//DTD SVG 20010904//EN"
 "http://www.w3.org/TR/2001/REC-SVG-20010904/DTD/svg10.dtd">
<svg version="1.0" xmlns="http://www.w3.org/2000/svg"
 width="178.000000pt" height="178.000000pt" viewBox="0 0 178.000000 178.000000"
 preserveAspectRatio="xMidYMid meet">
<metadata>
Created by potrace 1.11, written by Peter Selinger 2001-2013
</metadata>
<g transform="translate(0.000000,178.000000) scale(0.100000,-0.100000)"
fill="#000000" stroke="none">
<path d="M1110 1758 c0 -5 6 -21 14 -36 26 -50 58 -197 56 -256 0 -25 2 -27
15 -16 8 7 15 21 15 31 0 11 3 19 8 19 4 0 8 -26 9 -58 9 -245 9 -372 2 -372
-5 0 -9 7 -10 15 -3 45 -2 61 2 70 3 6 -2 18 -13 28 -17 16 -18 15 -19 -25 -6
-222 -11 -259 -46 -311 -23 -37 -25 -38 -43 -22 -49 44 -162 322 -175 430 -21
171 -26 198 -40 218 -10 14 -14 15 -19 5 -4 -10 -7 -10 -12 -1 -3 7 -11 10
-19 7 -7 -3 -19 4 -25 16 -20 37 -31 9 -34 -81 -2 -46 -6 -91 -10 -99 -3 -8
-13 -46 -21 -85 -37 -176 -83 -321 -97 -307 -14 14 -40 125 -35 154 2 15 0 25
-5 22 -12 -8 -10 10 4 24 9 9 9 12 -1 12 -7 0 -11 6 -8 13 2 6 0 20 -5 31 -7
13 -6 21 3 27 10 6 11 9 2 9 -7 0 -13 7 -13 16 0 9 5 12 12 8 7 -5 8 -3 3 7
-5 7 -8 26 -7 42 1 15 0 32 -3 37 -3 5 -7 67 -9 138 -3 93 -8 137 -20 160 -19
37 -24 41 -65 44 -18 1 -35 6 -37 10 -3 4 -16 8 -30 8 -18 0 -24 -5 -24 -23 0
-13 4 -27 9 -32 6 -6 13 -32 17 -60 3 -27 8 -61 10 -75 7 -48 27 -263 27 -290
-1 -33 38 -210 63 -285 24 -75 91 -188 105 -179 4 2 13 -3 20 -12 10 -13 9
-32 -10 -109 -20 -85 -25 -94 -52 -105 -16 -7 -32 -10 -35 -7 -5 4 -74 260
-89 327 -1 8 -8 34 -14 58 l-12 42 -123 0 -124 0 18 -57 c10 -32 47 -147 84
-255 36 -108 66 -203 66 -210 0 -8 -15 -22 -33 -32 -17 -11 -56 -37 -85 -59
-44 -33 -52 -44 -52 -72 0 -45 9 -65 29 -65 9 0 55 25 101 55 l85 55 25 -75
24 -75 48 0 48 0 -17 -28 c-17 -27 -17 -27 2 -12 11 8 24 21 28 28 4 6 13 12
19 12 6 0 -8 -20 -31 -45 -23 -25 -43 -44 -46 -42 -3 1 -12 -8 -21 -21 -28
-41 -5 -37 39 6 24 23 48 42 55 42 7 0 12 5 12 11 0 5 4 8 9 5 4 -3 19 6 31
19 13 14 32 25 43 25 10 0 21 9 24 20 3 10 14 22 24 25 10 4 19 11 19 16 0 5
6 9 14 9 7 0 19 7 26 15 7 8 17 12 23 8 6 -4 8 0 5 8 -4 10 2 15 17 17 13 1
39 11 59 23 l35 20 15 -53 c8 -29 18 -65 22 -80 l6 -28 122 0 122 0 47 145
c27 80 51 145 55 145 4 1 30 3 57 6 28 3 79 6 115 7 84 3 93 9 86 61 -3 22 -5
51 -5 64 -1 26 -28 39 -104 48 -75 9 -76 10 -82 15 -2 3 17 70 44 150 l49 144
-72 3 -73 3 2 192 c2 230 -9 355 -47 504 -19 78 -22 83 -54 93 -18 6 -38 9
-44 5 -5 -3 -10 -3 -10 2 0 4 -16 13 -35 19 -19 6 -35 7 -35 2z m-206 -807 c5
-8 -7 -11 -39 -11 -51 0 -49 -7 -29 80 3 14 7 34 9 45 2 11 4 22 4 25 1 3 12
-25 25 -61 13 -36 26 -71 30 -78z m326 49 c-6 -11 -12 -20 -14 -20 -2 0 -2 9
1 20 3 11 9 20 15 20 5 0 4 -9 -2 -20z m-200 -235 c0 4 16 -7 35 -24 19 -16
52 -35 73 -42 33 -10 38 -15 34 -35 -5 -26 -21 -34 -85 -39 l-44 -3 -18 66
c-10 37 -20 74 -23 82 -5 13 -3 13 11 1 9 -7 17 -10 17 -6z m-180 -153 c0 -10
-6 -19 -14 -19 -8 0 -11 8 -8 19 2 10 8 18 13 18 5 0 9 -8 9 -18z m300 -23 c0
-5 -23 -9 -52 -9 -58 0 -56 16 2 22 39 4 50 1 50 -13z m335 1 c14 -6 -3 -9
-52 -7 -40 1 -73 5 -73 9 0 11 100 9 125 -2z m-619 -29 c-7 -11 -56 -21 -56
-10 0 6 13 11 53 18 5 0 6 -3 3 -8z m239 -53 c26 4 34 -11 13 -24 -7 -5 -8 -3
-3 7 8 12 6 12 -8 1 -19 -16 -37 -8 -36 16 0 9 3 12 5 6 3 -6 16 -9 29 -6z
m-490 -18 c-3 -5 -16 -15 -28 -21 -21 -10 -21 -9 2 10 25 23 36 27 26 11z
m282 -48 c7 -31 6 -40 -12 -55 -20 -18 -20 -18 3 -7 17 8 22 8 22 -2 0 -8 -14
-19 -31 -25 -17 -7 -28 -17 -24 -22 3 -6 1 -11 -4 -11 -22 0 -26 -2 -42 -16
-9 -8 -19 -11 -23 -7 -4 5 -6 1 -4 -7 2 -8 -3 -14 -10 -15 -7 0 -17 -6 -21
-14 -5 -8 -11 -9 -15 -3 -3 6 1 17 10 26 8 9 13 20 9 25 -8 14 25 132 43 154
9 10 23 15 34 11 10 -3 18 -1 18 4 0 6 9 8 19 5 12 -3 23 -18 28 -41z m213 14
c0 -2 -7 -7 -16 -10 -8 -3 -12 -2 -9 4 6 10 25 14 25 6z"/>
<path d="M1192 1437 c-6 -7 -7 -18 -2 -26 4 -8 6 -20 3 -27 -3 -8 3 -21 13
-31 16 -17 17 -16 10 12 -4 17 -7 42 -6 58 0 30 -3 33 -18 14z"/>
<path d="M1198 1323 c6 -2 12 -9 12 -14 0 -6 -4 -7 -10 -4 -6 4 -10 -8 -10
-29 0 -27 3 -34 15 -30 8 4 15 14 15 23 0 14 -2 14 -10 1 -7 -10 -10 -11 -10
-2 0 7 7 15 15 18 11 5 12 11 4 25 -5 10 -15 19 -22 18 -9 0 -9 -2 1 -6z"/>
</g>
</svg>
