<svg width="593" height="216" xmlns="http://www.w3.org/2000/svg" xmlns:xlink="http://www.w3.org/1999/xlink"><defs><path d="M135.494.883c-.429.068-.87.133-1.326-.016-.317.13-.317.512-.525.764-.212-.126-.109-.764-.426-.761-2.956.003-6.127.262-9.086.269.108.382.211.635-.209.635-.108-.509.209-.635 0-.891-1.043.363-1.805.301-2.493.24-.783-.065-1.472-.133-2.368.405.325.226.59.178.799.13.27-.06.455-.12.577.375-.534-.253-.742-.127-1.482.003-.106-.382-.317-.635-.423-1.017-.74.126-.528.382-.845.764-.212-.638-.529-.252-1.163-.505-.317.253-.314.888-.74.765-.103-.383.423-.383.106-.765-2.217.133-4.33.007-6.233.518-3.065-.631-6.127.136-8.98.14-.212.638.316.255.21.638-.633.256-.422-.509-.845-.635-.105.256-.53.13-.74.508-.211-.76-.422-.379-1.056-.379-2.537.004-3.38.39-5.916.266-.109 0-.109.253-.317.253-.74-.253-3.065-.629-3.91.262-1.48-.635-2.746.003-4.648.006-.317 0-.214.506-.423.506-.317-.123-.32-.635-.74-.635-.91.463-1.756.43-2.534.402-.94-.043-1.785-.081-2.539.754-.103-.256-.103-.379 0-.635-1.246.483-2.355.483-3.409.483-1.176 0-2.287 0-3.455.67-.154.004-.323-.038-.501-.077-.453-.104-.981-.204-1.507.337 0-.256-.106-.383-.211-.383-4.334.515-7.819 1.157-12.36 1.798 0 .26.103.382-.106.641-.109-.256-.109-.641-.426-.638-2.956.515-6.864 1.16-9.506 1.542 0 .256.211.382 0 .382-.209-.256-.42-.256-.74-.256-6.761 1.034-15.63 3.207-22.923 4.493-3.908 1.023-7.393 1.917-10.775 2.558-2.216 1.02-4.964 1.28-7.181 2.303-.214-.126-.106-.382-.317-.382-.951.765-2.114.512-2.748 1.403-.209 1.91-.1 3.054 1.274 4.197 1.374.127 2.745.506 4.439.25 2.745-.389 5.701-1.539 8.026-1.795.109-.256.317-.382.529-.508 1.48-.003 3.907-1.153 5.493-1.027 3.38-1.153 6.021-1.535 9.506-2.306.106-.13.212-.382.315-.512.53.256 2.433-.126 2.853-.638 1.902.123 4.333-.77 6.236-1.282.74.382 1.9 0 2.533-.383-.21-.13-.21-.382-.105-.382.74-.259.845.38 1.265.502.32-.126-.42-.505 0-.761.307.295.33.12.377-.055.035-.123.081-.253.257-.2 0 .381-.208.381-.208.764.631-.639 1.902-.004 1.477-.639.214 0 .53.127.74.383.53-.583 1.108-.58 1.701-.577.7.003 1.415.01 2.103-.955.843.631 2.537.754 4.014-.007 0-.385-.106-.764.211-.764 0 .126.317.379.317.505.317 0 .317-.379.634-.126 0-.127.106-.382.423-.382.106.382-.106.382 0 .89 2.64-.515 4.119-1.405 6.233-1.153.845-.003 1.69-.512 2.11-.641-.21-.765.952-.765 1.058-.382-.423.126-.843-.13-.949.511.423.506 1.16-.132 1.794-.132.317-.509-.634-.38-.211-.765.634-.126.528.638.845.765.477-.447 1.241-.415 2.033-.386.794.033 1.612.062 2.195-.382.528.758 2.216.12 2.642-.645-.214 0-.634.13-.743-.123.529-.003 1.163-.256 1.374.123-.528 0 .106.638.212.638.585-.353 1.138-.314 1.772-.278.504.032 1.057.061 1.715-.11.212-.13-.214-.89.212-.765.103.253 0 .765.314.762-.133-.396.025-.298.187-.195.098.059.198.117.239.068.317-.256.105-.89.528-.89.314 0 .314.508.634.382.317-.512.843-.256 1.477-.638 0 .252-.211.379-.211.764 1.27.379 2.325.376 3.382-.9-.106.511.208.64.422.89-.105-.252-.105-.379.212-.379 0 .127.105.253.105.38 2.854-.768 5.708-.01 9.613-1.034-.046-.107-.168-.074-.285-.042-.154.039-.3.081-.244-.21.634 0 .951-.509 1.377-.004-.531.003-.214.256-.106.765.445-.321.962-.282 1.488-.243.718.052 1.447.107 1.997-.78.9.919 2.03.683 3.266.453.65-.123 1.327-.247 2.016-.204 0-.256-.103-.512.105-.642.426 0 .74 0 .952.256-.082.094-.204.084-.323.071-.198-.02-.377-.039-.312.438.74 0 1.269.126 2.22.126.832-.165 1.583-.165 2.317-.165.943.003 1.85.006 2.862-.353.105-.256-.003-.638.208-.638.317-.127.531-.127.743 0-.109.126-.109.255-.109.508.483.512 1.141.353 1.81.194.505-.116 1.014-.233 1.467-.07-.106-.383.317-.383.634-.765.116.567.203.346.306.126.087-.175.187-.35.328-.126-.106.382-.317.508-.209.764 1.583-.003 3.38-.259 4.33.246h-.742c-.103.638.426.127.217.638-.396-.155-.7-.055-.978.052-.396.146-.748.295-1.241-.304-.215.252-.212.635-.635.512 0-.26.318-.13.21-.635-.315.126-.527.126-.844.126.057.421.18.418.296.415.095-.004.184-.007.233.22-.407.21-.653-.003-.916-.214-.22-.175-.445-.346-.778-.291-.209.255.214.634-.103.76-.317-.505-.845.13-1.162.13-.106-.126-.212-.252-.212-.635-.634.004-.951.004-1.477.386.092.172.315.113.534.052.263-.078.52-.15.52.2-.539-.174-1.119-.022-1.723.127-.707.175-1.447.35-2.187.006-.228.823-1.01.648-1.634.473-.529-.152-.94-.298-.794.169-.317-.13-.529-.256-.74-.383-.317.127.211.383-.211.509-.526.13-.423-.126-.317-.509-.843.891-1.586.512-2.854 1.02 0-.252.211-.252.211-.505-.42 0-.42.506-.948.635.211-.252.42-.764-.003-.764 0 .13-.103 0-.208 0-.426.256.317.382 0 .512-.353.252-.564.171-.792.087a1.034 1.034 0 00-.371-.084c-.423.887-1.797.764-2.325.638-.423.508-1.9.512-2.22.13.003.634-1.054.382-1.582.767 0-.13 0-.385-.106-.385-.528.638-2.536.77-3.382.388.106.509 0 .386-.314.638-.846-.634-2.642.642-3.802.642.103-.13.209-.382-.003-.382.106.638-.951.255-.74 1.02 1.903-.003 2.96-.894 4.65-.392 1.692-.638 3.7-.894 6.128-1.024 6.867-1.664 14.156-2.06 21.869-2.96 1.48-.13 3.062-.894 4.436-.518-2.85 1.023-5.493.518-8.661 1.542-.317-.383-1.268.003-1.585.13-2.431.51-5.919.265-8.347.903-.106.126-.106.382-.211.382-1.797-.123-3.594-.25-4.436.897-.098.062-.13-.074-.177-.207-.051-.156-.127-.308-.352-.172 0 .253.214.505 0 .505-2.43-.631-4.013.39-6.867.648.106 1.017-.74.765-.74 1.276-.422-.89.529-.511.529-1.02-.951.13-1.163.26-1.797.26-.317.126.212.252-.106.505-2.43-.885-4.856 1.026-7.815 1.03-.108.126 0 .767-.317.767-1.005-.353-2.306.046-3.607.447-1.03.318-2.057.632-2.943.577.211.511.106.764-.211.894.211-.765-2.537-1.014-1.794.003.103-.13.843-.386 1.054.123-.634.003-1.688.897-2.428.515.106-.253.526-.512.843-.638-.737-.382-2.854.385-3.588 1.023-1.06-.256-2.22.004-2.854.645.423.12.846-.007 1.374.25-.74.505-1.797.508-2.325.385 0-.382.634 0 .528-.635-.333-.117-.647 0-.956.12-.377.142-.754.285-1.157.006.105.382-.529.256-.423.765.106.382.528.252.528.508-.105.256-.525.894-.631.638.317-.512-.423-.89 0-1.273-.268-.064-.295.097-.32.256-.027.159-.054.32-.314.256.103-.256-.003-.382-.212-.382-1.268.382-3.382 1.406-4.544 1.15-4.75 2.426-10.455 3.452-15.631 6.26-.209 0-.106-.508-.317-.382-.209.256 0 .127.108.509-1.48.512-2.43 1.15-4.119 1.406 0-.253.42-.635 0-.765-.214.512-1.06.382-1.165 1.147-.634-.25-1.9 1.146-2.534 1.788.846-.13 1.903-1.02 2.537-.386 2.325-.77 4.119-1.661 6.233-2.173-.106 0-.318-.509-.106-.509 1.374-.13 2.11-.132 3.485-1.276.152.49.742.24 1.36-.006.672-.266 1.377-.535 1.599.126-.214 0-.317.126-.214.382.317.256.74-.508.634-.764.106.126.529.638.529.126-.423-.126 0-.764.105-1.146.212 0 .529-.256.632 0 0 .379-.737.382-.418.89.634.13 1.372.127 2.111-.003.526-1.27 2.851-.256 3.166-2.04.108 0 .32-.13.53-.13.212-.379 0-1.143.635-1.143-.109.764.211.635.317 1.143a.84.84 0 00-.512.032c-.155.059-.266.114-.44-.032-.105.13-.316.26-.314.512 2.32-.386 2.848-1.15 4.754-.897 1.16-1.02 2.636-1.024 3.693-1.788-.209 0-.317-.127-.423-.509.74 0 1.797-.512 2.323-.385-.209.764-1.586.13-1.583.767.423 0 .529 0 .951.253.317-.512 1.797-1.15 1.903-.385.74-.256 1.371-.509 1.9-1.02 1.056-.004 2.533-.768 3.804.122.212-.255-.32-.894.212-1.15.42.13.21.13.634.383.317-.253 0-.635.42-.638.105.13.105.256.105.256.74-.386 1.163-.127 1.903.126.105-.382-.634-.638-.212-.765.103-.126.103-.255.212-.255.135.576.273.566.553.56.151-.007.346-.013.61.074.314-.13.63-.638.842-1.146.599.12 1.274-.02 1.938-.156.737-.152 1.466-.304 2.078-.107-.003-.126-.108-.382.106-.382 3.062.253 5.81-.9 8.98-1.409-.002-.385-.213-.511.104-.638.303-.181.485-.016.631.156.152.181.263.363.425.097.423-.89 1.9-.638 3.063-.894 0 .505.214.635.634.632.211-.25-.103-.762.211-.762.32.127.529.509.954.635.103-.256.103-.508.314-.764.003.126.003.256.003.382.526-.382.632-.382 1.054 0 .147-.803.708-.732 1.176-.664.204.03.385.062.513.023-.103.003-.21.003 0-.127v.127c.214-.509 1.482-.512 2.008-.26 0-.252.105-.378.211-.505a8.446 8.446 0 003.17-.644c.74.19 1.61.032 2.47-.13.858-.158 1.701-.32 2.39-.13.317-.129.317-.637.634-.637 1.374.76 3.379.12 4.964-.392v.511c.214.124.214-.255.317-.255.65.242 1.25-.004 1.927-.243.756-.276 1.607-.548 2.724-.146 1.265-.638 4.436-1.024 5.915-.522.317 0 .949-.76.74 0 .843-.76 1.691-.255 2.642-.13 0-.252 0-.381.209-.634.528-.13.634.505.954.635.209-.13.42-.509.42-.765.214.635.845.124 1.057-.13.105.51.528.506.742.765.103-.259-.425-.511-.002-.511.845.126 1.48.252 2.219.126.317-.13-.211-.382 0-.638.897-.065 1.583-.033 2.217-.003.634.032 1.214.061 1.902-.004-.211 0-.211-.508 0-.511.672.592 1.314.41 1.96.23.465-.133.932-.263 1.422-.104.295.36.83.269 1.352.175.591-.104 1.168-.208 1.396.33 2.956-.641 6.55-.395 9.615-.907.317.382 1.371.253 1.9-.133 1.056.127 2.959.253 3.804-.13.212.254.212.506.529.506.886-.194 1.756-.09 2.617.007 1.396.165 2.77.327 4.144-.778 1.268.632 3.276 1.263 4.65-.262.423 0 .423.379.632.379.214-.382 0-.509.53-.382 0-.635-.53-.509-.425-1.017.426.13.317-.512.315-.765 0-.508-.423-.508-.635-.76 0-.383.529-.257.317-.765-.21-.761-1.69-.635-1.585-1.523.157-.13.315-.032.488.062.17.094.355.191.57.062-.11-.891-1.06-.762-1.06-1.656-3.063-.375-6.765-1.133-9.935-.874-.103-.123-.317-.123-.317-.38-.266-.064-.556.069-.832.195-.277.127-.54.256-.75.191.105 0-.638-.382-.424-.382-.214 0-.74 0-.95-.13-.478.004-.957-.01-1.448-.029-1.477-.042-3.043-.087-4.788.295-.423-.635-2.006-.758-2.534.263-.211-.256.211-.512-.106-.765-.878.204-1.756.107-2.582.013-1.26-.146-2.401-.291-3.23.632.108-.13.108-.38.105-.638-2.853-.25-6.235-.12-9.72.016 0 .13.105.382 0 .382-.412-.444-.821-.56-1.239-.56-.236 0-.471.035-.712.071zm10.192.223c.317.127 0 .635-.315.635-.003-.382.315-.385.315-.635zm.634.509c0-.26.211-.13.211-.382.211.123.423.252.425.635-.32 0-.425-.253-.636-.253zm-20.496-.224h.21c.105.282-.21.282-.424.425.106-.143.214-.282.214-.425zm-18.915.823c0-.424.634-.424.529.14-.106-.14-.317-.14-.529-.14zm-.51-.285c.236 0 .24.761-.116.509v-.383c.033.04.057.056.076.056.04 0 .04-.091.04-.182zm34.11.201c2.114.379 4.65.502 7.396.117 6.975 1.004 13.737-.023 20.078 1.37-1.268 0-2.111.003-3.802.259-.634 0 0-.382-.317-.635-.531-.126-.212.508-.529.635-12.048-.49-24.514-.726-35.925-.327-.095 0-.268.1-.306.035h-.003v-.003c-.006-.006-.006-.02-.006-.032-9.089.142-17.65.029-25.888.93-.634-.25-.95-.124-1.796.006-4.228-.246-10.038.395-15.533.657-3.591.263-6.23.392-9.51.78-2.11.383-4.753.768-6.335.519-.317.256-.529.382-.743.638-1.48-.126-2.932.071-4.371.262-1.439.192-2.867.386-4.29.26-8.03 1.794-16.059 2.568-23.454 4.107.848-1.02 3.384-.515 4.544-1.406.315-.075.518-.013.721.045.133.042.268.081.44.078C61.582 5.56 80.603 4.64 101.838 3.209c.344-.046.732-.026 1.152-.007.734.036 1.566.075 2.441-.253 3.38.12 7.396-.013 9.718-.272 4.862-.132 12.154.107 18.176-.537 1.168.236 2.314.333 3.428.333 1.3 0 2.56-.136 3.756-.343zm-39.413.198c.214-.143.32.139.426.139.046.126-.076.197-.209.197-.16 0-.33-.103-.217-.336zm-6.953.508c.076-.155.222-.317.341-.256 0 .256-.236.256-.236.515a.21.21 0 01-.07.013c-.106 0-.098-.136-.035-.272zm47.952.962c.108 0 .108 0 .106-.142h.317v.285c-.106 0-.209.139-.209.139h-.214v-.282zm-5.583-.136c.355.13.239.89-.113.894-.233-.382.233-.382.113-.894zm3.792.266c.116 0 .235-.14.352-.143v.282c-.117 0-.236.142-.352.142v-.281zm-7.293-.124c-.108.143-.211.286-.425.286.108-.143.214-.286.425-.286zm1.306.004c0 .142-.235.142-.355.142 0-.139.239-.139.355-.142zm16.97.087c0 .765-.949 1.02-.843.13.526 0 .423 0 .843-.13zm-27.785.298c-.108.253-.214.38-.317.765-.182.07-.228-.02-.287-.114-.049-.071-.109-.142-.241-.142.528-.38.103-.638-.317-.38 0-.764.842-.258 1.162-.129zm17.327-.282c.423.253.632.253.846.635-.529 0-.634-.252-.951 0-.214-.382.105-.382.105-.635zm3.913.632c-.116-.385.239-.256.12-.512.151 0 .217.143.211.285-.003.14-.073.279-.195.279a.24.24 0 01-.136-.052zM130.263 4.2c.106 0 .217 0 .217-.143.217.14.217.282.106.421h-.323V4.2zm-9.194-.133c0 .256-.103.382-.103.512-.317 0-.635 0-.635-.383.318 0 .318 0 .738-.13zm-1.372.133c-.211.123-.105.508-.422.508 0-.256.105-.638.422-.508zm-4.436.02c-.108.28-.32.142-.425.142 0-.143.211-.143.425-.143zm-2.433.274c-.176.156-.255.094-.344.036-.07-.049-.15-.094-.29-.032 0-.285.848-.428.634-.004zm-9.295.24c.067-.172.279-.117.471-.061.1.029.195.061.266.058.062.22-.23.44-.466.44-.174 0-.317-.116-.271-.437zm.95-.003c.212 0 .106.508.318.382 0 .253-.317.256-.531.256 0-.256.214-.256.214-.638zm-4.121.262h.317c.211.253 0 .253 0 .635h-.314c0-.382-.214-.253-.003-.635zm22.926.09c.425 0 .743.254.743.636h-.009c-.314 0-.626-.004-.734-.635zm13.21.108c0 .56-.633.696-.528.003.212-.003.318-.003.529-.003zm-5.6.295c.121-.286.357-.286.357-.004-.04.049-.065.065-.092.065-.051 0-.106-.061-.266-.061zm.636-.16c.122.114.269.091.393.072.19-.036.344-.071.344.353-.092-.181-.24-.13-.379-.078-.068.026-.133.052-.187.052-.1 0-.17-.084-.17-.398zm-10.146.017c.106.635-.42.253-.737.509-.002-.357.13-.354.304-.347h.054c.122 0 .26-.016.38-.162zm-5.598.424c0-.139 0-.139-.109-.281.317 0 .531 0 .848-.004.128.256-.051.308-.284.308-.155 0-.33-.023-.455-.023zm2.22-.013c-.11-.278.63-.42.525.146-.16-.146-.239-.11-.304-.071a.184.184 0 01-.086.029c-.038 0-.079-.023-.136-.104zm-31.596-.236c.425.259-.103.768-.317.768-.211-.509.531-.127.317-.768zm22.105.227c.114.281-.111.42-.333.424-.114-.424.108-.424.333-.424zm-9.423.139h.315v.382c-.103-.13-.212 0-.103.126h-.212c-.105-.126-.105-.252-.105-.379.03.036.051.052.068.052.037 0 .037-.09.037-.181zm-12.365.298c-.103-.282.74-.282.637.14a.6.6 0 01-.252.057.485.485 0 01-.385-.197zM105.224 6c0 .255-.212.385-.423.508-.212-.505.317-.379.423-.508zm-26.945.333c.108-.146.32-.427.425-.285.079.107-.268.379-.393.379-.04 0-.057-.026-.032-.094zm49.597-.24c.116.383-.239.256-.122.509-.472-.126-.117-.638.122-.509zm3.444-.006c.848.13 1.057.13 2.011.126.106.382-.106.635-.425.635-.42-.631-1.057-.126-1.794.13 0-.509.528-.38.208-.891zm-2.217.006c0 .253.106.383.106.506-.317-.253-.317 0-.634.13.103-.383.209-.636.528-.636zm-4.861.431c0-.42.423-.567.634-.282 0 .253-.19.305-.366.305-.116 0-.225-.023-.268-.023zm-20.498-.392c.317-.003.423.143.423.425h-.42c0-.143 0-.282-.003-.425zm16.376.37c.068.443-.241.33-.531.22-.173-.065-.342-.127-.42-.078.214-.567.848-.142.951-.142zm-25.462-.1h.317c0 .138.105.28.105.423h-.317c0-.142-.105-.285-.105-.424zM82.4 6.421c-.106.281-.21.424-.423.424 0-.282.214-.282.423-.424zm9.72.11c.211-.191.342-.094.477 0 .133.094.263.19.474 0 0 .252-.211.379-.436.379-.222 0-.46-.127-.515-.38zm1.268 0c.212-.13.846-.256.846.379-.07-.042-.19-.026-.314-.013-.063.006-.125.013-.187.013-.185 0-.345-.062-.345-.38zm-1.374 0c.106.252-.103.382-.422.508 0-.382.108-.508.422-.508zm19.761.097c0 .424-.423.567-.634.285 0-.262.163-.253.339-.243.035.003.07.003.106.003.07 0 .135-.006.19-.045zm-4.016.003c.317 0 .423.26.74.256 0 .165-.182.26-.369.26-.24 0-.49-.156-.37-.516zm-35.27.35h-.225c0-.143-.11-.14-.11-.14-.114-.281.56-.281.335.14zm17.095-.311h.317c0 .14.105.282.105.282h-.314s-.108-.14-.108-.282zm-2.003.13h.236c.116.142.119.281.119.281s-.12 0-.236.004c0 0 0-.143-.119-.285zm-9.498.016h.233c.122.139-.117.282-.353.282 0-.14.12-.143.12-.282zm64.862.022c0 .425-.317.428-.529.143.106-.143.315-.143.529-.143zm-58.009.085c.108.285-.106.566-.423.424.106-.14 0-.282 0-.424.07 0 .141.064.244.064a.31.31 0 00.18-.064zm2.01.006h.237c.116.14.119.282.119.282h-.236s0-.143-.12-.282zm41.417.058c0 .425-.317.428-.529.285.106-.285.317-.142.529-.285zm11.2.107c-.106.285-.212.425-.529.428-.105-.428.317-.428.529-.428zm-12.889.02c0 .505-.74.764-.634 0 .317.382.315 0 .634 0zm-3.804.259c.842-.256 1.37-.512 1.796.252-.113-.042-.336-.01-.588.026a3.463 3.463 0 01-.517.049c-.296 0-.564-.071-.691-.327zm-49.028-.165c-.106.142-.315.281-.634.281-.106-.563.422-.281.634-.281zm-.949.116c-.214.382-1.268.256-2.008.382.314-.634 1.691-.508 2.008-.382zm49.557.557c-.111-.382 0-.382.108-.635.154 0 .241.166.241.328s-.081.324-.255.324a.34.34 0 01-.094-.017zm3.311-.631c0 .282-.236.142-.352.285 0-.143.233-.143.352-.285zm-34.8.048c.208 0 .208.143.422.143 0 .175-.111.256-.225.256-.16-.004-.32-.153-.198-.399zm-9.404.013c.106.425-1.057.71-.951.143.157-.214.29-.143.436-.068.07.032.146.068.23.068.084 0 .176-.036.285-.143zm39.833.7c.106-.382.74-.126.634-.635.212-.13.106.253.106.509-.317 0-.455.213-.594.213-.046 0-.092-.022-.146-.087zm15.216-.658c0 .425-.53.285-.634.428-.124-.33.04-.324.241-.314.141.003.304.006.393-.114zm-2.008.26c-.105.56-1.48.563-1.796.281.528-.281 1.056-.142 1.796-.281zm-49.028.2c-.208.253-.526.127-.843.383-.108-.509.635-.635.843-.383zM70.15 7.86c-.003-.14.236-.143.355-.004-.04.098-.068.127-.095.127-.051 0-.103-.123-.26-.123zm60.963.294c-.106-.281.528-.142.634-.281.067.272-.128.427-.33.427a.373.373 0 01-.304-.146zm-.315-.149c-.108.282-.214.425-.425.282.105-.142.211-.282.425-.282zm-4.122.509c1.269-.13 2.323-.897 3.065-.133-.525-.104-1.035.052-1.493.21-.352.12-.68.244-.962.244a.7.7 0 01-.61-.321zm-53.461-.279c.116-.139.352-.139.352 0-.038.094-.065.127-.09.127-.053 0-.105-.127-.262-.127zm53.247.15c-.314.767-1.054.514-1.9.514.423-.508 1.058 0 1.9-.515zm3.17.634c.004.127.004.38.004.509h-.529c.106-.253.212-.509.526-.509zm-58.956.24c0-.282.74-.282.637.14a.23.23 0 01-.13.041c-.169 0-.34-.181-.507-.181zm57.594.44h.236v-.42h-.236v.42zm-2.225-.162c.314-.139.42 0 .526.418-.315 0-.423-.139-.526-.418zm-.531 0c.106-.003.214-.003.317-.003 0 .143 0 .282.106.425h-.315c-.108-.143-.108-.282-.108-.422zm-6.442.515c.42.127.632 0 .737.509-.317 0-.634 0-.737-.509zm-59.277.603c-.105.265-.317.402-.634.402 0-.535.529-.535.634-.402zm63.29.408c.074.803-.316.732-.774.664-.198-.03-.41-.062-.596-.026-.109-.253-.109-.382-.109-.508.138-.11.358-.049.596.01.139.032.285.067.426.067a.555.555 0 00.458-.207zm1.521.016c0 .14-.238.14-.355.14 0-.14.236 0 .355-.14zm-4.054.502c0-.262.526-.13.634-.262.098.366.06.473-.054.473-.13 0-.355-.14-.58-.21zm-67.412 0c.105-.285.42-.285.42-.142.068.175-.109.294-.255.294-.09 0-.165-.045-.165-.152zm-18.807.415c-.423-.143-.317 0-.846.14 0-.419.952-.704.846-.14zm67.518.376c.211 0 .211-.13.528-.26v.383c-.057.07-.211.178-.336.178-.106 0-.192-.075-.192-.301zm8.243.787c-.317 0-.634 0-.954.003 0-.56.954-.7.954-.003zm-1.582-.01c.116-.282.352-.143.352 0-.038.094-.065.126-.092.126-.052 0-.106-.126-.26-.126zm-11.723.246c.593-.256.002.509.119.761h-.003c-.35 0-.116-.635-.116-.761zm-4.342.641c0 .383-.208.512-.525.512-.003-.382.317-.382.525-.512zm2.857 1.4c.314 0 .422.139.422.42l-.422.004v-.424zm-9.084.265h.352c0 .253.003.38.003.509h-.239c-.116-.13-.116-.256-.116-.509zm-1.588.003c.211.127.42.253.634.127v.505c-.211.13-.211-.123-.211-.25-.423.13-.635.383-1.163.253.106-.382.211-.382.314-.635.068.081.266.37.372.37.06 0 .092-.094.054-.37zm6.552.509h.217c.217.282-.108.282-.325.282.108-.143.217-.143.108-.282zm-2.01.628h-.209s0-.126-.108-.126c-.103.256-.42.382-.632.126 0-.379.423-.379.632-.126-.103-.256.425-.382.317.126zm-7.71-.243c.103-.126 1.054-.13 1.054.509-.081.074-.157.107-.228.107-.284 0-.487-.515-.826-.616zm-.634.807h.352v-.421h-.352v.42zm-3.065-.165c.211.256.423.256.423.638-.212-.13-.423-.256-.423-.638zm6.021.758c.106-.256.214-.512.529-.642v.512c-.298.09-.334.181-.401.181-.03 0-.065-.016-.128-.051zm-4.859-.38c.106-.126.318-.126.529-.126v.638c-.317 0-.529-.13-.529-.511zm3.369.464c.312-.068.607-.143.54.168-.115-.045-.258.042-.402.133-.255.155-.517.311-.653-.26a.343.343 0 00.133.024c.114 0 .25-.033.382-.065zm-9.707.693c.423-.13.423.126.74.126-.423.13-1.057 1.017-1.268.26.07.038.176.067.276.067.203 0 .393-.113.252-.453zm6.444.12c.423-.256.846-.13 1.06-.003-.214.126-.423.508-.531.89 0-.508-.21-.508-.529-.887zm-7.693.136c.233 0 .235.133.235.388a.596.596 0 01-.257.085c-.203 0-.16-.276.022-.473zm-1.816.512c.634 0 .634-.256 1.06-.127-.057.399-.342.59-.605.59a.44.44 0 01-.455-.463zm-3.694 1.023c.42-.126.42 0 1.055-.256-.318.512.108.89-.526 1.15v-.385c0-.166-.103-.162-.217-.16-.019.004-.035.004-.054.004-.13 0-.258-.036-.258-.353zm6.973-.136c0 .509-.423.382-.845.509.21-.127.422-.509.845-.509zm-1.268.256c-.212.764-.74.256-1.266.635.315-.635.949-.382 1.266-.635zm-1.374.654c-.106.143-.529.285-.632.285.103-.424.526-.567.632-.285zm-4.309-.14c.236.13 0 .26 0 .513-.238 0 0-.253 0-.512zm3.149.257c.106.42-.214.42-.528.42 0-.138 0-.278-.003-.42.106.094.165.126.209.126.086 0 .108-.126.322-.126zm-6.87.81c-.317-.137-.317.003-.634.003.106-.557.846-.697.634-.003zm1.903-.298c.2-.182.309-.072.36.032.062.117.062.233.062-.032.318.252.318.508.846.634-.054.256-.157.224-.276.195-.122-.033-.252-.065-.358.188-.138.058-.179-.127-.212-.311-.043-.243-.08-.483-.317-.195-.314 0-.105-.511-.105-.511zm-3.558.518c0 .142-.117.282-.117.424-.116 0-.116-.142-.23-.142-.114-.136 0-.136 0-.282.076 0 .103.065.179.065.04 0 .092-.017.168-.065zm-1.618.508c.105 0 .211 0 .423-.13v.765c-.212 0-.529-.123-.423-.635zm-.212-.13c0 .26-.208.386-.208.642-.214-.256-.531-.126-.426.509-.263.13-.29-.065-.306-.253-.01-.191-.01-.382-.222-.256.32-.256.74-.512 1.162-.641zm5.39.004h.353v.285h-.35c-.003-.146-.003-.146-.003-.285zm-6.867.26c.42.252 0 .634-.108.76-.526-.123.108-.382.108-.76zm-.425.381c0 .282-.209.285-.423.425 0-.14.106-.14.106-.282.108-.143.211-.143.317-.143zm3.91.664v-.285c.212 0 .42-.003.635-.003.105.285 0 .356-.16.356s-.369-.068-.475-.068zm-.528.217c-.317.13-.528.256-.951.256-.209-.635.951-.89.951-.256zm-2.957-.246c.42-.13.635 0 .74.38a.36.36 0 01-.19.048.58.58 0 01-.55-.428zm-2.219.003c.106.38-.106.509-.211.761-.317 0-.42-.126-.529-.505.06.016.111.023.155.023.273 0 .311-.279.585-.279zm1.485.376c.106.256-.217.256-.217.512-.32-.13-.105-.635.217-.512zm-2.542.007c-.106.417-.423.557-.74.42-.103-.42.423-.281.74-.42zm3.276.634c0 .56-.528.282-.845.425.106-.282.423-.425.845-.425zm-3.276 0c.317.127.743.127.743.509-.317 0-.317.253-.637.256-.103-.256-.103-.509-.106-.765zm2.008.256c.106.564-.423.282-.631.425.103-.285.42-.285.631-.425zm-5.176.645c.212 0 .423.14.529.42h-.423c0-.138-.106-.28-.106-.42zm2.442.246c.116.13.236.253.236.508h-.006c-.35 0-.23-.255-.23-.508zm-.426.133h.236v.42h-.236v-.42zM45.971 27.6c0 .421-.317.421-.634.424.106-.281.528-.566.634-.424zm73.415-19.46c.238-.126.357-.252.355-.508-.117 0-.472.13-.355.508zM79.048 9.223c-.119-.256.355-.508-.119-.638 0 .13-.236.638.12.638zm-11.327 1.328c.12 0 .352-.142.352-.282-.116 0-.352.14-.352.282zm23.99 1.341c.004.143.004.282.004.282.116-.14.116-.14.233-.14v-.284c-.117 0-.117 0-.236.142zm-5.286 2.284c.526 0 .526-.383.843-.13-.103-.382-.103-.256-.103-.764-.128.08-.217.02-.315-.042-.065-.043-.13-.085-.216-.085.105.509-.318.509-.21 1.02zm-3.28-.632c0 .126 0 .253-.102.126.003.127.003.253.003.383h.208c0-.13.106-.256.212-.13v-.382c-.106 0-.212 0-.32.003zm.638.126c0 .765.422.765.53 1.144.527-.635 1.583-.768 2.003-1.15-1.265.256-1.794.133-2.533.006zm-.317 1.147c-.103-.382.211-.382.211-.638-.317 0-.737.508-.211.638zm-2.957-.104c0-.269.42-.003.42-.401a.442.442 0 00-.238-.075c-.315 0-.523.37-.182.476zm-.848.107c.32.126.32-.256.423-.508-.209.126-.526.126-.423.508zm-1.046-.11v.285c.116-.142.238-.146.238-.146v-.278s-.122 0-.238.139zm3.374.363c.105 0 .317.126.317.252.317.13.314-.126.314-.508-.038-.049-.12-.078-.211-.078a.425.425 0 00-.42.334zm-4.122.265c-.049-.178.084-.165.23-.145.171.016.353.032.298-.243-.048-.059-.124-.084-.211-.084-.28 0-.642.275-.317.472zm2.428-.392c.003.383.214.383.214.765.206 0 .415-.003.52-.243 0-.003 0-.007-.002-.01-.193.052-.252-.113-.312-.272-.051-.142-.106-.285-.252-.285-.046 0-.1.013-.168.045zm.732.512c.002-.003.008-.003.01-.003l-.008.013a.176.176 0 01.009.023c.105.281.317 0 .422-.285a.352.352 0 00-.184-.055c-.157 0-.3.116-.25.307zm-1.77 0c-.116.127-.233 0-.116.127 0 .395.184.18.281-.033.06-.126.09-.252.036-.252-.036 0-.098.045-.2.158zm-4.77.642c.318-.38.738-.38 1.055-.256-.073-.26-.23-.357-.404-.357-.333 0-.72.363-.65.613zm-1.479.13c-.209.637.634 0 .423-.254-.106 0-.423.253-.423.253zm-1.794.385v.382a1.26 1.26 0 00-.862.178c-.273.146-.506.295-1.04.078-.423.89-2.957 1.023-3.594.644.317.382.426.382.426.888.42.13.42-.127.737-.256 0 .13 0 .256-.103.512 1.268-.004 1.685-1.403 3.17-1.024.21-.382 1.477-.897 1.686-.256.214.126.214-.13.423-.13.105-.764-.529-.634-.209-1.016-.423.252-.108.252-.634 0zm2.534.249c.211 0 .317.13.423.256 0-.308-.117-.476-.23-.476-.077 0-.153.071-.193.22zm-9.027 1.354c-.149.058-.306.116-.48.061.317 1.017-.845 1.147-1.374.765-.208.259-.422 1.02-.845.512 0-.253.528-.13.423-.383-.12-.139-.171-.084-.266-.029-.078.046-.181.088-.368.03.317.89-.843 1.02-1.16.89.103-.253.525-.253.525-.635-.411-.181-.672.172-.93.531-.27.376-.536.752-.97.49-.528.511-1.69.893-2.324.897.105-.256.422-.26.528-.642-.845.13-1.797.26-2.114.768.168.269.448.117.737-.036.266-.136.54-.272.743-.09-.423.379-.846.508-1.688.638.105-.382-.109-.382-.32-.509-.209.253-.631.127-.949.253 0 .259.212.764-.105.764-.15.185-.255.078-.347-.029-.095-.117-.176-.236-.287.03.211 0 .108.255.214.511-.426-.256-.214 0-.74.003.106.635.423.123.528.761-.002-.255.212-.13.423-.255 0-.127-.108-.509.106-.509 1.054-.26 1.794-.768 3.062-.897 1.266-.127 2.005-1.02 3.38-1.15.845-.13 1.585-.764 2.322-.894.127 0 .22.042.309.084.127.059.244.12.433.04.306.054.577-.114.83-.283.346-.233.655-.47.964-.1-.003-.638.632-.509.74-.761-.108 0 .106-.13 0-.386-.528.127-1.057.509-1.268.26-.003-.512.843-.133.843-.639-.09-.107-.18-.142-.271-.142a.858.858 0 00-.304.08zm-9.775 3.637c0 .512-.422.386-.631.512-.108-.509.314-.512.631-.512zm17.856-.243a.94.94 0 01.187.033c.203.051.42.107.341-.321-.317 0-.422.003-.528.288zm-23.243 2.034v.761c.637-.252.637-.123 1.165 0 .185-.599.52-.489.897-.378.255.077.531.152.792-.004-.106-.256.103-.894-.106-.764-.212.126-.529.126-.634-.126.105-.256.95-.127.843-.639a1.711 1.711 0 00-.185-.012c-.902 0-1.883.803-2.772 1.162zm.845.165c-.108-.424.635-.424.74-.281a.52.52 0 01-.49.337.641.641 0 01-.25-.056zm-1.9.473c-.425-.126.107.509-.316.509h-.212c0 .337-.119.317-.246.301-.111-.016-.233-.029-.282.21.317.127-.209.383-.317.383-.211-.765.845-.765.314-1.273-1.16.764-2.322 1.147-4.222 2.17.632.509-.423.635 0 1.017 0-.13.212-.256.423-.256-.106-.635.317-.635.526-.894.105.26-.103.386-.103.642.211 0 .317 0 .317.123.42-.765 1.902-.509 2.11-1.53-.316-.125.106-.508.424-.378-.106.505.21.505.21.761.74-.003.846-.638 1.16-.894.106.126.215.256.426.126-.068-.32.16-.285.396-.249.13.023.265.042.344-.003-.108-.382-.317-.382-.108-.642-.42 0-.42.26-.843.13 0-.094.303-.337.22-.337a.717.717 0 00-.22.084zm-3.116 1.966c-.054-.003-.108-.006-.16-.006.106-.285.212-.428.529-.428.07.383-.052.44-.233.44-.043 0-.09-.002-.136-.006zm-1.002.201c.103 0 .103 0 .103-.126.108-.126.214-.126.317-.126v.252c-.103 0-.103.13-.103.13s-.106.13-.214.13c0 0-.103-.13-.103-.26zm5.813-1.486c.235 0 .355-.146.355-.428-.236.143-.475 0-.355.428zm-8.138 2.383c.317.253-.209.888.528.635 0-.298-.195-.754-.38-.754-.05 0-.102.035-.148.12zm-.621.192c-.095.064-.173.13-.33.064.002.509-.21.635-.315 1.147.634 0 .423-.764 1.16-.515.106-.505-.209-.38-.106-.761a.542.542 0 00-.162-.026.396.396 0 00-.247.09zm8.336.813c.42-.127.42-.509.528-.888-.32.123-.423.505-.528.888zm-9.742.408c-.065.317.008.634.338.498.106-.382-.211-.252-.105-.764.211 0 .317 0 .211-.256-.019-.003-.035-.006-.054-.006-.182 0-.333.265-.39.528z" id="a"/></defs><g fill="none" fill-rule="evenodd"><path d="M62.368 142v-38.52h14.688V91.528H32.704v11.952H47.32V142h15.048zm33.058 0v-18.792h17.928V142h14.976V91.528h-14.976v20.088H95.426V91.528H80.45V142h14.976zm82.09 0v-11.52h-27v-7.992h23.833v-11.52h-23.832v-7.92h26.28v-11.52H135.54V142h41.976zm34.797 0v-13.608h7.92L226.93 142h16.992l-10.224-16.488c2.736-1.584 4.836-3.732 6.3-6.444 1.464-2.712 2.196-5.916 2.196-9.612 0-5.712-1.86-10.128-5.58-13.248-3.72-3.12-8.964-4.68-15.732-4.68h-23.544V142h14.976zm8.568-25.128h-8.568v-13.824h8.568c2.256 0 3.996.588 5.22 1.764 1.224 1.176 1.836 2.868 1.836 5.076 0 2.256-.612 3.984-1.836 5.184-1.224 1.2-2.964 1.8-5.22 1.8zM263.227 142V91.528h-14.976V142h14.976zm31.475 1.008c3.6 0 7.416-.624 11.448-1.872 4.032-1.248 7.416-2.832 10.152-4.752v-20.52h-12.888v12.6c-2.928 1.392-5.472 2.088-7.632 2.088-2.4 0-4.584-.6-6.552-1.8-1.968-1.2-3.516-2.856-4.644-4.968-1.128-2.112-1.692-4.464-1.692-7.056 0-2.544.552-4.86 1.656-6.948 1.104-2.088 2.628-3.732 4.572-4.932 1.944-1.2 4.116-1.8 6.516-1.8 2.208 0 4.476.504 6.804 1.512 2.328 1.008 4.356 2.352 6.084 4.032l8.496-10.224c-2.688-2.4-5.952-4.296-9.792-5.688-3.84-1.392-7.68-2.088-11.52-2.088-5.328 0-10.14 1.128-14.436 3.384-4.296 2.256-7.656 5.376-10.08 9.36-2.424 3.984-3.636 8.448-3.636 13.392 0 4.992 1.176 9.48 3.528 13.464 2.352 3.984 5.592 7.116 9.72 9.396 4.128 2.28 8.76 3.42 13.896 3.42zM337.408 142v-18.792h17.928V142h14.976V91.528h-14.976v20.088h-17.928V91.528h-14.976V142h14.976zm65.962 0v-38.52h14.688V91.528h-44.352v11.952h14.616V142h15.048zm45.885.648c5.664 0 10.14-1.524 13.428-4.572 3.288-3.048 4.932-7.308 4.932-12.78V91.528h-32.256v11.952h17.136v21.456c0 1.68-.396 2.952-1.188 3.816-.792.864-1.884 1.296-3.276 1.296-1.44 0-3.108-.48-5.004-1.44-1.896-.96-3.756-2.376-5.58-4.248l-6.84 9.864c5.088 5.616 11.304 8.424 18.648 8.424zm49.33.36c5.184 0 9.876-1.14 14.076-3.42 4.2-2.28 7.488-5.424 9.864-9.432 2.376-4.008 3.564-8.508 3.564-13.5 0-4.944-1.188-9.396-3.564-13.356-2.376-3.96-5.664-7.068-9.864-9.324-4.2-2.256-8.892-3.384-14.076-3.384-5.232 0-9.936 1.128-14.112 3.384-4.176 2.256-7.452 5.364-9.828 9.324-2.376 3.96-3.564 8.412-3.564 13.356 0 4.992 1.188 9.492 3.564 13.5 2.376 4.008 5.652 7.152 9.828 9.432 4.176 2.28 8.88 3.42 14.112 3.42zm.216-12.456c-2.208 0-4.26-.612-6.156-1.836-1.896-1.224-3.408-2.892-4.536-5.004-1.128-2.112-1.692-4.44-1.692-6.984 0-2.544.564-4.86 1.692-6.948 1.128-2.088 2.64-3.732 4.536-4.932 1.896-1.2 3.948-1.8 6.156-1.8 2.208 0 4.224.6 6.048 1.8 1.824 1.2 3.264 2.844 4.32 4.932 1.056 2.088 1.584 4.404 1.584 6.948 0 2.592-.528 4.932-1.584 7.02-1.056 2.088-2.508 3.744-4.356 4.968-1.848 1.224-3.852 1.836-6.012 1.836zM556.267 142c3.984 0 7.476-.576 10.476-1.728 3-1.152 5.316-2.796 6.948-4.932 1.632-2.136 2.448-4.62 2.448-7.452 0-3.216-.924-5.988-2.772-8.316-1.848-2.328-4.308-3.804-7.38-4.428 2.64-.768 4.728-2.136 6.264-4.104 1.536-1.968 2.304-4.224 2.304-6.768 0-2.592-.792-4.848-2.376-6.768-1.584-1.92-3.84-3.396-6.768-4.428s-6.336-1.548-10.224-1.548H530.42V142h25.848zm-1.872-30.672h-9.072v-8.568h9.072c1.488 0 2.664.372 3.528 1.116.864.744 1.296 1.764 1.296 3.06 0 1.344-.432 2.412-1.296 3.204-.864.792-2.04 1.188-3.528 1.188zm.356 19.444l-.356-.004h-9.072v-9.144h9.072c1.92-.048 3.444.324 4.572 1.116 1.128.792 1.692 1.884 1.692 3.276 0 1.488-.564 2.664-1.692 3.528-1.128.864-2.652 1.272-4.572 1.224l.356.004zm29.823 20.3l6.336-10.008c1.2-1.872 1.8-3.648 1.8-5.328 0-2.064-.648-3.696-1.944-4.896-1.296-1.2-2.88-1.8-4.752-1.8-1.968 0-3.6.636-4.896 1.908-1.296 1.272-1.944 2.892-1.944 4.86 0 1.056.228 2.04.684 2.952a5.717 5.717 0 001.98 2.232l-4.104 10.08h6.84zM117.654 214v-13.608h7.92L132.27 214h16.992l-10.224-16.488c2.736-1.584 4.836-3.732 6.3-6.444 1.464-2.712 2.196-5.916 2.196-9.612 0-5.712-1.86-10.128-5.58-13.248-3.72-3.12-8.964-4.68-15.732-4.68h-23.544V214h14.976zm8.568-25.128h-8.568v-13.824h8.568c2.256 0 3.996.588 5.22 1.764 1.224 1.176 1.836 2.868 1.836 5.076 0 2.256-.612 3.984-1.836 5.184-1.224 1.2-2.964 1.8-5.22 1.8zM168.568 214v-50.472h-14.976V214h14.976zm31.474 1.008c3.6 0 7.416-.624 11.448-1.872 4.032-1.248 7.416-2.832 10.152-4.752v-20.52h-12.888v12.6c-2.928 1.392-5.472 2.088-7.632 2.088-2.4 0-4.584-.6-6.552-1.8-1.968-1.2-3.516-2.856-4.644-4.968-1.128-2.112-1.692-4.464-1.692-7.056 0-2.544.552-4.86 1.656-6.948 1.104-2.088 2.628-3.732 4.572-4.932 1.944-1.2 4.116-1.8 6.516-1.8 2.208 0 4.476.504 6.804 1.512 2.328 1.008 4.356 2.352 6.084 4.032l8.496-10.224c-2.688-2.4-5.952-4.296-9.792-5.688-3.84-1.392-7.68-2.088-11.52-2.088-5.328 0-10.14 1.128-14.436 3.384-4.296 2.256-7.656 5.376-10.08 9.36-2.424 3.984-3.636 8.448-3.636 13.392 0 4.992 1.176 9.48 3.528 13.464 2.352 3.984 5.592 7.116 9.72 9.396 4.128 2.28 8.76 3.42 13.896 3.42zM242.75 214v-18.792h17.928V214h14.976v-50.472h-14.976v20.088h-17.928v-20.088h-14.976V214h14.976zm65.962 0v-38.52h14.688v-11.952h-44.352v11.952h14.616V214h15.048zm45.74 0v-28.08L375.835 214h12.744v-50.472H374.9v28.152l-21.384-28.152H340.7V214h13.752zm65.963 1.008c5.184 0 9.876-1.14 14.076-3.42 4.2-2.28 7.488-5.424 9.864-9.432 2.376-4.008 3.564-8.508 3.564-13.5 0-4.944-1.188-9.396-3.564-13.356-2.376-3.96-5.664-7.068-9.864-9.324-4.2-2.256-8.892-3.384-14.076-3.384-5.232 0-9.936 1.128-14.112 3.384-4.176 2.256-7.452 5.364-9.828 9.324-2.376 3.96-3.564 8.412-3.564 13.356 0 4.992 1.188 9.492 3.564 13.5 2.376 4.008 5.652 7.152 9.828 9.432 4.176 2.28 8.88 3.42 14.112 3.42zm.216-12.456c-2.208 0-4.26-.612-6.156-1.836-1.896-1.224-3.408-2.892-4.536-5.004-1.128-2.112-1.692-4.44-1.692-6.984 0-2.544.564-4.86 1.692-6.948 1.128-2.088 2.64-3.732 4.536-4.932 1.896-1.2 3.948-1.8 6.156-1.8 2.208 0 4.224.6 6.048 1.8 1.824 1.2 3.264 2.844 4.32 4.932 1.056 2.088 1.584 4.404 1.584 6.948 0 2.592-.528 4.932-1.584 7.02-1.056 2.088-2.508 3.744-4.356 4.968-1.848 1.224-3.852 1.836-6.012 1.836zM479.32 214l8.784-32.328L496.6 214h15.408l17.064-50.472h-15.336l-8.928 34.992-9.072-34.992H481.12l-9 35.064-9.072-35.064h-15.984L463.984 214h15.336z" fill="#252525" fill-rule="nonzero"/><path d="M51.602 41.468a4.057 4.057 0 01-.224-.728c-.033-.186.022-.42.165-.7l.027-.39.516.198-.484 1.62zm-2.285 5.585l-.63-.848c.56-.1.938-.134 1.136-.105l-.506.953zm1.838.06a1.102 1.102 0 01-.313-.137l-.219-.153c-.003-.384.02-.612.072-.685.051-.073.232-.137.543-.191l.098.558c.044.248-.016.45-.18.608zm-1.203 2.995l.385-2.18c.252.34.4.634.444.882.066.372-.21.805-.829 1.298zm-2.573 1.221l-.346-.323.017.093-.51.378c.16-.54.548-1.248 1.163-2.124.128.361.165.658.11.892-.055.234-.2.595-.434 1.084zM46.615 53l-.192-.542c-.281-.142-.283-.334-.005-.575l.16.356.477-.564.203.06c-.07.332-.284.754-.643 1.265zm-1.583 5.749c.015-.643.012-1.026-.01-1.15l1.91-2.256-.61 1.451-.268.383a.83.83 0 00-.127.646c.088.497-.21.805-.895.926zm8.883-2.526l.083-1.166.642.366-.725.8zm-.163 1.342c-.066-.296-.006-.713.18-1.25l.18 1.025c-.186.032-.294.147-.324.345l-.036-.12zm-.679 3.7c.03-.197.085-.43.165-.7.08-.27.156-.572.226-.904l.115.651a.906.906 0 01-.165.701l.093-.016-.434.268zm-.11 1.555a1.159 1.159 0 00-.167-.402 1.159 1.159 0 01-.167-.403c-.044-.248.11-.467.46-.657l.291 1.1-.417.362zm-.766 6.564l-.466.082c-.106-1.324.125-2.74.693-4.248l.204-1.571c.03-.197.163-.349.4-.455v1.632c.054.31-.057.585-.335.826-.308.438-.44.782-.396 1.03l.016.093c.264.401.278.846.044 1.336l-.16 1.275zm-4.98-3.152l.708-.893c.088.497-.148.794-.708.893zm1.591 2.113c.018-.138.036-.283.051-.435.024-.229.077-.478.157-.748.15.486.071.947-.236 1.385l.028-.202zm-3.65 2.568l-.505-.678c.322.007.504.039.546.095.042.057.028.251-.041.583zm-.424 3.05c-.27-.08-.413-.247-.425-.501a5.002 5.002 0 00-.052-.567c.406.12.579.282.518.485-.06.202-.08.366-.058.49l.017.093zm6.34 12.508l.095-1.648c-.257.365-.357.702-.303 1.013.055.31.124.522.208.635zm-6.606-29.83l-.034.227a2.952 2.952 0 01-.498 1.115c-.253-.34-.395-.603-.428-.789-.044-.248.203-.483.741-.706l.22.153zm9.32 1.044l.269.432-.286 1.106c-.179-.288-.23-.583-.156-.884.075-.301.133-.52.173-.654zm-9.552 2.548c-.102.146-.225.36-.368.64-.143.281-.39.517-.74.707l.055-.778c.124-.022.175-.095.153-.219l.05.28.23-.33.62-.3zm2.536 8.38c-.07.333-.136.776-.198 1.33a31.372 31.372 0 01-.287 1.923c-.07.332-.12.772-.151 1.322a6.298 6.298 0 01-.229 1.431c-.04.135-.093.289-.159.46l-.062.166c-.038.106-.07.204-.097.294l.193-2.72c.048-.457.123-1.03.226-1.72.103-.69.233-1.496.39-2.42-.043-.248.06-.394.308-.438l.066.373zm-1.183 6.926c-.019.26-.032.55-.04.87-.007.322-.009.674-.005 1.057l-.001 1.632.033.186-.198.514.115.652-.034.23-.054.361c-.073-.05-.12-.138-.143-.263-.05.073-.066.172-.044.296-.22-.153-.34-.292-.362-.416.154-.219.25-.588.286-1.106l.156-3.482c-.011-.062.086-.239.29-.53zm.174 22.807l-.373.066-.23-1.303c.26.018.428.245.505.679l.098.558zm-1.19-42.203l-.137.312-.017-.093-.093.016c.238-1.193.692-2.073 1.362-2.639a.459.459 0 01-.053.25.459.459 0 00-.052.249c.172.609-.083 1.166-.763 1.67l.28-.05c-.103.146-.185.225-.247.236-.063.01-.105-.046-.126-.17l-.154.219zm2.556 10.68l-.022.092a3.738 3.738 0 00-.05.593c-.007.32-.124.565-.35.733l-.019-.071a1.833 1.833 0 00-.078-.2c-.053-.118-.054-.214-.002-.287l.225-.903.296.043zm8.187-14.11l.11-.054c.37-.202.384-.449.039-.74l-.472-.492c-.073-.051-.087-.129-.041-.233a.459.459 0 00.052-.249l.894.706.248-1.867-.576.006.528-1.916c.118.218.198.357.238.415l.017.022-.02.008c-.026.02-.038.061-.035.122l.008.068.056-.19h.003l.001-.013c.176-.095.247-.235.214-.422a1.05 1.05 0 01.011-.481c-.354-.194-.403-.473-.147-.838.33-.314.472-.595.428-.843l-.082-.465c-.033-.187.028-.39.181-.608.063-.011.088-.048.077-.11l.015.088-.009-.077a2.627 2.627 0 01-.003-.345l.009-.147c.018-.26.053-.426.104-.499.15-.602.302-1.013.456-1.232.102-.146.085-.334-.052-.566-.137-.232-.092-.432.135-.6-.325-.39-.36-.864-.106-1.42.254-.557.36-.96.316-1.208.278-.24.373-.61.286-1.105a1.05 1.05 0 01.01-.482l.122-.405.022-.964c.245-.427.398-1.014.459-1.76.06-.747.131-1.255.212-1.525l-.016-.093c-.18-.288-.26-.658-.244-1.108.017-.451.003-.8-.04-1.049l-.033-.186a.64.64 0 01.104-.498c.051-.073.14-.12.264-.143l-.318-.711-.202-1.692-.44-.306c-.164.157-.29.163-.38.019-.09-.144-.14-.247-.151-.31l-.878-.612-.29.53-.182.609c-.022-.125-.095-.176-.22-.154l-.986-.69c.026-.58-.105-.956-.392-1.13-.287-.173-.732-.334-1.336-.484l.121-.405c-.2-.412-.55-.67-1.05-.774-.499-.104-.946-.185-1.341-.244v1.632c.054.31.088.688.103 1.133.014.445.018.828.01 1.15l-.215 2.053c.066.372.022.668-.132.887-.377.77-.527 1.372-.45 1.806.021.124.138.424.35.898a4.46 4.46 0 00-.222.375c-.097.177-.135.328-.113.452-.169.861-.32 2.007-.452 3.438a95.78 95.78 0 00-.19 2.193c-.08 1.005-.276 1.887-.591 2.647-.04.135-.07.332-.088.59-.019.26-.017.452.005.576.061 1.076-.186 1.856-.742 2.338-.186.032-.269.111-.247.235.117.3.073.595-.132.887-.113.084-.198.243-.253.476-.055.234-.102.418-.143.553-.15.603-.338.988-.565 1.156a.737.737 0 00-.313.678c.018.285-.035.438-.16.46-.099.53-.389 1.157-.87 1.881-.481.725-.788 1.259-.92 1.602l-.428.843c-.04.135-.148.25-.324.345-.176.095-.258.173-.247.235.055.31-.013.562-.203.756-.19.193-.311.327-.363.4-.091.208-.2.499-.326.873-.127.374-.272.64-.437.797l-.878 1.018-1.214 1.845-1.41 2.36a1.491 1.491 0 01-.495.471c-.113.084-.25.22-.409.408-.159.188-.326.33-.502.424-.33.314-.705.637-1.128.967-.422.33-.886.7-1.39 1.109-.29.179-.784.378-1.482.597-.699.22-1.193.418-1.482.597a9.064 9.064 0 00-.301-.619l-.285-.525a2.58 2.58 0 00-.192-.542 2.925 2.925 0 00-.285-.525c-.22-.154-.37-.463-.452-.928-.082-.466-.233-.775-.452-.928a5.571 5.571 0 00-.096-1.087l-.238-1.35c-.36-2.047-.484-3.656-.37-4.828a.532.532 0 00-.02-.38 1.55 1.55 0 01-.111-.364c.237-.106.35-.286.337-.54a5.002 5.002 0 00-.052-.566c-.109-.62-.03-1.626.238-3.017l-.093.017c.029-.197.055-.506.077-.926.022-.42.136-.775.34-1.067.216-.23.286-.562.21-.997-.095-.175-.125-.522-.088-1.04.04-.135.145-.361.313-.679.169-.317.231-.6.187-.848-.098-.559-.04-.953.176-1.183.257-.365.383-.739.38-1.122a1.552 1.552 0 01.01-.482c.03-.197.034-.358.012-.482.018-.259.078-.557.179-.895.1-.338.129-.63.085-.879l-.05-.29a50.347 50.347 0 01-.19-1.346 4.066 4.066 0 00-.773-1.927l-.9.35.182-.607c-.757.07-1.253-.195-1.487-.794-.01-.062-.09-.144-.235-.246-.158-.164-.552-.495-1.185-.99-.632-.497-1.073-.723-1.322-.68l-1.222-.935c-.63.43-1.173 1.166-1.63 2.206.156.165.27.353.339.564.07.212.076.706.021 1.484l-.094 1.648c.022.124-.016.274-.113.451a4.46 4.46 0 01-.222.375l.427.789a2.347 2.347 0 00-.532.525c-.128.183-.165.43-.11.74.01.061.013.253.005.574-.007.321-.12.597-.335.827-.238.106-.262.334-.072.684.315.329.276.655-.115.98.032.186.078.354.137.504.058.15.073.323.043.52a3.23 3.23 0 01-.118.693c-.06.202-.105.402-.135.6.036.568.073 1.41.109 2.523a28.114 28.114 0 01-.03 2.836c.012.062.065.276.162.643s.006.67-.272.912l.05.279c.167.226.273.463.317.711a3.1 3.1 0 01.038.761l-.008.258c.002.17.017.338.046.503l.45 1.456.422.214c-.019.259-.05.536-.094.832a2.539 2.539 0 000 .816l.848 2.633-.696.41c.632-.047.97.053 1.014.301l.033.187c.066.372.233.774.501 1.207.269.432.462.798.579 1.097l.84-.148-.665.597.11.077.653-.116-.182.608-.312-.137.016.093.22.154.004.575 1.415 1.477-.263.143.784.63 2.187 2.588c.033.186.16.356.379.51.281.141.855.488 1.722 1.039.866.55 1.678.792 2.435.722a.995.995 0 01.538.05.995.995 0 00.537.048c1.244-.219 2.297-.245 3.16-.077.256-.365.498-.632.725-.8l.993-.367.098.559c.893-.03 1.443-.543 1.652-1.539.458-1.04.992-1.646 1.603-1.818.055.31.033.73-.066 1.26-.1.528-.127.917-.083 1.165l.05.28c-.166.157-.215.421-.15.793.055.31.057.502.006.575l-.33 1.402c-.008.321-.034.901-.078 1.74a23.15 23.15 0 01-.198 2.147c-.158.923-.218 2.037-.18 3.342.037 1.305.09 2.879.159 4.722l.081 2.097.306 2.825v1.63c.302.267.476.525.52.773.044.248.014.445-.088.591l1.222 2.567c-.011-.062.093-.016.312.137l.158.12c.316.257.641.63.975 1.12.389.57.704.995.945 1.272l.291-.53c.187-.034.312.04.376.221.064.18.132.296.206.348.391-.325.77-.36 1.135-.105l.862-1.111c-.033-.186-.142-.263-.329-.23-.187.033-.357.159-.51.378-.14-.424-.077-.706.187-.849.263-.142.42-.25.471-.323l.894.706c.33-.314.421-.522.275-.624a.724.724 0 00-.143-.263.837.837 0 01-.158-.356c-.11-.62-.323-1.286-.641-1.998a6.95 6.95 0 01.102-.785c.05-.265.057-.49.025-.677-.106-.237-.236-.79-.389-1.658-.153-.869-.226-1.464-.219-1.785l.56-.099-.256-2.545c.018-.26.048-.633.09-1.12.043-.487.062-.922.059-1.305l.21-2.628c-.176.095-.34.252-.494.47l-.455-.399c.113-.084.322-.265.625-.542.304-.278.454-.608.45-.991.293.204.39.395.294.572a4.46 4.46 0 01-.222.375l.285.526c.172-.479.23-.873.176-1.183l-.318-.712-.285-.525c-.015-.445.21-.805.675-1.079.125-.022.18-.255.165-.7-.205.291-.395.485-.57.58l-.148-.838-.053.075-.027-.004a6.48 6.48 0 00-.518-.028l-.165-.004c.651-.307.995-.72 1.032-1.238.07-.332.291-.53.664-.597.04-.135.12-.324.236-.57.117-.244.154-.49.11-.738l-.158-.356-.676 1.079c-.16-.548-.045-.984.346-1.309l-.285-.525-.384.547-.038-.203c-.075-.386-.154-.654-.236-.804a.595.595 0 01.209-.18c.088-.048.183-.145.285-.291l.368-.64c-.01-.063.035-.167.138-.313l-.203-.06c.032.186.023.316-.028.389-.23-.215-.28-.495-.148-.838.395.059.688.263.878.613.234-.489.132-.887-.307-1.193l-.044.295c-.446.015-.64-.175-.581-.569.088-.591.352-1.277.79-2.058l.599.662c.029-.197.156-.747.382-1.65.225-.904.323-1.801.295-2.692l.462-2.288c.08-.27.124-.566.132-.887.007-.321.02-.611.039-.87.296-.5.44-1.134.434-1.9-.007-.767.044-1.384.154-1.85.11-.468.21-.997.297-1.588.089-.592.254-1.292.495-2.103.18-.8.264-1.23.253-1.292-.043-.248-.102-.398-.175-.449zm24.408 23.812l-.28.05a2.243 2.243 0 01-1.27-.928 28.39 28.39 0 00-.583-.857c-.044-.248-.16-.356-.346-.323-.062.011-.098-.014-.11-.076-.361-.96-.81-1.872-1.348-2.737a.735.735 0 00-.09-.512 1.159 1.159 0 01-.167-.403c.07-.332-.042-.6-.334-.804a2.185 2.185 0 01-.027-.427c.003-.16-.031-.267-.104-.318-.074-.05-.087-.128-.041-.232.045-.104.026-.213-.058-.326-.073-.051-.1-.11-.08-.178.02-.068-.006-.127-.079-.178l-.115-.651a1.987 1.987 0 00-.104-.318.45.45 0 01.066-.443c-.01-.062-.111-.269-.301-.619a1.385 1.385 0 01.003-.528c.035-.166.041-.311.02-.435-.033-.187-.086-.305-.16-.356-.094-.175-.117-.395-.068-.66.05-.265.058-.49.025-.676l.105-.498-.126-.17-.082-.465a.64.64 0 00-.269-.433l-.05-.279c.144-.28.182-.608.117-.98l-.006-.575c-.01-.062.02-.163.091-.304.071-.14.008-.225-.19-.254l-.065-.372c.092-.208.077-.382-.043-.52a.846.846 0 01-.214-.395l.384-.547c-.128-.361-.229-.663-.304-.906a5.002 5.002 0 01-.145-.55c-.157-.164-.159-.356-.005-.575.154-.22.152-.41-.005-.575-.084-.113-.088-.224-.011-.334.077-.11.11-.195.099-.257-.044-.248-.102-.398-.176-.449-.073-.051-.08-.098-.024-.14.057-.042.08-.094.069-.156.153-.219.168-.317.044-.295-.209-.091-.262-.21-.16-.356.103-.146.149-.25.138-.312.059-.394.19-.737.395-1.03l-.345-.322.011-.482c-.044-.248-.04-.409.011-.482.103-.146.112-.276.028-.389l-.11-.076c.154-.22.215-.422.182-.608-.011-.062.022-.148.099-.257.077-.11.016-.18-.181-.208a.593.593 0 00.099-.258c.014-.098.078-.19.192-.273-.011-.062.128-.183.417-.362l-.504-.679c-.063.011-.059-.15.01-.481l.259-.718c.14-.664.353-1.085.642-1.264l-.016-.093.319-.92c.113-.084.287-.37.521-.86.132-.343.317-.567.555-.673a2.997 2.997 0 00-.685-1.703l-.252-.34c-.055-.31-.254-.53-.598-.661-.395-.059-.453-.208-.175-.45l-.423-.213-.11-.076c-.497.087-.86.024-1.09-.192-.023-.124-.14-.151-.352-.082-.212.07-.35.11-.411.12-.063.012-.175-.08-.338-.276-.162-.195-.337-.276-.523-.243-.125.022-.291-.013-.5-.104-.208-.091-.374-.126-.499-.104l-.11-.077c-.54-.16-.967-.213-1.278-.158l-.636.208c-.249.044-.501.248-.757.614-.125.021-.213.069-.264.142-.051.073-.146.17-.285.29a.464.464 0 00-.16.46l.017.093c.01.062-.02.163-.09.304-.072.14-.134.247-.185.32l-.11-.076c-.146-.102-.193-.19-.142-.263.04-.135.075-.301.105-.498.029-.197.115-.436.258-.718l.29-.53a.322.322 0 01.218-.135.322.322 0 00.216-.134c.249-.044.326-.153.23-.329.049-.456.28-.784.693-.985.175-.095.337-.268.485-.518a2.89 2.89 0 00.283-.577c.183-.416.363-.672.538-.767.051-.073.134-.151.247-.235.114-.084.154-.22.121-.405-.022-.124.03-.197.154-.22.238-.105.544-.367.92-.785.374-.418.712-.686 1.012-.803l.91-.832c.228-.168.465-.274.714-.318l.368-.64.11.076c.486-.15.864-.28 1.133-.391a2.9 2.9 0 00.573-.293c.165-.157.284-.21.357-.16.073.052.265.05.576-.005l1.103-.29c.497-.088.813-.112.949-.072.135.04.293.029.474-.035s.37-.082.568-.052c.395.058.903.032 1.525-.077l1.53.497c.063-.01.432.084 1.109.285.021.124.134.216.337.276.203.06.346.147.43.26.157.164.338.277.54.337.203.06.378.141.524.243.249-.044.384-.004.406.12.18.289.472.493.878.614l1.003.782.313.137c.084.113.179.288.285.525.106.238.232.407.378.51.366.255.643.558.833.908.011.062.066.1.165.115a.595.595 0 01.258.098c.033.187.085.305.159.356l.904 1.856c.033.186.116.475.249.868.133.392.253.707.359.944l.416 1.27c.011.062 0 .176-.036.342-.035.166.021.3.167.402.073.052.093.16.058.326-.035.166-.047.28-.036.342.022.124.06.246.112.364.053.119.065.277.036.474-.04.135-.023.42.054.854l.131.744c-.091.209-.13.535-.115.98.014.446-.025.772-.116.98l.213 1.21-.203-.06c.011.062.015.173.011.334a.442.442 0 01-.176.367c-.062.01-.082.078-.06.202.098.559.032 1.274-.199 2.147.011.062.005.207-.02.435a1.175 1.175 0 01-.189.561c-.04.135-.056.314-.05.536.008.223-.045.376-.159.46.106.238.068.564-.115.98-.183.416-.253.749-.21.997a.453.453 0 01-.082.35c-.077.11-.135.232-.176.367a2.098 2.098 0 00-.164.7c-.019.26-.08.463-.182.609-.102.146-.16.364-.173.654-.013.29-.07.508-.173.654.095.175.053.39-.127.646-.179.256-.258.445-.236.57.044.248-.059.394-.307.438.01.062.047.087.11.076-.019.26-.112.548-.28.865-.17.318-.231.6-.188.849.011.062-.06.202-.214.421l-.307.438-.121.406a1.05 1.05 0 00-.011.481c.021.124-.04.231-.184.32-.145.09-.206.197-.184.321l-.242.81c-.194.354-.264.687-.21.997-.018.259-.126.55-.326.873-.2.323-.283.578-.25.764-.238.106-.371.257-.4.454-.03.197-.07.332-.122.405-.153.22-.24.458-.258.718.022.124-.034.262-.167.413a4.464 4.464 0 00-.278.337l-.335.826c-.062.011-.166-.034-.312-.136a3.238 3.238 0 00-.212.709c-.05.264-.125.47-.228.616-.154.219-.328.41-.524.572a2.473 2.473 0 00-.447.463l.11.076c.021.124-.047.28-.207.468-.159.188-.259.35-.299.485-.04.135-.143.281-.307.438-.165.157-.267.303-.308.438a8.315 8.315 0 01-1.032 1.237c-.091.209-.261.335-.51.378-.692.442-1.255.701-1.69.778zm14.23-31.104l-.422-.214c.029-.197.064-.363.104-.498l.121-.405c.01.062.09.144.236.246-.052.073-.038.15.04.233a.459.459 0 01.135.216l-.214.422zm.213 1.21l-.373.065a.643.643 0 00-.027-.427 1.987 1.987 0 01-.104-.317c-.011-.062.015-.099.077-.11.062-.01.088-.047.077-.11l.093-.016.257.914zm2.136 7.203l-.532-.29.044-.295.17-.126.017.093.405.12-.104.498zm-4.544 3.68c-.168-.226-.197-.572-.087-1.04l.389.028.17-.126.11.076.033.186-.615.876zm3.275.988c-.177-.29-.235-.578-.176-.862.249-.044.41-.04.483.01l.192-.273c.077-.11.172-.207.286-.29l.005.574-.077.11c-.051.073-.142.105-.272.096-.13-.01-.215.054-.255.189.011.062.043.152.096.27.053.12-.014.195-.2.228l.016.093-.098-.145zm-1.646.069c.04-.135.14-.297.299-.485a.761.761 0 00.173-.654c.157.164.205.347.145.55-.06.203-.08.366-.058.49.055.31-.099.53-.461.657l-.098-.558zm-2.003.64l-.422-.213.395-1.029c.146.102.23.215.252.34l-.225.903zm-.868 2.169c-.106-.237-.04-.409.198-.515-.062.011-.167-.034-.313-.137l.703-1.467-.083 1.166c-.113.084-.164.253-.151.507.013.253-.105.402-.354.446zm3.62.897a.655.655 0 01-.301-.619l-.28.05c.018-.26.183-.416.494-.471-.011-.062-.053-.119-.126-.17-.073-.051-.053-.119.06-.203-.084-.113-.116-.203-.096-.27a.419.419 0 00.014-.195l.324-.345-.028.389.44.306-.352.734-.149.794zm-1.456 4.287a1.487 1.487 0 01-.471-.493l.324-.345c.062-.01.103-.05.123-.118.02-.067.061-.106.124-.117l.076-.11-.126-.17.154-.218c.077.434.225.728.444.88-.092.209-.247.236-.466.083l-.231.329.05.279zm-2.612 2.092l-.56.098-.016-.093c.289-.179.505-.409.648-.69-.011-.062.03-.1.123-.117a.322.322 0 00.217-.135c.033.187-.015.37-.143.553l-.224.319-.045.065zm-.533 1.341l-.422-.213.505-.953c.01.062-.001.176-.036.342-.035.166.047.264.244.293l-.291.531zm3.375-7.251c.048-.26.223-.47.524-.633.077.434-.103.69-.538.766l.014-.133zm4.522-7.96l.089-.066c.218-.196.284-.543.196-1.04l-.477.565.027-.389a6.17 6.17 0 01.196-.802c.1-.338.134-.6.102-.786l-.16-.355-.05-.046a.443.443 0 01-.092-.217c-.01-.062.015-.099.077-.11l.143.263c.113-.084.143-.185.09-.304a1.29 1.29 0 01-.096-.27l-.186.032c-.062.011-.12.053-.17.126-.052.073-.145.09-.28.05-.26-.019-.406-.12-.439-.307-.073-.051-.108-.157-.104-.317.004-.161.031-.278.083-.35.04-.136.023-.229-.05-.28-.073-.051-.115-.108-.126-.17.051-.073.201-.131.45-.175-.01-.062-.071-.131-.18-.208-.11-.077-.109-.157.005-.24l.154-.22c-.022-.124.027-.389.148-.794-.146-.102-.168-.226-.066-.372.103-.146.149-.25.138-.312l-.017-.093c-.124.022-.223.007-.296-.044.143-.281.192-.546.149-.794-.132-.744-.188-1.246-.17-1.505.04-.135.075-.301.105-.498a2.09 2.09 0 00-.022-.668l-.323-1.287-.368.64a2.041 2.041 0 01-.178-.735 1.494 1.494 0 00-.161-.644c-.168-.226-.29-.556-.367-.99a1.159 1.159 0 00-.167-.403l-.078-.14a.996.996 0 01-.09-.262l-.073-.419a.936.936 0 00-.167-.402c-.212-.475-.324-.743-.335-.805-.054-.31-.228-.568-.52-.772-.073-.05-.12-.139-.143-.263a1.064 1.064 0 00-.224-.728c-.168-.226-.29-.365-.362-.416-.19-.35-.28-.494-.269-.432-.076-.434-.376-.861-.899-1.28.392-.326.4-.647.023-.964a5.18 5.18 0 01-.395-.603 3.662 3.662 0 00-.269-.432.724.724 0 01.044-.296c.04-.135-.007-.222-.142-.262l-.548-.383-.253-.34a3.295 3.295 0 00-.767-.536 1.491 1.491 0 00-.626-.274c.04-.135-.022-.22-.189-.254a1.017 1.017 0 01-.359-.129c-.095-.175-.435-.467-1.02-.876l-1.876-.82-1.952-.712c-.147-.102-.25-.147-.313-.136-.186.033-.467-.014-.842-.14a3.966 3.966 0 00-.952-.216.92.92 0 00-.625-.273 2.94 2.94 0 01-.592-.088c-.063.011-.291-.012-.686-.07l-2.03-.603-.373.066c-.497.088-.892.03-1.184-.175-.22-.153-.423-.213-.61-.18l-.795-.148c-.75-.251-1.342-.339-1.777-.262a7.18 7.18 0 00-.505.137c-.274.08-.515.075-.724-.016l-1.152.01c-.355-.193-.645-.205-.872-.037-.227.168-.496.279-.807.334l-.466.082c-.187.033-.464.098-.831.195-.368.096-.665.229-.892.397-.176.095-.498.264-.969.506-.47.243-.827.578-1.073 1.005l-.06.203-.34.252a4.635 4.635 0 00-.417.361c-.205.292-.427.491-.664.597a.94.94 0 00-.278.337 3.55 3.55 0 01-.26.43c-.103.146-.303.373-.602.681-.298.309-.482.63-.551.961.073.051.12.139.142.263l-.093.016-.126-.17a2.528 2.528 0 01-.571.581c-.483.533-.734.93-.752 1.188-.03.197-.134.424-.313.68-.18.255-.29.45-.33.585l-.06.203.142.262c-.289.18-.411.393-.368.641l-.001.01-.087.581c-.256.365-.335.827-.236 1.385.003.384.011.702.024.956.013.253.03.442.052.566.076.435.157.708.24.822.012.062.026.235.044.52.018.284.106.509.263.673a.735.735 0 01.09.512.735.735 0 00.09.512c.21.09.392.219.55.383-.052.073-.061.202-.028.388l.065.373.625.273a.917.917 0 00.472.493c.208.091.386.188.532.29.33-.314.456-.688.38-1.122.343.13.54.16.592.087.05-.073.139-.12.263-.142.124-.022.212-.07.263-.143l.264-.142c.084.113.183.127.296.043a.728.728 0 01.263-.142c.147.102.253.068.319-.104.065-.172.166-.237.301-.197l.33.23a.322.322 0 00.249.052.322.322 0 01.25.052l-.363 1.215c.19.35.192.542.005.575-.216.23-.307.438-.275.624l.066.372c.066.373.073.595.022.668-.205.292-.213.613-.023.964l.126.17c-.153.218-.124.565.088 1.04.073.05.049.279-.072.684-.07.332.036.57.318.712a1.491 1.491 0 01-.494.47c.033.187.086.305.159.356.197.03.277.303.24.821-.08.27-.095.64-.044 1.112.051.47.062.805.033 1.002.095.175.11.348.043.52a1.828 1.828 0 01-.176.367c.147.102.225.184.236.246.011.062.043.152.096.27.053.12.054.215.003.288-.04.135-.003.257.112.364.115.108.147.198.096.271l-.247.236c.01.062.058.15.142.262.084.114.1.207.05.28-.052.073-.055.233-.012.481l-.01.482.174.449c.106.237.164.563.173.977.009.414.035.746.079.994.065.372.14.615.224.728l.066.372c.073.051.108.157.104.318-.004.16 0 .272.01.334l.055.854c.084.113.114.283.09.511a2.023 2.023 0 00-.003.529l.033.186c.147.102.233.23.26.386l.058.326a.837.837 0 01.159.355c.022.124.07.212.143.263.084.113.164.387.24.821l.488 2.217c.135.04.198.125.189.255-.01.13.022.22.096.27.073.052.128.186.167.403.038.217.1.382.183.496.073.05.148.293.225.728l.142.262c.095.176.227.376.395.602.168.227.274.464.318.712l.033.186c.135.04.234.15.298.331.064.181.102.302.113.364l.471.493c.095.175.236.246.422.213.136.04.178.097.127.17-.052.073-.072.14-.06.203.28.142.522.42.723.832.22.153.374.302.463.446.09.144.176.273.26.386l.05.279c.27.08.532.29.784.63.252.339.488.585.707.738l.658.46a.32.32 0 01.135.216c.016.093.055.134.117.123.271.08.49.234.659.46.208.091.485.298.83.621.346.323.705.452 1.078.386l.11.076.345.323c.48.172 1.249.356 2.31.553l.28-.05c.219.154.39.22.515.197.176-.095.443-.126.8-.093.36.033.606.07.741.11.644.014 1.028.01 1.152-.012l.467-.082a4.68 4.68 0 001.094-.337 5.078 5.078 0 011.188-.353c.311-.055.512-.187.604-.395.03-.197.235-.393.617-.588.383-.196.589-.392.618-.589.197.03.391-.053.582-.247a4.27 4.27 0 01.455-.416l-.22-.153c.125-.022.22-.119.286-.29.066-.172.13-.263.192-.274.516-.347.772-.712.769-1.095.113-.084.2-.227.26-.43.061-.202.154-.315.278-.337-.022-.124.04-.23.184-.32s.242-.17.293-.244l.336-.826a1.1 1.1 0 00.137-.312.619.619 0 01.23-.329c.165-.157.316-.391.453-.704.138-.312.258-.54.36-.687l.55-1.248c.186-.033.265-.127.238-.282-.027-.155-.015-.27.036-.342l.412-.936c.051-.073.066-.172.044-.296-.022-.124.024-.228.137-.312.33-.314.434-.812.314-1.495l-.05-.279.088-.591c.07-.332.17-.67.303-1.013.132-.343.221-.743.27-1.2a3.898 3.898 0 01-.044-.52 1.082 1.082 0 01.22-.662c.256-.365.422-.874.5-1.527.029-.197.096-.45.203-.756.106-.306.174-.558.203-.755.059-.395.094-.56.105-.499l.23-.328c-.168-.226-.14-.615.083-1.166.205-.292.28-.593.225-.904-.043-.248.032-.549.226-.903l.192-.274c.077-.11.099-.257.066-.443l-.054-.854zM91.7 64.818l.018.139c.024.355-.124.59-.446.704.01.062.09.144.236.246l-.604.394-.033-.186.198-.514c.07-.332.254-.557.554-.674l.077-.11zm.917-1.89l-.097.106c-.126.155-.242.37-.347.645-.132.343-.3.66-.506.953-.047-.632-.02-1.02.083-1.167.103-.146.181-.335.236-.569.055-.234.134-.423.237-.57.05-.072.091-.207.12-.405.03-.197.138-.312.324-.345.063-.01.077-.11.044-.295-.032-.186.048-.456.242-.81.103-.147.158-.38.165-.701.008-.321.13-.535.368-.64l.05.278c.021.124-.025.228-.138.312-.04.135-.06.299-.058.49.002.192-.054.33-.167.414.021.124-.016.274-.113.451s-.14.297-.13.359l.017.093c-.113.084-.18.256-.198.515-.018.259-.078.461-.181.607l.05.28zM132.035 31.7l-.097.037c-.186.056-.32.01-.402-.141.04-.135.078-.286.113-.452.035-.166.067-.347.096-.544.095.175.192.541.29 1.1zm-1.806 3.39c-.22-.154-.296-.317-.23-.488.066-.172.18-.336.346-.493l.34-.252c.358.577.206.987-.456 1.232zm3.137.885l-.203-.06.456-1.232c.18.288.195.558.047.808-.149.25-.248.411-.3.484zm-4.032 7.175a1.375 1.375 0 01-.3-.654c-.043-.248 0-.543.133-.886l.163-.548.109-.364c.14-.473.381-.835.722-1.087l.197 1.117-.39-.027c-.091.208-.116.612-.075 1.212.042.6-.102 1.058-.43 1.372l-.129-.135zm-27.365 7.286c-.169-.227-.197-.478-.085-.753.112-.276.162-.445.151-.507.011.062.072.228.184.496.111.268.028.523-.25.764zm31.305-5.712l.461-.657.126.17c-.102.145-.115.435-.039.87.077.434-.03.74-.318.92l-.23-1.303zm-6.065 5.963c.03-.197.1-.434.212-.71.111-.275.15-.506.118-.692l-.159-.355c-.07.332-.156.57-.258.717.01.062-.03.197-.121.405-.092.208-.022.42.208.635zm-23.637 6.663c-.332-.07-.515-.197-.548-.383.018-.26-.036-.57-.164-.931a5.673 5.673 0 01-.241-.821l.055-.778c.27.08.397.25.378.51-.018.259-.016.45.006.574.01.062.09.144.235.247.293.204.407.488.343.85-.064.364-.086.608-.064.732zm24.278-4.665c.31-.055.496-.184.557-.386.06-.203.116-.34.167-.413-.021-.125-.195-.382-.52-.772-.257.365-.324.889-.204 1.571zm-1.701 1.26c.267-.303.42-.522.46-.658.041-.135.038-.518-.01-1.15-.153.22-.382.74-.686 1.561l.11.077c.01.062.052.118.126.17zm1.31.344l.697-.41-.147-.838c-.443.398-.653.659-.631.783l.082.465zm-23.876 4.21l-.768-.536c.205-.292.389-.34.551-.145.163.195.312.313.447.353l-.23.328zm21.267 3.351l.466-.082-.148.794-.187.033-.131-.745zm-1.33 2.825l-.219-.153.242-.81c.146.102.25.148.313.137l-.335.826zm2.552-.258l.57-.58.204.06-.506.953-.268-.433zm-6.714 8.285a1.19 1.19 0 00-.515-.197l1.081-.958a.215.215 0 00-.05-.114l-.028-.019.155.023-.643 1.265zm14.146-26.675l.159.355c-.297.5-.482 1.269-.556 2.305.074.051.172.066.297.044l-.247.235c-.03.198-.105.499-.226.904-.12.405-.18.8-.176 1.182-.018.26-.106.579-.264.959-.157.38-.276.704-.357.974a24.9 24.9 0 01-.338 1.355c-.156.571-.3 1.029-.431 1.372l-.368.64c-.154.22-.214.422-.181.608.19.35.213.666.07.947l-.647.69a.643.643 0 00.027.427c.058.15.067.292.027.427.011.062-.035.166-.137.312a6.51 6.51 0 00-.802 2.54c-.03.198-.378.77-1.044 1.72l-.214.421-.658-.46c.578-.357.89-.956.934-1.795-.015-.445.09-.944.313-1.495.223-.551.38-.93.472-1.139l1.17-3.18.128-1.462c.05-.073.127-.279.228-.616.1-.338.337-.54.71-.606l.094-.016c-.12-.682-.152-1.22-.093-1.615.059-.394.284-.754.675-1.079l-.378-.509c.29-.179.466-.45.53-.813.064-.363.09-.576.08-.638l.632-2.414.57-.58zM124.23 62.15c-.04.135-.073.317-.096.545-.024.228-.04.503-.048.824-.263-.401-.387-.651-.372-.75.014-.098.186-.305.516-.619zm2.11 2.699c.304.266.34.468.107.605-.232.137-.374.242-.425.315-.015-.446.092-.752.318-.92zm-1.49-3l-.036.01a5.678 5.678 0 00-.584.291l.335-.826a.657.657 0 00.096.27.419.419 0 01.08.179c.01.062.047.087.109.076zm2.19-2.305l-.213-1.21.186-.033.614.755-.587.488zm2.386-20.284l.011-.163.044-.615.016.094.077-.11c-.022-.124-.064-.18-.126-.17l-.049-.279c.31-.055.523-.124.636-.208-.04.135.037.297.23.487.194.19.116.38-.236.57-.036.518-.238.65-.603.394zm0 0l-.06.08c-.075.095-.137.147-.187.155l.093-.016c-.091.208-.219.486-.382.835-.163.348-.222.647-.178.895.021.124-.036.342-.174.654-.137.312-.19.561-.156.748l.142.262c.095.176.129.457.101.846-.027.389-.056.682-.085.879-.425.139-.593.456-.505.953l.334.804.703-1.467c.296.587.341 1.027.136 1.32-.08.27-.22.662-.417 1.176-.198.515-.259.99-.182 1.424l.543-.192-.461.657.082.465c.055.31.221.345.5.104l.164-.7c.019-.26.105-.499.258-.718l.077-.11-.126-.169c-.066-.372-.024-.683.124-.933s.413-.569.793-.956l-.378-.509.214-.421c-.208-.092-.267-.241-.175-.45.091-.207.163-.348.214-.421l-.093.016c-.062.011.082-.078.433-.268l-.504-.679a8.5 8.5 0 00.414-.648c.123-.214.23-.425.322-.633l-.241-.821-.017-.093c.227-.168.367-.465.42-.89.054-.425.163-.716.327-.873l-.609-.18.709-.893c.091-.208.08-.366-.036-.474a.628.628 0 01-.205-.347l-.017-.093.676-1.079c-.344-.131-.538-.321-.582-.57l-.005-.574c-.022-.124.034-.262.168-.413.133-.152.22-.295.26-.43l-.285-.526c.238-.106.434-.268.588-.487l.016.093c.22.153.373.478.46.974.044.249-.055.506-.296.772a7.101 7.101 0 00-.516.62c.486-.15.726-.065.718.256.066.373.013.798-.16 1.276-.223.551-.29 1.075-.203 1.571l.049.28c.066.372.044.791-.066 1.259l-.333 1.114c-.141.472-.215.87-.223 1.19-.018.26-.085.607-.2 1.043-.116.437-.146.81-.092 1.12l.033.186c.044.248-.006.513-.148.794-.143.281-.235.49-.275.624-.183.416-.346 1.037-.49 1.862-.142.825-.274 1.44-.395 1.845l-.61 1.45c-.132.344-.274.897-.428 1.66-.154.762-.41 1.4-.77 1.91-.102.146-.117.245-.044.296.212.474.182.848-.09 1.12-.273.271-.501.616-.684 1.032-.245-.66-.215-1.402.089-2.223l-.043-1.336c-.56.099-.79.427-.692.986l.033.186c.266.784.017 1.372-.747 1.763.43.628.233 1.142-.594 1.544l-.022.963c.267-.303.57-.404.908-.304.338.1.57.14.694.118l.042.112c.054.177.02.303-.1.378-.144.09-.242.17-.294.244.011.062.054.214.13.457.074.242-.033.453-.322.632l-.318-.712-1.108-.284.028-.389-.467.083c.297-.5.412-.937.347-1.309l-.115-.651c.37-.45.662-1.06.878-1.835.217-.773.281-1.409.193-1.905-.508.026-.755.261-.74.707l-.144 1.368c-.07.332-.166.605-.288.819-.123.213-.23.424-.322.632-.314.76-.445 1.294-.39 1.604.106.237.051.471-.165.701-.216.23-.307.438-.274.624.032.186-.048.456-.242.81-.194.355-.27.656-.226.904l.05.28c-.278.24-.521.683-.728 1.327-.207.644-.45 1.087-.728 1.328-.226.168-.333.474-.318.92l-.198.514a1.363 1.363 0 00-.593.728c-.106.307-.18.528-.22.663-.091.208-.216.502-.373.881-.158.38-.339.716-.544 1.008l-2.695 3.258c-1.221-.744-2.274-1.806-3.158-3.186-.095-.175-.289-.365-.581-.569a1.646 1.646 0 01-.614-.755c-.212-.475-.634-1.232-1.266-2.272-.085-.113-.154-.325-.209-.635-.054-.31-.13-.553-.224-.728a.776.776 0 01.005-.24c.015-.1-.014-.174-.087-.225-.241-.278-.421-.662-.54-1.153a9.496 9.496 0 00-.353-1.185 14.821 14.821 0 01-.293-.572 2.951 2.951 0 01-.233-.774l-.607-3.444c-.055-.31-.119-.49-.192-.542-.263-.401-.349-.706-.257-.914.05-.073.038-.327-.038-.76l-.663-2.667c-.095-.175-.129-.457-.1-.846a4.03 4.03 0 00-.025-.955 1.872 1.872 0 00-.334-.805l-.017-.093c.205-.292.286-.562.242-.81-.01-.062-.133-.392-.367-.99-.172-.61-.076-.979.286-1.107-.022-.124-.139-.423-.35-.897a1.159 1.159 0 00-.168-.403c-.09-.144-.109-.253-.057-.326a6.054 6.054 0 01-.096-1.086 5.54 5.54 0 00-.079-.994 1.835 1.835 0 00-.076-.706 1.323 1.323 0 01-.06-.613c.03-.197.006-.417-.069-.66-.074-.243-.092-.431-.051-.566.464-.274.675-.535.63-.784-.043-.248-.101-.397-.174-.448-.073-.051-.137-.232-.192-.542-.022-.124-.008-.319.041-.583.05-.265.058-.49.025-.676a9.464 9.464 0 01-.117-1.755c.01-.673-.055-1.222-.194-1.645-.127-.361-.16-.82-.098-1.374.063-.555.098-.993.105-1.314.019-.26.029-.565.03-.917a7.266 7.266 0 00-.127-1.273l-.066-.372c-.117-.3-.173-.801-.17-1.506l-1.853-1.784-.477.564-2.485-1.001c-.87.153-1.435.22-1.695.203-.274-.464-.734-.799-1.38-1.005-.645-.206-1.165-.338-1.56-.396-.475.212-.737.546-.785 1.002a3.195 3.195 0 01-.362 1.215l1.064.58c.021.125.033.282.035.474.002.192.045.344.129.457.168.226.285.526.35.898.066.372.013.797-.16 1.275l1.032.394-.571.58c.117.3.23.584.342.852.112.268.22.521.326.758-.391.325-.535.782-.431 1.372.104.59.127 1.08.068 1.475l.812.24-.51.379.284.525c.095.175.165.387.208.635l-.027.389c-.052.073-.039.326.038.76l.175 1.004c.111.663.158 1.11.142 1.34l.415 2.901c.135.04.265.05.39.028.062-.011.13.009.203.06-.205.292-.45.719-.736 1.281.084.113.192.27.323.47.132.201.208.364.23.488l.432 2.994c-.102.146.024.316.378.51l-.11 1.554c-.048.456.06.885.323 1.287.212.474.323.742.334.804.022.124.007.223-.044.296-.048.456.06.885.323 1.286.084.114.17.418.258.915.032.186.052.39.06.613.007.222.063.452.17.69.149.485.342 1.123.577 1.913.236.79.371 1.47.408 2.039-.03.197.021.396.153.597.132.2.208.363.23.487l.318.712c.117.299.232.678.345 1.138.113.46.281.958.504 1.495l.4 1.177c.168.226.329.501.482.826.154.325.35.626.592.903.168.226.412.52.732.879.32.36.544.72.671 1.08.14.424.42.838.845 1.243.424.405.714.69.872.854a.322.322 0 00.25.052l.089-.005c.058.004.11.023.16.057.054.31.118.491.191.542l1.443 1.09c.084.112.238.261.463.445.225.184.354.37.386.556.033.186.024.315-.027.388.033.187.148.294.345.323.198.03.333.07.406.12l1.316.92c.147.102.381.253.705.452.324.199.615.307.875.325.26.018.486.122.68.312.194.19.364.336.51.438.406.12.64.175.702.164.538-.223 1.042-.088 1.514.405a.643.643 0 00.499.104c.724-.256 1.544-.336 2.458-.242.062-.01.088-.047.077-.11.248-.043.588-.119 1.017-.227.43-.107.95-.247 1.561-.419-.179-.288-.155-.516.072-.684.227-.168.371-.258.434-.269l.62-.3 1.15-1.115c.601-.586 1.034-1.222 1.298-1.908l.23-.329c.25-.044.336-.187.261-.43-.075-.242-.05-.375.075-.397.175-.095.376-.226.603-.394.227-.168.485-.341.774-.52l-.22-.154c.041-.135.076-.3.105-.498.03-.197.116-.436.258-.717.019-.26.105-.498.259-.717.172-.478.3-.933.384-1.363.085-.431.213-.886.385-1.364.242-.81.516-1.434.824-1.872.256-.365.382-.74.379-1.123l-.05-.279.352-.733-.033-.187c.183-.416.387-.9.61-1.45.315-.76.56-1.459.736-2.097.176-.64.365-1.296.566-1.971l.512-2.01c.106-.85.383-1.827.83-2.929.091-.208.138-.488.14-.84.002-.352.012-.658.03-.917l.45-.176c-.277-.846-.22-1.432.171-1.757.052-.073.053-.249.003-.528-.049-.28.014-.466.19-.561-.029-.891.15-1.69.539-2.398l-.11-.077c.018-.26.028-.66.028-1.204 0-.544.056-1.05.165-1.517l.276-2.256-.048-1.91c.124-1.11.176-1.727.154-1.85l-.159-.356c-.084-.114-.159-.356-.224-.729a8.062 8.062 0 01-.098-1.374c0-.543-.064-.996-.192-1.357a1.78 1.78 0 01-.005-.575 1.78 1.78 0 00-.005-.575l-1.21-3.049-.316-.424c-.126-.17-.2-.317-.222-.44a1.756 1.756 0 00-.57-1.052 10.114 10.114 0 00-.565-.476 32.44 32.44 0 00-1.519-.98c-.647-.397-1.45-.768-2.408-1.11l-1.03-.394-.385.547c-.146-.102-.373-.206-.68-.312-.307-.105-.514-.277-.62-.514-.779-.055-1.371-.142-1.777-.262-.406-.12-.803-.37-1.19-.75-.311.055-.682-.232-1.113-.86l-.385.548c-.051.073-.232.137-.543.192l-.006 1.056c.398.442.738.734 1.02.876.282.142.547.192.795.148.147.102.32.263.519.484.199.22.403.377.611.468.208.091.51.342.902.753.393.41.787.645 1.182.703l.016.093c.022.124.064.18.126.17.46.43.779 1.142.954 2.134l.115.652c.087.496.272.816.553.958l.047.112c.049.16.043.361-.017.602-.075.301-.102.514-.08.638l.252.34c-.226.167-.317.471-.272.911.046.44.017.733-.085.879-.051.073-.045.2.019.38s.107.333.129.457c-.008.321.076.978.25 1.971l.187-.033.434-.268.301.618c.044.249.103.398.176.45l-.812-.241c-.49-.234-.686-.071-.587.487-.008.321-.005.609.007.862.013.254.03.443.052.567l.187-.033zm8.743-24.668l.79-.427c.241.278.184.496-.173.654-.357.16-.519.332-.486.518l-.131-.745zm7.836-4.644c-.249.044-.41.04-.483-.01l-.049-.28c-.022-.124.06-.203.247-.235.062-.011.114-.084.154-.22a1.1 1.1 0 01.137-.312l1.234.455c-.175.095-.38.21-.612.347a1.933 1.933 0 01-.628.255zm-1.75.98c.336-.635.598-.969.785-1.002l.499.104c-.092.208-.272.368-.54.48a3.486 3.486 0 00-.744.418zm-1.641 1.057c.07-.332.236-.569.5-.711a5.17 5.17 0 00.565-.34l.219.153a3.474 3.474 0 00-.557.386 6.523 6.523 0 01-.727.512zm-1.196.307a2.198 2.198 0 00-.472-.492c.114-.084.326-.154.637-.208l-.165.7zm-.813 1.391c-.066-.372.057-.586.368-.64l.28-.05c-.059.394-.275.624-.648.69zm18.585 25.622a.395.395 0 00-.122.006c-.31.055-.565.067-.762.038l.537.865a3.248 3.248 0 01-.623.014c-.29-.013-.445.11-.463.37-.04.135-.156.299-.346.492-.19.194-.275.353-.253.477l.126.17-.785 1.001-.4.455.142.263-.68.504a.842.842 0 00-.357.158c-.114.084-.137.312-.072.685l-.513.09c-.28.05-.454.24-.524.572l-.23.329-4.09 4.08-.477.563a.936.936 0 00.02-.435c-.028-.155-.016-.269.035-.342.413-.2.65-.498.708-.892.059-.395.083-.623.072-.685l.307-.438c-.252-.34-.389-.57-.41-.695-.034-.186-.024-.316.027-.389.194-.354.209-.996.045-1.927l-.148-.837c-.003-.384.072-.685.225-.904l.094-.016c-.22-.153-.317-.344-.293-.572.023-.228.03-.373.019-.435.051-.073.062-.555.034-1.446l.62-.301-.46-.974-.374.065c.227-.168.39-.42.492-.758.1-.338.176-.543.228-.616l-.379-.509.222-4.741-.048-1.91c-.131-.745-.095-1.263.11-1.555.103-.146.06-.395-.13-.745-.235-.598-.247-1.396-.038-2.392-.011-.062.02-.164.09-.304.072-.14.071-.237-.002-.288-.084-.113-.159-.355-.225-.728-.098-.558-.061-1.076.111-1.554.256-.366.156-.572-.301-.62l.106-3.76-.79-1.204-1.162-1.139 1.207-.788c.578-.358 1.43-.796 2.557-1.315l1.902-.671c.543-.192.97-.315 1.28-.37l1.57-.372c.186-.033.602-.043 1.245-.028.073.05.249-.044.527-.285.303.266.71.387 1.218.361.508-.026.892-.03 1.152-.011 1.975.291 3.666.793 5.073 1.504.637.336 1.04.808 1.212 1.418.234.598.367.99.4 1.177.098.558.152 1.044.161 1.459.009.414.01.782.002 1.103.015.445-.069.972-.25 1.58l-.393 1.316c-.121.405-.204.756-.248 1.051a5.145 5.145 0 01-.126.646c-.114 1.172-.41 2.216-.89 3.132l-.259.717-.28.05-.746 1.762-.182.608-.406-.12-.78 1.577a.659.659 0 00.62-.302c.022.125.065.277.13.458.063.18.154.42.27.72-.72.638-1.158 1.067-1.311 1.286a4.107 4.107 0 01-.363.4c-.19.193-.258.445-.203.756.077.434-.16.731-.708.892l-.472-.493-.4.455c-.513.73-.932 1.444-1.258 2.14a4.46 4.46 0 00-.222.376c-.097.177-.135.327-.113.452l.212.285-.04-.012zm11.79-25.7l-.707-.74c-.223.552.013.798.708.74zm-8.694 19.957c.114-.084.32-.185.62-.302.3-.116.448-.366.445-.75-.457-.047-.742-.029-.856.055-.113.084-.183.416-.209.997zm.058 4.691c-.23-.215-.284-.43-.161-.643.122-.213.178-.351.167-.413l.45-.175c.066.372.081.64.046.807-.035.166-.202.308-.502.424zm2.255-.301c-.157-.164-.175-.353-.052-.567.123-.213.21-.357.26-.43.012.062.07.212.176.45.106.236-.022.419-.384.547zm-12.95 16.005c-.947-.28-1.561-.492-1.842-.635l1.525-1.708c1.062-.89 1.771-1.592 2.13-2.103.04-.135.174-.286.4-.454.228-.168.367-.289.418-.362.12-.405.374-.785.76-1.141s.656-.644.81-.863c.307-.438.572-.756.793-.955.221-.2.352-.366.393-.501.05-.073.05-.265-.006-.575.052-.073.17-.126.357-.159.187-.033.263-.142.23-.328l-.016-.094.632-.783-.033-.186c.01.062.047.088.11.077l.91-.832-.185-1.599.69.646c.33-.314.504-.6.522-.86.143-.28.359-.51.648-.69l.12-.405.583-1.062.63.848c.052-.073-.214.422-.796 1.484l-.181.608c-.684.12-1.114.228-1.29.323-.131.343-.093.56.115.652.209.09.423.213.642.366-.497.088-.828.306-.99.655-.163.348-.265.59-.305.725l-.593-.087.213 1.21-.526.284.159.356c-.655-.076-1.026.181-1.114.772-.03.197-.137.408-.322.633a9.602 9.602 0 00-.354.446l-.093.016.11.077c.048-.008-.066.05-.343.177l-.277.124c-.476.212-.774.52-.895.926l1.026-.181-1.263 1.566-.296-.044c-.19.737-.529 1.181-1.015 1.33-.476.213-.67.567-.583 1.063l-.597-.662c-.051.073-.021.243.09.512.111.268.017.46-.283.577.044.248-.071.413-.346.493-.274.08-.431.188-.472.323zm8.733-8.833c.051-.073.089-.223.113-.451.024-.228.129-.359.315-.392l.39.028c-.165.157-.317.295-.456.416-.139.12-.26.253-.362.4zm-.67 1.654c-.392.325-.75.292-1.075-.098l1.07-.477c-.051.073-.05.265.005.575zm-2.152 3.066c-.347-.514-.325-.934.066-1.259.052-.073.194-.082.428-.027.234.054.419.102.554.142l-1.048 1.144zm-3.994.8c.479.172.664-.053.554-.673l-.554.673zm-8.307 2.52l-.094.017-.196-1.117.888.132.143.262-.746.132.005.575zm6.495.295l.713-.318-.954-.503-.17.126.41.695zm-6.68 8.47c-.271-.08-.449-.176-.533-.29-.084-.113-.06-.34.072-.684l.46.975zm-1.756.406l-.89-.131.522-.86.368.991zm28.92 2.577c.238-.106.205-.292-.099-.558-.343-.131-.64-.175-.888-.131-.249.044-.501.248-.758.613l1.745.076zm-15.545-14.531c-.059.394-.204.66-.437.797a2.418 2.418 0 01-.815.287c.04-.135.094-.288.16-.46.066-.171.119-.325.16-.46l.932-.164zM163 41.977l-.18.165c-.345.32-.582.573-.714.76l-.107.152-.034.05-.013.017c-.062.011-.163.077-.302.198-.139.12-.313.135-.52.043.164-.156.359-.415.584-.774.225-.36.462-.562.71-.605.311-.055.503-.057.576-.006zM143.778 9.862l-.113.09a2.632 2.632 0 00-.22.208c-.107.115-.198.147-.27.096a1.94 1.94 0 00-.623.014c-.218.039-.404.167-.557.386-.103.146-.27.288-.503.425a6.354 6.354 0 00-.518.331l-.895.925.285.526c-.446.015-.912.193-1.396.534-.485.341-.788.715-.909 1.12l.11.076-.15.029c-.28.057-.443.117-.487.18-.11.467-.373.881-.79 1.243-.417.36-.734.657-.95.887-.073-.051-.234-.055-.482-.011-.089.591-.416 1.097-.983 1.516-.051.073-.244.251-.58.534-.334.283-.463.642-.387 1.076l.033.186-.263.143-1.004.849a54.208 54.208 0 01-.61 1.45c-.183.417-.346.765-.489 1.046l-.373.066a.643.643 0 00.027.427c.059.15.068.292.027.427l-.796 1.484c.234.598.356.929.367.99.077.435.168.77.274 1.008.095.175.2.412.318.712.117.299.245.66.383 1.083.066.373.254.531.565.477.373-.066.764.153 1.174.656.398.442.884.836 1.458 1.182.293.205.657.269 1.092.192.622-.11.966-.522 1.032-1.238l1.207-.788a1.55 1.55 0 00-.112-.364.532.532 0 01-.019-.38c.07-.333.317-.84.741-1.523.425-.683.667-1.221.725-1.615-.01-.062.038-.15.146-.266.108-.115.187-.209.239-.282.237-.106.715-.67 1.432-1.692.253-.748.859-1.494 1.817-2.24l-.066 1.26.043 1.336c.033.186.058.421.076.706.019.285-.024.5-.126.646-.154.219-.15.426.013.621.163.196.224.36.184.496a.532.532 0 00.019.38c.053.119.06.246.019.38-.224.552-.231 1.417-.023 2.596l.273 1.007c.055.31.011.606-.132.887a.32.32 0 00-.052.249c.016.093.056.134.118.123.208.091.313.233.315.424.002.192.008.319.02.38-.144.282-.192.642-.147 1.082.046.44.06.79.04 1.048.045.249.08.626.104 1.134.026.507.035.921.027 1.242l-.12.406a1.05 1.05 0 00-.012.481l.04.074.071.132.174.32c-.051.073-.17.222-.354.446-.185.225-.255.46-.212.71.033.185.086.304.16.355l.093-.017-.005.007-.072.103c.354 1.28.275 2.286-.238 3.017-.05.073.013.253.192.541.314.329.301.619-.039.87.022.125.061.438.118.94.056.502-.07.972-.377 1.41l.05.279c.163.93.236 1.525.218 1.784.044.249.034.378-.028.39-.175.094-.26.253-.252.476.007.222.016.364.027.427.022.124.013.349-.025.676-.039.326-.036.614.008.862.065.372.135.584.208.635.033.186-.044.296-.23.328-.217.23-.272.464-.166.701.084.113.119.22.104.318a.776.776 0 00-.005.24l-.023.964-.34.252c-.033.902-.055 1.689-.064 2.362-.01.674-.007 1.233.007 1.678.014.446-.047 1.096-.185 1.952-.137.856-.199 1.507-.184 1.952l.778.054c.14.424.215.762.228 1.016.012.253-.12.5-.398.742l-.318-.712c-.3 1.205-.444 2.03-.43 2.475l1.032.394-.68.503c-.133.344-.052.617.24.822.428.244.647.397.658.46l-.181.607-.093.017-.582-.57-.05 2.984.466-.082a4.62 4.62 0 01-.198.514c-.092.208-.126.375-.104.499.065.372.25.691.553.958-.475.211-.556.481-.242.81l-.088.591c.157.164.33.502.515 1.013.187.51.452.832.795.963.063-.01.086.033.072.131-.015.099.014.174.087.225l.252.34c.084.112.205.251.362.415.22.154.34.292.362.416.307.65.965 1.11 1.974 1.38.147.102.25.147.313.136l-.12.405c-.041.135-.076.301-.105.499l1.728-.017.027-.389c.198.03.332-.027.404-.167.071-.14.132-.247.184-.32.04-.135.136-.408.288-.819.152-.41.195-.802.13-1.174-.044-.248-.103-.398-.176-.45l-.016-.092-.093.016c.007-.32-.021-.844-.085-1.568-.063-.725-.06-1.253.01-1.585.182-.416-.002-.735-.554-.958-.073-.051-.12-.139-.143-.263l.62-.301-.712-1.314.247-.235.406.12-.033-.186-.296-.044c-.19-.35-.29-.556-.302-.618l.527-.285-.378-.51.4-.454-.24-.82c-.022-.125-.002-.192.06-.203.154-.22.211-.437.173-.655l-.074-.418c.03-.197.045-.472.047-.824.002-.352-.01-.782-.035-1.29l.331-3.033-.104-1.133-.093.017c-.124.022-.192.002-.203-.06-.062.01-.24-.086-.532-.29.457.047.682-.04.675-.263-.007-.223.01-.402.05-.537.102-.146.142-.377.118-.693a3.595 3.595 0 01.009-.769l.466-.082.082.465 1.327.438 1.032.394c.343.131.661.3.954.503.146.103.446.258.9.466.453.207 1.153.452 2.1.733l1.42.42 2.132.633c.608.18 1.141.294 1.599.341.416.183.825.319 1.225.408.4.09.768.169 1.1.238.52.036.841.043.966.022.322.007.74.013 1.253.018.514.006.927-.019 1.237-.074.063-.01.297.044.703.164.438.307.782.438 1.03.394.187-.033.418-.361.692-.985.136.04.421.021.856-.055.125-.022.448-.095.971-.22.523-.124.999-.064 1.427.18.084.114.27.081.56-.098.175-.095.426-.123.754-.085.327.038.615.036.864-.008.062-.011.268-.112.62-.302l.466-.082c.366.256.704.356 1.015.301.062-.01.33-.122.806-.334a.842.842 0 00.357-.159l.115-.074a.796.796 0 01.242-.085c.135.04.42.022.856-.055.31-.055.725-.16 1.242-.315.518-.155.969-.235 1.353-.238l-.767-2.168 1.487-.838-.4-1.177-.735-.35 1.175-.975a5.17 5.17 0 01.565-.34c.263-.142.368-.368.313-.678l-.033-.187c-.497.088-.845.117-1.042.088l.147.838-.86-.52-3.15 1.227c-.176.095-.668.214-1.476.356l-2.288.116c-.062.01-.269.111-.62.301.128.361.347.515.658.46l2.239-.395c.373-.066.857-.135 1.454-.208.596-.073 1.064-.236 1.404-.488.351-.19.554-.13.609.18.073.052.08.274.022.668l1.267.64c-.465.275-.729.417-.79.428-.187.033-.483-.01-.89-.131-.54-.16-.914-.095-1.119.197-.05.073-.243.075-.576.006l.462-.657c-.582-.026-1.052.217-1.41.728-.304-.266-.603-.326-.898-.178-.294.148-.535.239-.721.272l-.131-.745a1.83 1.83 0 01-.884.444c-.373.065-.861.024-1.464-.126a.535.535 0 00-.382.02 1.56 1.56 0 01-.365.112l-1.947-.137c.216-.23.448-.367.697-.41.124-.022.285-.019.483.01.197.03.358.033.482.011l.886-.156c.342-.06.59-.2.744-.419l-.22-.153-2.94.23-.373.066c-.812-.24-1.59-.295-2.337-.164a6.33 6.33 0 00-.598.154c-.274.08-.593.184-.955.312a4.982 4.982 0 00-1.343-.53c-.136-.04-.32-.088-.554-.143-.234-.054-.414-.07-.538-.049-.249.044-.399.102-.45.175a1.487 1.487 0 00-.472-.492c-.486.15-1.036.119-1.65-.093-.418-.182-.938-.314-1.561-.396-.624-.082-1.07-.164-1.341-.244a15.05 15.05 0 01-1.1-.238 2.243 2.243 0 01-1.308-.873c.987.146 1.467-.226 1.438-1.117-.011-.062.068-.156.238-.282l.426-.315c.63-.43 1.01-.817 1.141-1.16l.538-.767c.238-.106.34-.252.308-.438-.004-.383.253-.748.769-1.095l.367-.64.494-.472c.956-1.128 1.407-1.655 1.356-1.582l1.307-1.862c.091-.208.355-.622.79-1.243.436-.62.599-1.24.49-1.861.27.08.509.07.716-.03.206-.101.319-.28.337-.54.059-.394.198-.786.418-1.177.22-.39.38-.659.483-.805.04-.135.124-.294.253-.476.128-.183.18-.336.159-.46l-.017-.093.769-1.095c.256-.365.498-.904.725-1.615.227-.712.476-1.572.747-2.58.052-.072.118-.244.198-.514.08-.27.178-.447.291-.531.586-.679.818-1.36.698-2.042l.12-.405c.092-.208.214-.518.366-.928.152-.411.41-.68.771-.808l-.669.022.335-.827.077-.11-.126-.169.242-.81.73-.225c-.066-.372.002-.896.203-1.571.202-.675.239-1.194.11-1.555-.032-.186-.01-.43.064-.73.075-.302.128-.551.157-.748.044-.84-.005-1.663-.147-2.47-.131-.744-.244-1.203-.34-1.379-.076-.434-.218-.697-.427-.788-.292-.204-.46-.43-.504-.679-.033-.186.048-.456.242-.81-.344-.131-.579-.282-.705-.451-.126-.17-.259-.467-.397-.89l-1.141-.47c.022.124.122.33.301.618.18.288.285.526.318.712.044.248-.042.487-.258.717-.044-.248-.102-.398-.175-.449a6.424 6.424 0 01-1.168-1.713c-.61-.916-1.182-1.615-1.716-2.097-.073-.05-.132-.2-.175-.448.248-.044.398-.103.45-.176l-.33-.23c-.292-.204-.803-.466-1.532-.785-.73-.319-1.257-.674-1.583-1.064.011.062-.093.016-.312-.137a9.986 9.986 0 00-1.04-.44 8.567 8.567 0 01-1.368-.67c-.512-.358-1.119-.62-1.82-.783a22.517 22.517 0 00-1.35-.29c-.136-.04-.247-.037-.335.01-.088.048-.2.052-.335.012-.376-.317-.666-.506-.869-.566-.203-.06-.49-.058-.864.008l-.093.016c-.26-.018-.55-.03-.872-.038-.322-.007-.7.028-1.136.105-.31.054-.642.177-.993.367l-.187.032c-.343-.13-.608-.18-.795-.147-.435.077-.849.277-1.24.602l-1.437-.514-1.114.772c-.146-.102-.25-.147-.313-.137-.365-.255-.592-.359-.68-.311-.088.047-.156.299-.203.755l-.324.345-.784-.63c-.619.494-1.145.778-1.58.855l-.483-.01-.34.251.065.372-.483-.01c-.124.022-.212.069-.263.142l-.445.75.653-.115z" fill="#B48361" fill-rule="nonzero"/><use fill="#B48361" xlink:href="#a" transform="rotate(-4 1621.04 55.182)"/></g></svg>