<?xml version="1.0" encoding="UTF-8"?>
<svg width="40px" height="27px" viewBox="0 0 40 27" version="1.1" xmlns="http://www.w3.org/2000/svg" xmlns:xlink="http://www.w3.org/1999/xlink">
    <title>3</title>
    <g id="Symbols" stroke="none" stroke-width="1" fill="none" fill-rule="evenodd">
        <g id="Glyphs/White/saw/4" transform="translate(0.000000, -6.000000)" fill="#008783" fill-rule="nonzero">
            <g id="3" transform="translate(0.000000, 6.000000)">
                <path d="M37.278138,0 L11.9645087,11.2489607 L11.9551337,11.1735104 C11.9213839,10.9184758 11.7726346,10.6996074 11.5476357,10.5742725 C11.3226368,10.4483141 11.057638,10.4364665 10.8226392,10.541224 L0.971436132,14.9185912 C0.572688034,15.0956813 0.266439495,15.41806 0.109565243,15.8246189 C-0.0473090091,16.2311778 -0.0354340657,16.6751501 0.143315082,17.0754734 C0.510188332,17.8979446 1.48018371,18.2683372 2.30267978,17.9023095 L3.1595507,17.5213164 L3.88392224,23.4282679 L2.87767704,23.875358 C2.47892894,24.052448 2.1726804,24.3748268 2.01580615,24.7813857 C1.8589319,25.1879446 1.87080684,25.6319169 2.04955599,26.0322402 C2.3208047,26.6389607 2.91955184,27 3.54642385,27 C3.76829779,27 3.99392172,26.9544804 4.20954569,26.8590762 L12.8707544,23.0098614 C13.1957528,22.8651963 13.3907519,22.5178753 13.3445021,22.16806 L13.2857524,21.7047575 L16.4188625,20.3796998 L17.0951092,18.4722402 L19.2532239,19.0721016 L19.9982204,16.9669746 L22.1550851,17.566836 L22.9013315,15.4610855 L25.0594463,16.0609469 L25.8056927,13.9545727 L27.9631824,14.5544342 L28.7113038,12.4474365 L30.8694185,13.0466744 L31.61754,10.9396767 L33.7756547,11.5395381 L34.5237761,9.43254042 L36.6831408,10.0317783 L37.4331372,7.92353349 L39.6850015,8.54771363 L40,6.09775982 L37.278138,0 Z M3.86204735,26.0790069 C3.46892422,26.2536028 3.00705142,26.0765127 2.83142726,25.6824249 C2.74642767,25.4922402 2.74080269,25.2808545 2.81580234,25.0869284 C2.89080198,24.8930023 3.03642628,24.7396074 3.22642538,24.6548037 L4.81079282,23.9508083 L3.86892231,16.271709 L1.95518144,17.1222402 C1.56143332,17.2962125 1.10018552,17.119746 0.924561356,16.7262818 C0.749562191,16.3346882 0.926436347,15.8732564 1.31955947,15.6992841 L11.1120128,11.3275289 L12.4920062,22.2447575 L3.86204735,26.0790069 Z M38.96188,7.4608545 L36.8931398,6.887806 L36.1431434,8.99542725 L33.9837787,8.39618938 L33.2356573,10.5025635 L31.0775426,9.90270208 L30.3294211,12.0096998 L28.1713064,11.4104619 L27.423185,13.5174596 L25.2650703,12.9175982 L24.5188238,15.0239723 L22.3607091,14.4241109 L21.6144627,16.5298614 L19.456973,15.93 L18.7119765,18.0357506 L16.5544868,17.4358891 L15.7369907,19.7405543 L13.1732529,20.8242956 L12.0745082,12.1337875 L36.8425151,1.1273903 L39.1187542,6.22683603 L38.96188,7.4608545 Z M33.0494081,3.78249423 L33.2231573,4.17221709 L13.2201277,13.0616397 L13.0457535,12.6719169 L33.0494081,3.78249423 Z M35.1525231,2.84778291 L35.3262723,3.23750577 L33.8869042,3.87727483 L33.713155,3.48755196 L35.1525231,2.84778291 Z M9.53202031,13.9751501 C9.30702138,13.8491917 9.04264764,13.8367206 8.80639877,13.9421016 L5.55328928,15.3881293 C5.22766583,15.5321709 5.03266676,15.8794919 5.07891654,16.2274365 L5.8432879,22.547806 C5.87703774,22.8034642 6.02516203,23.021709 6.25016096,23.1476674 C6.37391037,23.2168822 6.50953472,23.2518014 6.64515907,23.2518014 C6.75703354,23.2518014 6.86890801,23.2281062 6.9757825,23.1813395 L10.228892,21.7359353 L10.228892,21.7359353 C10.5538904,21.5912702 10.7488895,21.2439492 10.7026397,20.8966282 L9.93826837,14.5756351 C9.90514353,14.3199769 9.75701923,14.1011085 9.53202031,13.9751501 Z M6.68703387,22.3950346 L5.93203747,16.1538568 L9.09577239,14.7284065 L9.85076879,20.9695843 L6.68703387,22.3950346 Z" id="Shape"></path>
            </g>
        </g>
    </g>
</svg>
