<svg height="39.219" viewBox="0 0 40.317 39.219" width="40.317" xmlns="http://www.w3.org/2000/svg" xmlns:xlink="http://www.w3.org/1999/xlink"><clipPath id="a"><path d="m0 0h40.317v39.219h-40.317z"/></clipPath><g fill="#479390"><path d="m1.381 2.3 18.133-.144 7.808 7.774v27.136h-25.941zm-1.381-1.374v37.521h28.7v-29.091l-8.619-8.589z" transform="translate(0 -.414)"/><g clip-path="url(#a)"><path d="m50.366 10.679h-7.142a.575.575 0 0 1 -.575-.568l-.084-7.164a.575.575 0 0 1 .98-.415l7.226 7.163a.575.575 0 0 1 -.405.984m-6.573-1.151h5.176l-5.237-5.192z" transform="translate(-22.972 -1.276)"/><path d="m0 0h7.518v1.381h-7.518z" transform="translate(6.469 7.893)"/><path d="m0 0h15.764v1.381h-15.764z" transform="translate(6.469 13.471)"/><path d="m0 0h15.764v1.381h-15.764z" transform="translate(6.469 17.958)"/><path d="m0 0h15.764v1.381h-15.764z" transform="translate(6.469 23.657)"/><path d="m0 0h15.764v1.381h-15.764z" transform="translate(6.469 29.114)"/><path d="m75.437 39.219-3.6-7.073v-32.146h7.25l-.046 32.147zm-2.221-7.405 2.221 4.362 2.222-4.362.041-30.433h-4.484z" transform="translate(-38.769)"/><path d="m0 0h2.498v1.381h-2.498z" transform="translate(31.125 3.303)"/><path d="m0 0h1.381v6.214h-1.381z" transform="translate(31.123 3.764)"/></g></g></svg>