<?xml version="1.0" encoding="UTF-8"?>
<svg width="32px" height="32px" viewBox="0 0 32 32" version="1.1" xmlns="http://www.w3.org/2000/svg" xmlns:xlink="http://www.w3.org/1999/xlink">
    <title>4</title>
    <g id="Symbols" stroke="none" stroke-width="1" fill="none" fill-rule="evenodd">
        <g id="Glyphs/White/saw/1" transform="translate(-4.000000, -4.000000)" fill="#008783" fill-rule="nonzero">
            <g id="4" transform="translate(4.000000, 4.000000)">
                <path d="M16.0005,27.2375 C9.8035,27.2375 4.762,22.1965 4.762,16 C4.762,9.8035 9.8035,4.7625 16.0005,4.7625 C22.1975,4.7625 27.238,9.8035 27.238,16 C27.238,22.1965 22.197,27.2375 16.0005,27.2375 Z M16.0005,5.799 C10.3755,5.799 5.799,10.375 5.799,16 C5.799,21.625 10.3755,26.201 16.0005,26.201 C21.6255,26.201 26.2015,21.625 26.2015,16 C26.2015,10.375 21.6255,5.799 16.0005,5.799 Z M24.664,14.7295 L24.151,14.8045 C24.2085,15.1975 24.2375,15.5995 24.2375,16 L24.756,16 C24.756,15.5745 24.725,15.147 24.664,14.7295 Z M24.447,13.6875 C23.4105,9.894 19.9375,7.244 16,7.244 L16,7.7625 C19.704,7.7625 22.972,10.255 23.9465,13.824 L24.447,13.6875 Z M16.0005,19.681 C13.9705,19.681 12.319,18.03 12.319,16 C12.319,13.97 13.9705,12.319 16.0005,12.319 C18.03,12.319 19.6815,13.97 19.6815,16 C19.6815,18.03 18.03,19.681 16.0005,19.681 Z M16.0005,13.3555 C14.542,13.3555 13.3555,14.542 13.3555,16 C13.3555,17.458 14.542,18.6445 16.0005,18.6445 C17.4585,18.6445 18.645,17.458 18.645,16 C18.645,14.542 17.4585,13.3555 16.0005,13.3555 Z M15.5875,32 L11.903,32 C11.67,32 11.4655,31.8445 11.4035,31.62 C11.342,31.3955 11.437,31.157 11.6365,31.037 C12.391,30.584 13.2,29.8865 13.3945,29.4655 C13.2595,29.4395 13.1245,29.4115 12.9905,29.3805 C12.5105,29.2735 12.0015,29.124 11.439,28.924 L8.0175,29.7055 C7.8905,29.7335 7.756,29.7145 7.643,29.649 L4.4525,27.8065 C4.2505,27.69 4.152,27.453 4.21,27.2275 C4.268,27.002 4.47,26.843 4.703,26.839 C5.589,26.824 6.646,26.6215 7.018,26.352 C6.496,25.9 6.013,25.416 5.5775,24.908 L2.234,23.8775 C2.109,23.839 2.003,23.755 1.938,23.6415 L0.095,20.4515 C-0.0215,20.25 0.011,19.995 0.1745,19.829 C0.338,19.6635 0.5915,19.626 0.7955,19.739 C1.5655,20.166 2.57,20.515 3.0355,20.4755 C2.807,19.819 2.631,19.1545 2.509,18.4935 L0.138,15.94 C0.0495,15.844 0,15.718 0,15.5875 L0,11.903 C0,11.67 0.1555,11.466 0.38,11.4035 C0.603,11.342 0.843,11.4365 0.9625,11.636 C1.416,12.391 2.114,13.2 2.5345,13.3945 C2.6635,12.7205 2.843,12.0575 3.07,11.417 L2.2935,8.0175 C2.264,7.89 2.2845,7.7565 2.3495,7.643 L4.192,4.452 C4.3085,4.25 4.544,4.1515 4.7715,4.209 C4.9965,4.267 5.1555,4.469 5.1595,4.702 C5.1745,5.583 5.3745,6.634 5.642,7.011 C6.0805,6.5085 6.565,6.0295 7.0895,5.5815 L8.1215,2.233 C8.1605,2.108 8.2445,2.002 8.358,1.9365 L11.5485,0.094 C11.7515,-0.022 12.005,0.0105 12.171,0.1735 C12.337,0.3365 12.3735,0.591 12.2605,0.7945 C11.8325,1.567 11.48,2.579 11.5245,3.0385 C11.9555,2.886 12.346,2.7685 12.7295,2.6755 C12.9835,2.6125 13.2415,2.5595 13.5025,2.512 L16.06,0.138 C16.156,0.0495 16.282,0 16.4125,0 L20.097,0 C20.33,0 20.5345,0.1555 20.5965,0.38 C20.658,0.6045 20.563,0.843 20.3635,0.963 C19.6095,1.4155 18.802,2.112 18.606,2.533 C19.284,2.663 19.9495,2.8425 20.5895,3.0695 L23.982,2.294 C24.1085,2.2645 24.243,2.2845 24.3565,2.3505 L27.547,4.193 C27.749,4.3095 27.8475,4.5465 27.7895,4.772 C27.7315,4.9975 27.5295,5.1565 27.2965,5.1605 C26.4175,5.1755 25.3695,5.375 24.99,5.6415 C25.5055,6.0895 25.989,6.5765 26.432,7.095 L29.766,8.1225 C29.891,8.161 29.997,8.2455 30.062,8.3585 L31.904,11.5495 C32.0205,11.751 31.988,12.006 31.8245,12.172 C31.6615,12.338 31.4085,12.3755 31.2035,12.262 C30.436,11.8365 29.437,11.4815 28.97,11.525 C29.1905,12.1665 29.365,12.8305 29.489,13.5065 L31.8605,16.0615 C31.9505,16.156 32,16.282 32,16.4125 L32,20.097 C32,20.33 31.8445,20.534 31.62,20.5965 C31.398,20.659 31.1575,20.5635 31.0375,20.3635 C30.583,19.6065 29.8825,18.7955 29.4625,18.604 C29.3315,19.29 29.1535,19.9535 28.93,20.5835 L29.7065,23.9825 C29.736,24.11 29.7155,24.2435 29.6505,24.357 L27.808,27.548 C27.6915,27.7495 27.458,27.849 27.229,27.7905 C27.004,27.7325 26.845,27.5305 26.841,27.2975 C26.826,26.413 26.6245,25.3585 26.3555,24.9845 C25.899,25.5125 25.4135,25.9975 24.907,26.431 L23.8795,29.7665 C23.8405,29.8915 23.7565,29.9975 23.643,30.063 L20.452,31.9055 C20.25,32.022 19.9965,31.9895 19.8295,31.826 C19.6635,31.663 19.627,31.4085 19.74,31.205 C20.1675,30.4335 20.52,29.422 20.476,28.9625 C19.821,29.1895 19.158,29.3655 18.4985,29.4875 L15.9405,31.8625 C15.844,31.9505 15.718,32 15.5875,32 Z M13.4805,30.9635 L15.3835,30.9635 L17.904,28.6235 C17.978,28.555 18.07,28.5095 18.1685,28.4925 C18.951,28.358 19.7415,28.139 20.518,27.843 C20.7065,27.7715 20.9185,27.815 21.0635,27.9555 C21.1355,28.025 21.1995,28.095 21.25,28.162 C21.635,28.684 21.5305,29.4905 21.2995,30.2185 L22.948,29.2665 L23.9605,25.9805 C23.9905,25.885 24.047,25.7995 24.1235,25.7355 C24.728,25.231 25.3025,24.646 25.8315,23.996 C25.9585,23.84 26.1665,23.7735 26.359,23.8205 C26.457,23.845 26.5475,23.873 26.6255,23.9065 C27.221,24.1665 27.5345,24.9175 27.6985,25.6635 L28.65,24.0155 L27.885,20.6665 C27.8625,20.5685 27.869,20.4665 27.9035,20.372 C28.1765,19.631 28.3815,18.836 28.5135,18.009 C28.5455,17.81 28.689,17.6475 28.883,17.5925 C28.979,17.565 29.072,17.544 29.155,17.534 C29.793,17.4625 30.4475,17.955 30.963,18.519 L30.963,16.6155 L28.626,14.098 C28.557,14.0245 28.512,13.9325 28.495,13.8335 C28.3555,13.022 28.138,12.228 27.8495,11.4735 C27.7775,11.285 27.8215,11.0715 27.9625,10.927 C28.0295,10.8585 28.0955,10.7985 28.16,10.7505 C28.683,10.364 29.4895,10.469 30.218,10.7 L29.2665,9.052 L25.982,8.0395 C25.8865,8.01 25.8015,7.9535 25.737,7.8765 C25.215,7.252 24.63,6.6745 23.998,6.16 C23.8415,6.033 23.7735,5.827 23.8225,5.632 C23.8465,5.5365 23.874,5.4485 23.907,5.372 C24.166,4.7775 24.9165,4.465 25.663,4.301 L24.015,3.3495 L20.6725,4.113 C20.575,4.1355 20.472,4.1285 20.3785,4.094 C19.6215,3.816 18.824,3.609 18.0105,3.48 C17.81,3.448 17.6465,3.3025 17.5925,3.1075 C17.567,3.0175 17.5465,2.9295 17.536,2.8565 C17.462,2.2035 17.9565,1.553 18.5215,1.036 L16.6165,1.036 L14.0965,3.3755 C14.0225,3.4435 13.931,3.489 13.8325,3.5065 C13.5445,3.5565 13.2585,3.6135 12.9765,3.6825 C12.517,3.7945 12.0435,3.9455 11.4855,4.158 C11.3,4.229 11.088,4.1865 10.943,4.048 C10.8705,3.979 10.8055,3.9085 10.7565,3.8465 C10.3675,3.3195 10.471,2.51 10.7015,1.7805 L9.0525,2.733 L8.0355,6.0315 C8.0055,6.127 7.9495,6.212 7.8725,6.2765 C7.237,6.808 6.6625,7.388 6.164,8 C6.037,8.156 5.8325,8.225 5.6335,8.175 C5.542,8.1515 5.455,8.125 5.3845,8.0975 C4.7825,7.835 4.4675,7.082 4.302,6.335 L3.35,7.9845 L4.115,11.334 C4.1375,11.4315 4.131,11.534 4.0965,11.628 C3.818,12.3865 3.6115,13.181 3.483,13.9895 C3.4515,14.1885 3.307,14.3515 3.1125,14.4065 C3.021,14.4325 2.9315,14.4535 2.856,14.4645 C2.205,14.534 1.554,14.0435 1.0375,13.479 L1.0375,15.384 L3.374,17.9005 C3.4425,17.974 3.488,18.066 3.5045,18.165 C3.639,18.949 3.8585,19.7405 4.1555,20.518 C4.2275,20.707 4.1835,20.92 4.042,21.065 C3.976,21.1325 3.909,21.1955 3.85,21.2415 C3.3225,21.6315 2.512,21.5285 1.782,21.2985 L2.7345,22.948 L6.0285,23.9635 C6.124,23.993 6.209,24.0495 6.273,24.126 C6.781,24.733 7.3635,25.3055 8.0045,25.8275 C8.1595,25.954 8.228,26.1585 8.1805,26.3525 C8.156,26.451 8.128,26.543 8.098,26.617 C7.836,27.218 7.083,27.5335 6.3365,27.6985 L7.9855,28.6505 L11.357,27.8805 C11.4535,27.8585 11.5565,27.865 11.65,27.899 C12.227,28.1095 12.74,28.2635 13.2195,28.3705 C13.4765,28.4295 13.7345,28.4775 13.9945,28.52 C14.1925,28.552 14.354,28.6955 14.4095,28.888 C14.437,28.9835 14.4565,29.074 14.4665,29.156 C14.5385,29.802 14.0445,30.4485 13.4805,30.9635 Z" id="Shape"></path>
            </g>
        </g>
    </g>
</svg>
