<?xml version="1.0" encoding="UTF-8"?>
<svg width="40px" height="24px" viewBox="0 0 40 24" version="1.1" xmlns="http://www.w3.org/2000/svg" xmlns:xlink="http://www.w3.org/1999/xlink">
    <title>2</title>
    <g id="Symbols" stroke="none" stroke-width="1" fill="none" fill-rule="evenodd">
        <g id="Glyphs/White/tape-measure" transform="translate(0.000000, -8.000000)" fill="#FFFFFF" fill-rule="nonzero">
            <g id="2" transform="translate(0.000000, 8.000000)">
                <path d="M19.391875,11.3975443 C19.4225,11.6985604 19.43875,12.0052323 19.43875,12.3112758 L18.87875,12.3112758 C18.87875,12.0253419 18.86375,11.7375228 18.835,11.4559879 L19.391875,11.3975443 Z M10.7575,3.58243815 L10.7575,4.14550787 C14.59,4.14550787 17.934375,6.87978955 18.709375,10.6472036 L19.258125,10.5328301 C18.429375,6.50587606 14.854375,3.58243815 10.7575,3.58243815 Z M16.816875,13.0817261 C16.816875,16.4406632 14.09875,19.1736881 10.7575,19.1736881 C7.41625,19.1736881 4.698125,16.4406632 4.698125,13.0817261 C4.698125,9.72278893 7.41625,6.98913568 10.7575,6.98913568 C14.09875,6.98913568 16.816875,9.7221605 16.816875,13.0817261 Z M15.696875,13.0817261 C15.696875,10.3436738 13.48125,8.11590356 10.758125,8.11590356 C8.035,8.11590356 5.81875,10.3430454 5.81875,13.0817261 C5.81875,15.8197783 8.034375,18.0475486 10.7575,18.0475486 C13.480625,18.0475486 15.696875,15.8197783 15.696875,13.0817261 Z M40,17.1752933 L40,19.0662272 L40,19.6292969 L40,24 L21.515625,24 L20.395625,24 L2.24,24 C1.005,23.9993716 0,22.9888625 0,21.7470927 L0,12.4168513 C0,6.45183142 4.825625,1.59975401 10.7575,1.59975401 C11.945,1.59975401 13.084375,1.80210719 14.153125,2.16031003 L15.570625,0.686650979 C16.001875,0.237954791 16.600625,-0.011530345 17.22625,0.000409749618 C17.846875,0.0129782703 18.439375,0.287600447 18.8525,0.753264139 L23.3225,5.79198408 C24.1375,6.71074294 24.063125,8.13161421 23.156875,8.95862287 L21.351875,10.6063559 C21.45125,11.1958196 21.515,11.7978517 21.515,12.4155945 L21.515,19.0649704 L38.879375,19.0649704 L38.879375,17.1740364 L40,17.1740364 L40,17.1752933 Z M15.27625,2.6134052 C18.05,3.91110496 20.185625,6.35631066 21.068125,9.34573331 L22.405,8.12532995 C22.858125,7.71182562 22.895625,7.00107577 22.488125,6.54169634 L18.018125,1.5029764 C17.808125,1.26668821 17.519375,1.13346189 17.205,1.1265492 C16.890625,1.1120954 16.59625,1.24155117 16.3775,1.46966982 L15.27625,2.6134052 Z M20.395625,19.0662272 L20.395625,12.4168513 C20.395625,7.07334477 16.071875,2.72652189 10.758125,2.72652189 C5.444375,2.72652189 1.120625,7.07397319 1.120625,12.4168513 L1.120625,21.7470927 C1.120625,22.3679776 1.623125,22.8732321 2.240625,22.8732321 L20.395625,22.8732321 L20.395625,19.0662272 L20.395625,19.0662272 Z M38.88,20.1923667 L21.515625,20.1923667 L21.515625,22.8732321 L24.3175,22.8732321 L24.3175,21.0740484 L24.8775,21.0740484 L24.8775,22.8732321 L27.1175,22.8732321 L27.1175,21.0740484 L27.6775,21.0740484 L27.6775,22.8732321 L29.9175,22.8732321 L29.9175,21.0740484 L30.4775,21.0740484 L30.4775,22.8732321 L32.7175,22.8732321 L32.7175,21.0740484 L33.2775,21.0740484 L33.2775,22.8732321 L35.5175,22.8732321 L35.5175,21.0740484 L36.0775,21.0740484 L36.0775,22.8732321 L38.879375,22.8732321 L38.879375,20.1923667 L38.88,20.1923667 Z" id="Shape"></path>
            </g>
        </g>
    </g>
</svg>