<?xml version="1.0" encoding="UTF-8"?>
<svg width="33px" height="33px" viewBox="0 0 33 33" version="1.1" xmlns="http://www.w3.org/2000/svg" xmlns:xlink="http://www.w3.org/1999/xlink">
    <title>Group</title>
    <defs>
        <polygon id="path-1" points="0.128776301 0.0661918605 32.8729595 0.0661918605 32.8729595 33 0.128776301 33"></polygon>
    </defs>
    <g id="Symbols" stroke="none" stroke-width="1" fill="none" fill-rule="evenodd">
        <g id="Glyphs/White/check-mark" transform="translate(-4.000000, -4.000000)">
            <g id="Group" transform="translate(4.000000, 4.000000)">
                <g id="Group-6">
                    <mask id="mask-2" fill="white">
                        <use xlink:href="#path-1"></use>
                    </mask>
                    <g id="Clip-5"></g>
                    <path d="M16.5013543,31.4810983 C8.30629075,31.4810983 1.63895549,24.7753831 1.63895549,16.5330576 C1.63895549,8.29073198 8.30629075,1.58501686 16.5013543,1.58501686 C24.6964179,1.58501686 31.3629902,8.29073198 31.3629902,16.5330576 C31.3629902,24.7753831 24.6964179,31.4810983 16.5013543,31.4810983 M16.5013543,0.0660575581 C7.47366069,0.0660575581 0.128776301,7.45306919 0.128776301,16.5330576 C0.128776301,25.6132378 7.47366069,33.0000576 16.5013543,33.0000576 C25.5288572,33.0000576 32.8729786,25.6132378 32.8729786,16.5330576 C32.8729786,7.45306919 25.5288572,0.0660575581 16.5013543,0.0660575581" id="Fill-4" fill="#FFFFFF" mask="url(#mask-2)"></path>
                </g>
                <polygon id="Fill-7" fill="#FFFFFF" points="12.6498426 20.912217 8.08133153 16.5022761 7 17.5464444 12.6498426 23 24 12.0439838 22.9186685 11"></polygon>
            </g>
        </g>
    </g>
</svg>