<?xml version="1.0" encoding="UTF-8"?>
<svg width="7px" height="40px" viewBox="0 0 7 40" version="1.1" xmlns="http://www.w3.org/2000/svg" xmlns:xlink="http://www.w3.org/1999/xlink">
    <title>10</title>
    <g id="Symbols" stroke="none" stroke-width="1" fill="none" fill-rule="evenodd">
        <g id="Glyphs/White/chisel" transform="translate(-17.000000, 0.000000)" fill="#008783" fill-rule="nonzero">
            <g id="10" transform="translate(17.000000, 0.000000)">
                <path d="M6.52147296,20.8921736 L5.17484463,20.8921736 L5.17484463,18.5809597 L6.37927836,18.5809597 C6.64353956,18.5809597 6.8578054,18.3747129 6.8578054,18.1203419 L6.8578054,0.460617803 C6.85715611,0.206246777 6.64353956,0 6.37862907,0 L0.62072164,0 C0.35646044,0 0.142194602,0.206246777 0.142194602,0.460617803 L0.142194602,18.1209669 C0.142194602,18.3753379 0.35646044,18.5815847 0.62072164,18.5815847 L1.82515537,18.5815847 L1.82515537,20.8927986 L0.478527038,20.8927986 C0.214265838,20.8927986 0,21.0990453 0,21.3534164 L0,37.2362932 C0,38.7600194 1.28819219,40 2.87116223,40 L4.12883777,40 C5.71180781,40 7,38.7600194 7,37.2362932 L7,21.3527914 C7,21.0984203 6.78573416,20.8921736 6.52147296,20.8921736 Z M4.5606159,2.91495445 L2.43808552,2.91495445 L1.18820147,0.921235606 L5.81049995,0.921235606 L4.5606159,2.91495445 Z M2.53937483,17.6603491 L2.54262128,3.37557226 L4.45672943,3.37557226 L4.45348298,17.6603491 L2.53937483,17.6603491 Z M4.93201002,17.6603491 L4.93525647,3.20932485 L5.90010203,1.66997391 L5.90010203,17.660974 L4.93201002,17.660974 L4.93201002,17.6603491 Z M1.09924868,1.66934892 L2.06409424,3.20869986 L2.06084779,17.6597241 L1.09924868,17.6597241 L1.09924868,1.66934892 Z M2.78220944,18.5815847 L4.21779056,18.5815847 L4.21779056,20.8927986 L2.78220944,20.8927986 L2.78220944,18.5815847 L2.78220944,18.5815847 Z M6.04294592,37.2356682 C6.04294592,38.2519023 5.18458399,39.0781394 4.12883777,39.0781394 L2.87116223,39.0781394 C1.81541601,39.0781394 0.957054077,38.2519023 0.957054077,37.2356682 L0.957054077,21.8134092 L6.04294592,21.8134092 L6.04294592,37.2356682 Z M5.16965031,34.9725786 L4.69112327,34.9725786 L4.69112327,23.8121279 L5.16965031,23.8121279 L5.16965031,34.9725786 Z M5.16965031,36.7956751 L4.69112327,36.7956751 L4.69112327,35.8225653 L5.16965031,35.8225653 L5.16965031,36.7956751 Z" id="Shape"></path>
            </g>
        </g>
    </g>
</svg>
