<?xml version="1.0" encoding="UTF-8"?>
<svg width="33px" height="33px" viewBox="0 0 33 33" version="1.1" xmlns="http://www.w3.org/2000/svg" xmlns:xlink="http://www.w3.org/1999/xlink">
    <title>Group 9</title>
    <defs>
        <polygon id="path-1" points="5.75581395e-05 0.0661918605 32.9346331 0.0661918605 32.9346331 33 5.75581395e-05 33"></polygon>
    </defs>
    <g id="Symbols" stroke="none" stroke-width="1" fill="none" fill-rule="evenodd">
        <g id="Glyphs/White/no" transform="translate(-4.000000, -3.000000)">
            <g id="Group-9" transform="translate(4.000000, 3.000000)">
                <g id="Group-3">
                    <mask id="mask-2" fill="white">
                        <use xlink:href="#path-1"></use>
                    </mask>
                    <g id="Clip-2"></g>
                    <path d="M16.4676331,31.4810983 C12.7232843,31.4810983 9.29895872,30.094139 6.6731564,27.8111913 L27.745575,6.73896453 C30.0289064,9.36438314 31.4156738,12.7887087 31.4156738,16.5330576 C31.4156738,24.7753831 24.7103424,31.4810983 16.4676331,31.4810983 M5.8015343,26.9923308 L6.00701686,27.1976215 C5.93775523,27.1298948 5.86945291,27.0614006 5.8015343,26.9923308 M1.518825,16.5330576 C1.518825,8.29073198 8.22492384,1.58501686 16.4676331,1.58501686 C20.4145866,1.58501686 24.0065983,3.12527267 26.6809413,5.63288895 L5.56727267,26.7465576 C3.05927267,24.0720227 1.518825,20.480011 1.518825,16.5330576 M16.4676331,0.0660575581 C7.38764477,0.0660575581 5.75581395e-05,7.45306919 5.75581395e-05,16.5330576 C5.75581395e-05,25.6132378 7.38764477,33.0000576 16.4676331,33.0000576 C25.5478134,33.0000576 32.9346331,25.6132378 32.9346331,16.5330576 C32.9346331,7.45306919 25.5478134,0.0660575581 16.4676331,0.0660575581" id="Fill-1" fill="#FFFFFF" mask="url(#mask-2)"></path>
                </g>
            </g>
        </g>
    </g>
</svg>