<?xml version="1.0" encoding="UTF-8"?>
<svg width="66px" height="34px" viewBox="0 0 66 34" version="1.1" xmlns="http://www.w3.org/2000/svg" xmlns:xlink="http://www.w3.org/1999/xlink">
    <title>Glyphs / White / 1</title>
    <defs>
        <polygon id="path-1" points="5.60906516e-05 0.130146067 65.9979994 0.130146067 65.9979994 32.9999629 5.60906516e-05 32.9999629"></polygon>
    </defs>
    <g id="Symbols" stroke="none" stroke-width="1" fill="none" fill-rule="evenodd">
        <g id="Vertical-Card" transform="translate(-142.000000, -119.000000)">
            <g id="Glyphs/White/wood" transform="translate(142.000000, 103.000000)">
                <g id="Group-62" transform="translate(0.000000, 16.500000)">
                    <g id="Group-3">
                        <mask id="mask-2" fill="white">
                            <use xlink:href="#path-1"></use>
                        </mask>
                        <g id="Clip-2"></g>
                        <path d="M44.1450816,20.1939236 L6.56135354,20.1939236 L22.1683904,5.47926067 L25.8466283,2.01240674 L63.4340958,2.01240674 L44.1490079,20.1939236 L44.1450816,20.1939236 Z M64.0011722,5.0576764 C59.8639258,8.9574236 49.1092912,19.0945416 44.7121581,23.2391933 L44.7121581,20.7284124 L64.0011722,2.54689551 L64.0011722,5.0576764 Z M64.0011722,12.2134854 L44.7121581,30.3950022 L44.7121581,27.8842213 L44.7121581,27.8805135 L64.0011722,9.69899663 L64.0011722,12.2134854 Z M1.99669632,24.7149236 L5.7947813,24.7149236 L5.7947813,21.3231539 L43.5140618,21.3231539 L43.5140618,23.7738674 L39.7202771,23.7738674 L39.7202771,28.4789629 L43.5140618,28.4789629 L43.5140618,31.1178506 L5.7947813,31.1178506 L5.7947813,27.5379067 L1.99669632,27.5379067 L1.99669632,24.7149236 Z M65.9979994,0.130108989 L25.0198521,0.130108989 L5.60906516e-05,23.7134292 L5.60906516e-05,29.4202045 L3.79795411,29.4202045 L3.79795411,32.9999629 L44.7721751,32.9999629 L65.9979994,12.9926933 L65.9979994,7.28610337 L64.4605547,7.28610337 L65.9979994,5.83688427 L65.9979994,0.130108989 Z" id="Fill-1" fill="#FFFFFF" mask="url(#mask-2)"></path>
                    </g>
                    <polygon id="Fill-4" fill="#FFFFFF" points="21.6532011 14.85 21.45 14.6468041 31.1469783 4.95 31.35 5.15319593"></polygon>
                    <polygon id="Fill-6" fill="#FFFFFF" points="32.8150961 5.34285714 32.6024096 5.13272198 33.1850916 4.55714286 33.3975904 4.76727802"></polygon>
                    <polygon id="Fill-8" fill="#FFFFFF" points="19.6150459 16.8928571 19.4024096 16.6828128 19.9851418 16.1071429 20.1975904 16.3171872"></polygon>
                    <polygon id="Fill-10" fill="#FFFFFF" points="15.0643701 19.8 14.85 19.6572313 19.5856299 16.5 19.8 16.6429014"></polygon>
                    <polygon id="Fill-12" fill="#FFFFFF" points="33.1573872 3.3 33 3.1434466 34.4926128 1.65 34.65 1.8065534"></polygon>
                    <polygon id="Fill-14" fill="#FFFFFF" points="29.9172264 16.5 29.7 16.3262266 37.7329654 9.9 37.95 10.073612"></polygon>
                    <polygon id="Fill-16" fill="#FFFFFF" points="37.7650961 8.64285714 37.5524096 8.43272198 38.1349039 7.85714286 38.3475904 8.0670829"></polygon>
                    <polygon id="Fill-18" fill="#FFFFFF" points="29.5150459 16.8928571 29.3024096 16.682722 29.8851418 16.1071429 30.0975904 16.3170829"></polygon>
                    <polygon id="Fill-20" fill="#FFFFFF" points="24.9600658 19.8 24.75 19.5899556 27.8399342 16.5 28.05 16.7100444"></polygon>
                    <polygon id="Fill-22" fill="#FFFFFF" points="39.830391 6.6 39.6 6.3696182 45.969609 0 46.2 0.230381798"></polygon>
                    <polygon id="Fill-24" fill="#FFFFFF" points="26.6071413 6.6 26.4 6.39303738 31.1430416 1.65 31.35 1.85677045"></polygon>
                    <polygon id="Fill-26" fill="#FFFFFF" points="13.4090796 18.15 13.2 17.9411171 22.8909204 8.25 23.1 8.459077"></polygon>
                    <polygon id="Fill-28" fill="#FFFFFF" points="10.0489246 19.8 9.9 19.6512318 11.4010754 18.15 11.55 18.2989065"></polygon>
                    <polygon id="Fill-30" fill="#FFFFFF" points="24.5649084 6.99285714 24.3524096 6.78266979 24.9350916 6.20714286 25.1475904 6.41713505"></polygon>
                    <polygon id="Fill-32" fill="#FFFFFF" points="13.0150459 18.5428571 12.8024096 18.332722 13.3851418 17.7571429 13.5975904 17.967278"></polygon>
                    <polygon id="Fill-34" fill="#FFFFFF" points="31.5461521 9.9 31.35 9.70368427 39.4036746 1.65 39.6 1.84631573"></polygon>
                    <polygon id="Fill-36" fill="#FFFFFF" points="20.0083069 21.45 19.8 21.2418925 29.4916931 11.55 29.7 11.7584943"></polygon>
                    <polygon id="Fill-38" fill="#FFFFFF" points="31.1650961 10.2928571 30.9524096 10.0827742 31.5350916 9.50714286 31.7475904 9.71722585"></polygon>
                    <polygon id="Fill-40" fill="#FFFFFF" points="29.8994009 19.8 29.7 19.6006078 39.4005991 9.9 39.6 10.0993922"></polygon>
                    <polygon id="Fill-42" fill="#FFFFFF" points="39.4150961 10.2928571 39.2024096 10.0826698 39.7849039 9.50714286 39.9975904 9.71713505"></polygon>
                    <polygon id="Fill-44" fill="#FFFFFF" points="41.4568571 9.9 41.25 9.69325088 49.2931429 1.65 49.5 1.85674912"></polygon>
                    <polygon id="Fill-46" fill="#FFFFFF" points="39.8073519 21.45 39.6 21.242655 49.2926481 11.55 49.5 11.757345"></polygon>
                    <polygon id="Fill-48" fill="#FFFFFF" points="49.3150459 10.2928571 49.1024096 10.0826698 49.6849541 9.50714286 49.8975904 9.71713505"></polygon>
                    <polygon id="Fill-50" fill="#FFFFFF" points="51.3473784 9.9 51.15 9.70262895 59.2026216 1.65 59.4 1.84737105"></polygon>
                    <polygon id="Fill-52" fill="#FFFFFF" points="52.942456 3.3 52.8 3.15704593 54.307544 1.65 54.45 1.79295407"></polygon>
                    <polygon id="Fill-54" fill="#FFFFFF" points="38.1818338 16.5 37.95 16.2971536 50.9181662 4.95 51.15 5.15284636"></polygon>
                    <polygon id="Fill-56" fill="#FFFFFF" points="33.2387853 19.8 33 19.5612294 36.0614255 16.5 36.3 16.7387706"></polygon>
                    <polygon id="Fill-58" fill="#FFFFFF" points="52.6150459 5.34285714 52.4024096 5.13272198 52.9849541 4.55714286 53.1975904 4.7670829"></polygon>
                    <polygon id="Fill-60" fill="#FFFFFF" points="37.7649084 16.8928571 37.5524096 16.6828128 38.1350916 16.1071429 38.3475904 16.3171872"></polygon>
                </g>
            </g>
        </g>
    </g>
</svg>