<svg xmlns="http://www.w3.org/2000/svg" width="92" height="85" viewBox="0 0 92 85"><path fill="#FFF" d="M20.15 85c5.614 0 10.326-1.93 14.136-5.789C38.096 75.352 40 70.376 40 64.283c0-4.671-1.103-8.632-3.308-11.882-2.206-3.25-5.314-5.585-9.324-7.007L38.496 0H19.55L5.414 42.652C3.208 48.34 1.754 52.655 1.053 55.6.35 58.545 0 61.44 0 64.283 0 70.173 1.905 75.1 5.714 79.06 9.524 83.02 14.336 85 20.15 85zm52 0c5.614 0 10.326-1.93 14.136-5.789C90.096 75.352 92 70.376 92 64.283c0-4.671-1.103-8.632-3.308-11.882-2.206-3.25-5.314-5.585-9.324-7.007L90.496 0H71.55L57.414 42.652c-2.206 5.687-3.66 10.003-4.361 12.948C52.35 58.545 52 61.44 52 64.283c0 5.89 1.905 10.816 5.714 14.776C61.524 83.02 66.336 85 72.15 85z"/></svg>