<svg width="584" height="266" xmlns="http://www.w3.org/2000/svg" xmlns:xlink="http://www.w3.org/1999/xlink"><defs><path d="M36.005.491c-.112.068-.228.133-.347-.016-.082.13-.082.512-.137.764-.055-.126-.028-.764-.111-.76-.773.003-1.602.262-2.375.268.028.382.055.635-.055.635-.028-.509.055-.635 0-.89-.272.362-.471.3-.651.239-.205-.065-.385-.133-.62.405.086.227.155.178.21.13.07-.059.119-.12.15.375-.139-.253-.193-.126-.387.003-.027-.382-.083-.635-.11-1.017-.194.127-.138.382-.221.765-.056-.638-.138-.253-.304-.506-.083.253-.082.888-.194.765-.026-.382.111-.382.028-.765-.58.133-1.132.007-1.629.519-.801-.632-1.601.136-2.347.139-.055.638.083.256.055.638-.166.256-.11-.509-.22-.635-.029.256-.14.13-.194.509-.056-.761-.11-.38-.276-.38-.663.004-.884.39-1.547.266-.028 0-.028.253-.083.253-.193-.253-.8-.628-1.022.262-.386-.635-.717.004-1.214.007-.083 0-.056.505-.11.505-.084-.123-.084-.635-.194-.635-.238.463-.46.431-.662.402-.246-.042-.467-.081-.664.755a2.506 2.506 0 010-.635c-.326.482-.616.482-.891.482-.307 0-.598 0-.903.67-.04.004-.084-.038-.131-.077-.118-.104-.256-.204-.394.337 0-.256-.028-.382-.055-.382-1.133.515-2.044 1.156-3.23 1.797 0 .26.026.382-.028.642-.029-.256-.029-.642-.111-.638-.773.515-1.794 1.16-2.485 1.541 0 .256.055.382 0 .382-.055-.255-.11-.255-.193-.255-1.768 1.033-4.086 3.206-5.992 4.492-1.021 1.024-1.932 1.917-2.816 2.559-.58 1.02-1.297 1.28-1.877 2.303-.056-.127-.027-.383-.083-.383-.248.765-.552.512-.718 1.403-.054 1.91-.026 3.054.333 4.198.36.126.718.505 1.16.249.718-.389 1.49-1.538 2.098-1.794.028-.256.083-.383.138-.509.387-.003 1.022-1.153 1.436-1.027.883-1.153 1.574-1.535 2.485-2.306.027-.13.055-.382.082-.512.139.256.636-.126.746-.638.497.124 1.132-.77 1.63-1.282.193.382.496 0 .662-.382-.056-.13-.056-.383-.028-.383.193-.259.22.38.33.502.084-.126-.11-.505 0-.76.08.294.087.12.1-.056.008-.123.02-.252.066-.2 0 .382-.054.382-.054.764.165-.638.497-.003.386-.638.056 0 .139.126.193.382.14-.583.29-.58.445-.577.183.004.37.01.55-.955.22.631.663.755 1.049-.007 0-.385-.028-.764.055-.764 0 .126.083.379.083.505.083 0 .083-.379.165-.126 0-.126.028-.382.11-.382.029.382-.027.382 0 .89.69-.514 1.078-1.405 1.63-1.153.221-.003.442-.511.552-.64-.056-.765.248-.765.276-.383-.11.126-.22-.13-.248.512.11.505.303-.133.469-.133.083-.509-.166-.38-.055-.765.165-.126.138.639.22.765.125-.447.325-.415.532-.386.207.033.421.062.574-.382.138.758.579.12.69-.644-.056 0-.166.13-.194-.123.138-.004.304-.256.36.123-.139 0 .027.638.054.638.153-.353.298-.314.464-.279.131.033.276.062.448-.11.055-.13-.056-.89.055-.764.027.252 0 .764.082.76-.034-.394.007-.297.05-.193.025.058.051.116.062.068.082-.256.027-.891.138-.891.082 0 .082.508.165.382.083-.512.22-.256.386-.638 0 .253-.055.379-.055.764.332.38.608.376.884-.9-.027.512.055.641.11.89-.027-.252-.027-.378.056-.378 0 .126.027.252.027.379.746-.768 1.492-.01 2.513-1.034-.012-.106-.044-.074-.075-.042-.04.04-.078.081-.063-.21.165 0 .248-.509.36-.003-.14.003-.057.255-.028.764.116-.32.251-.282.389-.243.187.052.378.107.522-.78.235.92.53.683.853.453.17-.123.347-.246.527-.204 0-.256-.027-.512.028-.641.11 0 .193 0 .248.255-.02.094-.053.085-.084.072-.052-.02-.098-.04-.081.437.193 0 .331.126.58.126.217-.165.413-.165.605-.165.247.003.484.007.748-.353.028-.256 0-.638.055-.638.083-.126.139-.126.194 0-.029.126-.029.256-.029.508.127.512.299.353.474.195.131-.117.264-.233.383-.071-.028-.383.083-.383.165-.765.031.567.054.347.08.126.023-.174.05-.35.086-.126-.027.382-.083.509-.054.765.413-.004.883-.26 1.132.246h-.195c-.026.638.112.126.057.638-.103-.156-.183-.055-.256.052-.103.145-.195.294-.324-.305-.056.253-.055.635-.166.512 0-.26.083-.13.055-.635-.082.126-.138.126-.22.126.014.421.046.418.077.415.025-.003.048-.007.06.22-.106.21-.17-.003-.239-.214-.057-.175-.116-.346-.203-.291-.055.256.056.635-.027.761-.083-.505-.22.13-.304.13-.027-.127-.055-.253-.055-.635-.166.003-.249.003-.386.385.024.172.082.114.14.052.068-.078.136-.149.136.2-.141-.174-.293-.022-.451.127-.185.175-.378.35-.572.007-.059.822-.264.647-.427.473-.138-.153-.245-.298-.207.168a2.64 2.64 0 01-.194-.382c-.082.126.056.382-.055.508-.137.13-.11-.126-.083-.508-.22.89-.414.512-.745 1.02 0-.253.055-.253.055-.505-.11 0-.11.505-.248.635.055-.253.11-.765 0-.765 0 .13-.028 0-.055 0-.112.256.083.382 0 .512-.092.253-.148.172-.207.087-.03-.042-.06-.084-.097-.084-.11.888-.47.765-.608.638-.11.509-.496.512-.58.13 0 .635-.275.382-.414.767 0-.13 0-.385-.027-.385-.138.638-.663.77-.884.389.027.508 0 .385-.082.638-.221-.635-.69.641-.994.641.027-.13.055-.382 0-.382.027.638-.25.256-.194 1.02.497-.003.773-.894 1.215-.392.442-.638.967-.894 1.602-1.023 1.794-1.665 3.7-2.06 5.716-2.96.386-.13.8-.895 1.159-.519-.745 1.024-1.436.518-2.264 1.542-.083-.382-.331.003-.414.13-.635.511-1.547.265-2.182.903-.027.126-.027.382-.055.382-.47-.123-.939-.25-1.16.897-.025.062-.033-.074-.045-.207-.014-.155-.034-.308-.092-.172 0 .253.056.506 0 .506-.636-.632-1.05.388-1.795.648.028 1.017-.193.764-.193 1.276-.111-.891.138-.512.138-1.02-.249.129-.304.259-.47.259-.083.126.055.252-.028.505-.635-.884-1.269 1.027-2.042 1.03-.029.126 0 .767-.083.767-.263-.353-.603.046-.943.447-.269.318-.537.632-.769.577.055.512.028.764-.055.894.055-.764-.663-1.014-.47.003.028-.13.221-.385.276.123-.165.003-.44.897-.634.515.027-.252.137-.512.22-.638-.193-.382-.746.386-.938 1.024-.277-.256-.58.003-.746.644.111.12.221-.006.36.25-.194.505-.47.508-.608.385 0-.382.166 0 .138-.635-.087-.116-.17 0-.25.12-.098.143-.197.285-.302.007.027.382-.139.255-.111.764.028.382.138.253.138.508-.027.256-.137.894-.165.638.083-.511-.11-.89 0-1.272-.07-.065-.077.097-.083.255-.008.16-.015.321-.083.256.027-.256 0-.382-.055-.382-.331.382-.884 1.406-1.188 1.15-1.241 2.426-2.732 3.453-4.085 6.26-.055 0-.028-.508-.083-.381-.054.256 0 .126.028.508-.386.512-.635 1.15-1.076 1.406 0-.253.11-.635 0-.765-.056.512-.277.383-.305 1.147-.165-.25-.496 1.147-.662 1.788.221-.13.497-1.02.663-.385.608-.771 1.077-1.662 1.63-2.174-.029 0-.084-.508-.029-.508.36-.13.552-.133.911-1.276.04.489.194.24.356-.007.176-.266.36-.534.418.126-.056 0-.083.127-.056.383.083.255.193-.509.166-.765.027.127.138.638.138.127-.11-.127 0-.765.027-1.147.056 0 .138-.256.165 0 0 .379-.192.382-.109.89.166.13.359.127.552-.003.137-1.27.745-.255.827-2.04.029 0 .084-.13.14-.13.054-.379 0-1.143.165-1.143-.029.764.055.635.083 1.143-.063-.055-.102-.01-.134.033-.04.058-.07.113-.115-.033-.028.13-.083.26-.082.512.606-.385.744-1.15 1.242-.897.303-1.02.69-1.024.966-1.788-.055 0-.083-.126-.11-.509.192 0 .469-.511.606-.385-.054.764-.414.13-.414.768.111 0 .139 0 .25.252.082-.511.469-1.15.496-.385.194-.256.359-.509.497-1.02.276-.004.662-.768.994.123.055-.256-.083-.894.055-1.15.11.13.056.13.166.382.083-.253 0-.635.11-.638.028.13.028.256.028.256.193-.386.303-.126.497.126.027-.382-.166-.638-.055-.764.026-.127.026-.256.055-.256.035.576.071.567.144.56.04-.006.09-.013.16.075.082-.13.165-.638.22-1.147.156.12.333-.02.506-.155.193-.153.384-.305.544-.107-.001-.127-.029-.382.027-.382.8.252 1.519-.9 2.347-1.41 0-.385-.056-.511.027-.637.08-.182.127-.017.165.155.04.181.07.363.112.097.11-.89.496-.638.8-.894 0 .506.056.635.166.632.055-.25-.027-.761.055-.761.083.126.138.508.25.635.026-.256.026-.509.081-.765l.001.382c.138-.382.165-.382.276 0 .038-.803.184-.732.307-.664.053.03.1.062.134.023-.027.003-.055.003 0-.126v.126c.056-.508.387-.512.525-.26 0-.252.027-.378.055-.504.304-.004.58-.26.829-.645.193.191.42.032.645-.13.224-.158.445-.32.625-.129.082-.13.082-.638.165-.638.36.761.884.12 1.298-.392v.512c.056.123.056-.256.083-.256.17.243.326-.003.503-.243.198-.275.42-.547.712-.146.33-.638 1.16-1.023 1.546-.521.083 0 .248-.761.194 0 .22-.761.442-.256.69-.13 0-.252 0-.382.055-.635.138-.13.166.506.25.635.054-.13.109-.508.109-.764.056.635.22.123.276-.13.028.509.138.505.194.765.027-.26-.111-.512 0-.512.22.126.386.252.58.126.082-.13-.056-.382 0-.638.234-.065.413-.032.579-.003.166.032.317.061.497-.003-.055 0-.055-.509 0-.512.176.593.344.411.512.23.122-.133.244-.263.372-.104.077.36.217.269.353.175.155-.104.306-.207.365.33.773-.64 1.712-.395 2.513-.906.083.382.359.252.497-.133.276.126.773.252.994-.13.055.253.055.505.138.505.232-.194.46-.09.684.007.365.165.724.327 1.083-.777.332.631.857 1.263 1.216-.263.11 0 .11.38.165.38.056-.383 0-.51.139-.383 0-.635-.14-.509-.112-1.017.112.13.083-.512.083-.764 0-.509-.11-.509-.166-.762 0-.382.138-.255.083-.764-.056-.761-.442-.635-.415-1.522.041-.13.083-.033.128.061s.093.191.149.062c-.029-.89-.277-.761-.277-1.655-.8-.376-1.768-1.134-2.597-.875-.027-.123-.083-.123-.083-.379-.07-.065-.145.068-.217.195-.072.126-.141.255-.196.19.027 0-.167-.382-.11-.382-.057 0-.194 0-.25-.13-.124.004-.25-.009-.378-.028-.386-.042-.795-.088-1.251.294-.11-.634-.524-.757-.662.263-.056-.256.055-.512-.028-.765-.23.205-.459.107-.675.013-.33-.145-.628-.291-.844.632.028-.13.028-.379.027-.638-.745-.25-1.63-.12-2.54.016 0 .13.027.382 0 .382-.108-.443-.215-.56-.324-.56-.062 0-.123.036-.186.071zm2.664.224c.082.126 0 .635-.083.635 0-.383.083-.386.083-.635zm.165.508c0-.259.056-.13.056-.382.055.123.11.253.11.635-.083 0-.11-.253-.166-.253zM33.478 1h.054c.028.282-.054.282-.11.424.027-.142.056-.282.056-.424zm-4.944.822c0-.424.166-.424.138.14-.028-.14-.083-.14-.138-.14zm-.133-.285c.061 0 .062.762-.03.509v-.382c.008.039.014.055.02.055.01 0 .01-.09.01-.182zm8.915.201c.552.38 1.215.502 1.933.117 1.823 1.004 3.59-.023 5.247 1.37-.331 0-.551.003-.993.259-.166 0 0-.382-.083-.635-.14-.126-.056.509-.138.635-3.15-.489-6.407-.725-9.39-.327-.025 0-.07.1-.08.036v-.004c-.002-.006-.002-.02-.002-.032-2.376.142-4.613.03-6.766.93-.166-.25-.249-.124-.47.006-1.105-.246-2.623.395-4.06.657-.938.263-1.628.392-2.485.781-.552.382-1.242.768-1.656.518-.083.256-.138.382-.194.638-.387-.126-.766.072-1.143.263-.376.19-.749.385-1.12.259-2.1 1.794-4.198 2.568-6.13 4.107.22-1.02.884-.515 1.187-1.406.082-.074.135-.013.188.045.035.043.07.081.115.078 5.411-4.865 10.383-5.785 15.933-7.216.09-.046.19-.026.3-.007.193.036.41.075.639-.252.883.12 1.933-.013 2.54-.272 1.27-.133 3.176.107 4.75-.538.305.236.605.334.896.334.34 0 .67-.136.982-.344zm-10.301.198c.056-.143.083.14.11.14.013.125-.019.197-.054.197-.042 0-.086-.104-.056-.337zm-1.818.508c.02-.155.058-.317.09-.256 0 .256-.062.256-.062.515-.007.01-.014.013-.019.013-.027 0-.025-.136-.009-.272zm12.533.962c.028 0 .028 0 .028-.142h.083v.285c-.028 0-.055.14-.055.14h-.056v-.283zm-1.459-.136c.093.13.062.891-.03.894-.06-.382.061-.382.03-.894zm.991.266c.03 0 .062-.14.092-.143v.282c-.03 0-.062.143-.092.143v-.282zm-1.906-.123c-.028.142-.055.285-.111.285.028-.143.056-.285.111-.285zm.341.003c0 .143-.061.143-.092.143 0-.14.062-.14.092-.143zm4.436.087c0 .765-.248 1.02-.22.13.137 0 .11 0 .22-.13zm-7.262.298c-.029.253-.056.38-.083.765-.048.071-.06-.02-.075-.114-.013-.07-.029-.142-.063-.142.138-.379.027-.638-.083-.379 0-.764.22-.26.304-.13zm4.528-.281c.11.252.165.252.221.634-.138 0-.165-.252-.248 0-.056-.382.027-.382.027-.634zm1.023.631c-.03-.385.062-.256.031-.511.04 0 .057.142.056.285-.001.139-.02.278-.051.278-.011 0-.022-.016-.036-.052zm-3.784-.343c.027 0 .056 0 .056-.143a.71.71 0 01.028.421h-.084v-.278zm-2.403-.133c0 .256-.027.382-.027.512-.083 0-.166 0-.166-.382.083 0 .083 0 .193-.13zm-.359.133c-.055.123-.027.508-.11.508 0-.255.027-.638.11-.508zm-1.16.02c-.028.281-.083.142-.11.142 0-.143.055-.143.11-.143zm-.635.275c-.046.155-.067.094-.09.035-.019-.048-.04-.094-.076-.032 0-.285.222-.428.166-.003zm-2.43.24c.018-.172.073-.117.124-.062.026.029.05.061.069.058.016.22-.06.44-.122.44-.045 0-.083-.116-.07-.437zm.249-.004c.055 0 .028.509.083.382 0 .253-.083.256-.139.256 0-.256.056-.256.056-.638zm-1.077.262h.083c.055.253 0 .253 0 .635h-.083c0-.382-.056-.252 0-.635zm5.992.091c.11 0 .194.253.194.635h-.002c-.083 0-.164-.003-.192-.635zm3.453.107c0 .56-.166.696-.139.003.056-.003.083-.003.139-.003zm-1.464.295c.031-.285.093-.285.093-.003-.01.048-.017.064-.024.064-.014 0-.028-.061-.07-.061zm.166-.159c.032.113.07.09.103.071.05-.035.09-.07.09.353-.024-.181-.063-.13-.1-.077-.017.026-.034.051-.048.051-.027 0-.045-.084-.045-.398zm-2.652.016c.028.635-.11.253-.192.509-.001-.356.034-.353.079-.347h.014c.032 0 .068-.016.1-.162zm-1.463.425c0-.14 0-.14-.028-.282.082 0 .138 0 .221-.003.034.255-.013.307-.074.307-.04 0-.087-.022-.12-.022zm.58-.013c-.028-.279.165-.421.137.145-.041-.145-.062-.11-.079-.07-.008.015-.015.028-.023.028-.01 0-.02-.022-.035-.103zm-8.258-.237c.111.26-.027.768-.083.768-.055-.509.14-.127.083-.768zm5.778.227c.03.282-.03.421-.088.424-.03-.424.029-.424.088-.424zm-2.463.14h.082v.381c-.027-.13-.055 0-.027.127h-.055c-.028-.127-.028-.253-.028-.38.008.036.014.053.018.053.01 0 .01-.091.01-.182zm-3.232.297c-.027-.282.193-.282.166.14-.024.042-.046.058-.065.058-.048 0-.081-.1-.101-.198zm4.833-.181c0 .256-.055.385-.11.508-.055-.505.083-.379.11-.508zm-7.042.333c.028-.145.084-.427.111-.285.02.107-.07.38-.103.38-.01 0-.014-.027-.008-.095zm12.963-.24c.03.383-.063.257-.032.51-.123-.127-.03-.639.032-.51zm.9-.006c.222.13.276.13.526.127.027.382-.028.634-.112.634-.11-.631-.276-.126-.469.13 0-.509.139-.379.055-.89zm-.58.007c0 .252.028.382.028.505-.083-.253-.083 0-.165.13.026-.383.054-.635.138-.635zm-1.27.43c0-.42.11-.566.166-.281 0 .252-.05.304-.096.304-.03 0-.059-.023-.07-.023zm-5.357-.391c.082-.004.11.142.11.424h-.11v-.424zm4.28.369c.017.444-.063.33-.14.22-.044-.065-.088-.126-.109-.078.056-.566.222-.142.249-.142zm-6.655-.1h.083c0 .139.027.281.027.424h-.083c0-.143-.027-.285-.027-.425zm-3.204.019c-.027.282-.054.424-.11.424 0-.282.056-.282.11-.424zm2.54.11c.056-.191.09-.094.125 0s.07.191.124 0c0 .253-.055.379-.114.379-.058 0-.12-.126-.134-.379zm.332 0c.056-.13.221-.256.221.379-.018-.042-.05-.026-.082-.013-.016.006-.032.013-.049.013-.048 0-.09-.062-.09-.379zm-.359 0c.028.253-.027.382-.11.508 0-.382.028-.508.11-.508zm5.165.097c0 .424-.11.567-.166.285 0-.262.043-.252.089-.243.009.003.018.003.027.003.019 0 .036-.006.05-.045zm-1.05.003c.083 0 .11.26.194.256 0 .165-.048.26-.097.26-.063 0-.128-.156-.097-.516zm-9.218.35h-.059c0-.142-.029-.14-.029-.14-.03-.28.147-.28.088.14zm4.468-.31h.083c0 .139.027.281.027.281h-.082s-.028-.14-.028-.282zm-.524.129h.062c.03.142.031.282.031.282s-.03 0-.061.003c0 0 0-.143-.032-.285zM21 6.425h.06c.033.14-.03.282-.091.282 0-.14.03-.143.03-.282zm16.953.023c0 .424-.083.427-.139.142.028-.142.083-.142.139-.142zm-15.162.084c.028.285-.027.567-.11.424.027-.14 0-.282 0-.424.018 0 .037.065.063.065.014 0 .029-.017.047-.065zm.526.006h.061c.03.14.031.282.031.282h-.061s0-.142-.031-.282zm10.824.059c0 .424-.083.427-.138.285.028-.285.083-.143.138-.285zm2.928.107c-.028.285-.056.424-.139.427-.027-.427.083-.427.139-.427zm-3.369.019c0 .505-.193.764-.166 0 .083.382.082 0 .166 0zm-.994.26c.22-.257.358-.513.47.252-.03-.042-.089-.01-.154.026a.284.284 0 01-.136.048c-.077 0-.147-.071-.18-.327zM19.89 6.816c-.027.142-.082.282-.165.282-.028-.564.11-.282.165-.282zm-.247.117c-.056.382-.332.255-.525.382.082-.635.442-.509.525-.382zm12.952.557c-.03-.383 0-.383.028-.635.04 0 .063.165.063.327s-.021.324-.066.324c-.008 0-.017-.007-.025-.016zm.865-.632c0 .282-.061.143-.092.285 0-.142.061-.142.092-.285zm-9.095.049c.054 0 .054.142.11.142 0 .175-.029.256-.059.256-.041-.003-.083-.152-.051-.398zm-2.458.013c.028.424-.276.709-.249.142.041-.214.076-.142.114-.068.019.032.039.068.06.068.023 0 .047-.036.075-.142zm10.41.7c.029-.383.194-.127.167-.636.055-.13.027.253.027.509-.083 0-.119.214-.155.214-.012 0-.024-.023-.038-.088zm3.978-.658c0 .424-.139.285-.166.427-.032-.33.01-.324.063-.314.037.003.08.007.103-.113zm-.525.259c-.028.56-.387.563-.47.282.139-.282.277-.143.47-.282zm-12.814.2c-.055.253-.138.127-.22.383-.029-.509.165-.635.22-.382zm-4.03.046c-.002-.14.06-.143.092-.003-.01.097-.018.126-.025.126-.013 0-.027-.123-.068-.123zm15.932.295c-.027-.282.139-.143.166-.282.018.272-.033.427-.086.427-.03 0-.06-.045-.08-.145zm-.082-.15c-.028.282-.056.425-.11.282.027-.142.054-.281.11-.281zm-1.077.51c.332-.13.607-.898.801-.134-.137-.103-.27.052-.39.21-.092.12-.178.244-.252.244-.061 0-.115-.084-.159-.32zm-13.973-.28c.03-.139.092-.139.092 0-.01.095-.017.127-.023.127-.014 0-.028-.126-.069-.126zm13.917.15c-.082.767-.275.515-.496.515.11-.509.276 0 .496-.515zm.829.634v.509h-.138c.028-.253.056-.509.138-.509zm-15.41.24c0-.282.194-.282.167.14-.011.029-.023.042-.034.042-.044 0-.089-.182-.132-.182zm15.054.44h.061v-.42h-.061v.42zm-.582-.161c.082-.14.11 0 .137.418-.082 0-.11-.14-.137-.418zm-.139 0c.028-.004.056-.004.083-.004 0 .143 0 .282.028.425h-.082c-.029-.143-.029-.282-.029-.421zm-1.683.515c.11.126.165 0 .192.508-.083 0-.165 0-.192-.508zm-15.493.602c-.028.266-.083.402-.166.402 0-.535.138-.535.166-.402zm16.542.408c.019.804-.083.732-.203.664-.052-.029-.107-.061-.156-.026-.028-.252-.028-.382-.028-.508.036-.11.093-.049.156.01.036.032.074.068.11.068.045 0 .087-.049.12-.208zm.397.016c0 .14-.062.14-.093.14 0-.14.062 0 .093-.14zm-1.06.503c0-.263.138-.13.166-.263.026.366.016.473-.014.473-.034 0-.093-.14-.152-.21zm-17.619 0c.028-.286.11-.286.11-.143.018.175-.028.295-.067.295-.023 0-.043-.046-.043-.152zm-4.915.414c-.11-.142-.083 0-.221.14 0-.418.248-.703.22-.14zm17.647.376c.055 0 .055-.13.138-.26v.383c-.015.071-.056.178-.088.178-.028 0-.05-.074-.05-.301zm2.154.787c-.083 0-.166 0-.25.003 0-.56.25-.7.25-.003zm-.414-.01c.03-.282.093-.142.093 0-.01.094-.017.126-.025.126-.013 0-.027-.126-.068-.126zm-3.064.246c.156-.256.001.509.032.761h-.001c-.091 0-.03-.634-.03-.76zm-1.134.642c0 .382-.055.511-.138.511 0-.382.083-.382.138-.511zm.746 1.399c.082 0 .11.14.11.42-.027 0-.082.004-.11.004v-.424zm-2.374.265h.092l.001.509h-.062c-.03-.13-.03-.256-.03-.509zm-.415.004c.055.126.11.252.166.126v.505c-.055.13-.055-.123-.055-.25-.11.13-.166.383-.304.254.027-.383.055-.383.082-.635.018.08.07.369.097.369.016 0 .024-.094.014-.37zm1.713.508h.056c.057.282-.028.282-.085.282.029-.143.057-.143.029-.282zm-.526.629h-.054s0-.127-.029-.127c-.027.256-.11.382-.165.127 0-.38.11-.38.165-.127-.027-.256.112-.382.083.127zm-2.015-.243c.027-.127.276-.13.276.508-.022.075-.041.107-.06.107-.074 0-.127-.515-.216-.615zm-.166.806h.092v-.42h-.092v.42zm-.8-.165c.055.256.11.256.11.638-.055-.13-.11-.256-.11-.638zm1.573.758c.028-.256.056-.512.138-.641v.511c-.078.091-.087.182-.105.182-.007 0-.017-.017-.033-.052zm-1.27-.38c.028-.125.083-.125.138-.125v.638c-.083 0-.138-.13-.138-.512zm.88.464c.082-.068.16-.142.142.169-.03-.046-.068.042-.105.132-.067.156-.136.311-.171-.259.01.016.022.023.035.023.03 0 .065-.033.1-.065zm-2.536.693c.11-.13.11.127.193.127-.11.13-.276 1.017-.332.259.019.039.046.068.073.068.053 0 .102-.114.066-.454zm1.684.12c.11-.256.22-.13.277-.003-.056.126-.11.508-.14.89 0-.508-.054-.508-.137-.887zm-2.011.136c.06 0 .062.133.062.389-.03.058-.051.084-.068.084-.053 0-.041-.275.006-.473zm-.475.512c.166 0 .166-.256.277-.126-.014.398-.089.589-.158.589-.061 0-.119-.159-.119-.463zm-.965 1.023c.11-.126.11 0 .276-.256-.083.512.028.891-.138 1.15v-.385c0-.165-.027-.162-.056-.159-.005.003-.01.003-.015.003-.034 0-.067-.035-.067-.353zm1.823-.136c0 .509-.111.383-.221.509.055-.126.11-.509.22-.509zm-.332.256c-.055.765-.193.256-.33.635.081-.635.247-.382.33-.635zm-.36.654c-.027.143-.137.285-.164.285.027-.424.137-.566.165-.285zm-1.125-.139c.061.13 0 .26 0 .512-.063 0 0-.253 0-.512zm.823.256c.027.421-.056.421-.138.421l-.001-.42c.028.093.043.125.055.125.022 0 .028-.126.084-.126zm-1.796.81c-.083-.136-.083.003-.165.003.027-.557.22-.696.165-.003zm.498-.298c.052-.182.08-.071.094.032.016.117.016.233.016-.032.083.252.083.508.221.635-.014.256-.041.223-.072.194-.032-.032-.066-.065-.094.188-.036.058-.046-.126-.055-.311-.011-.243-.021-.483-.083-.194-.082 0-.027-.512-.027-.512zm-.93.518c0 .143-.03.282-.03.424-.031 0-.031-.142-.061-.142-.03-.136 0-.136 0-.282.02 0 .027.065.047.065.01 0 .024-.016.044-.065zm-.423.509c.027 0 .055 0 .11-.13v.764c-.055 0-.138-.123-.11-.634zm-.056-.13c0 .26-.054.385-.054.641-.056-.256-.139-.126-.111.509-.069.13-.076-.065-.08-.253-.003-.19-.003-.382-.058-.256.083-.256.193-.511.303-.641zm1.41.003h.091v.285h-.091v-.285zm-1.796.26c.11.252 0 .634-.028.76-.137-.123.028-.382.028-.76zm-.11.382c0 .281-.055.285-.111.424 0-.14.027-.14.027-.282.029-.142.056-.142.083-.142zm1.021.664v-.285c.056 0 .11-.004.166-.004.028.285 0 .357-.042.357s-.096-.068-.124-.068zm-.138.217c-.083.13-.138.255-.248.255-.055-.634.248-.89.248-.255zm-.773-.247c.11-.13.166 0 .194.38-.014.032-.031.048-.05.048-.056 0-.123-.143-.144-.428zm-.58.004c.028.379-.027.508-.055.76-.083 0-.11-.126-.138-.504.016.016.03.022.04.022.072 0 .082-.278.153-.278zm.389.375c.027.256-.057.256-.057.512-.084-.13-.028-.635.057-.512zm-.665.007c-.027.418-.11.557-.193.42-.027-.42.11-.28.193-.42zm.856.635c0 .56-.138.281-.22.424.027-.282.11-.424.22-.424zm-.856 0c.083.126.194.126.194.508-.083 0-.083.253-.166.256-.027-.256-.027-.508-.028-.764zm.525.256c.028.563-.11.281-.165.424.027-.285.11-.285.165-.424zm-1.353.644c.055 0 .11.14.138.421h-.11c0-.14-.028-.282-.028-.42zm.638.246c.03.13.062.253.062.509h-.001c-.092 0-.06-.256-.06-.509zm-.11.133h.06v.421h-.06v-.421zm-1.77 1.156c0 .421-.083.421-.166.425.028-.282.138-.567.166-.425zM31.795 7.75c.062-.126.093-.252.093-.508-.03 0-.124.13-.093.509zM21.252 8.833c-.031-.256.093-.509-.031-.639 0 .13-.062.639.031.639zm-2.96 1.328c.03 0 .092-.143.092-.282-.03 0-.093.139-.093.282zm6.27 1.34v.282c.031-.139.031-.139.061-.139v-.285c-.03 0-.03 0-.061.142zm-1.382 2.284c.137 0 .137-.382.22-.13-.027-.382-.027-.256-.027-.764-.033.08-.056.02-.082-.042-.017-.042-.034-.084-.056-.084.027.508-.083.508-.055 1.02zm-.857-.632c0 .127 0 .253-.027.127v.382h.055c0-.13.028-.256.056-.13v-.382c-.028 0-.056 0-.084.003zm.166.127c0 .764.11.764.14 1.143.137-.635.413-.768.523-1.15-.331.256-.47.133-.663.007zm-.082 1.146c-.027-.382.055-.382.055-.638-.083 0-.193.509-.055.638zm-.773-.103c0-.27.11-.004.11-.402-.022-.052-.043-.075-.063-.075-.082 0-.136.37-.047.477zm-.222.106c.084.127.084-.255.11-.508-.054.126-.137.126-.11.508zm-.273-.11v.285c.03-.142.062-.145.062-.145v-.279s-.032 0-.062.14zm.882.363c.027 0 .082.126.082.253.083.13.083-.127.083-.509-.01-.048-.032-.078-.056-.078-.041 0-.092.088-.11.334zm-1.078.266c-.012-.178.022-.166.06-.146.045.016.093.032.078-.243-.012-.058-.032-.084-.055-.084-.073 0-.168.275-.083.473zm.635-.392c0 .382.056.382.056.764.054 0 .108-.003.136-.243v-.01c-.051.052-.067-.113-.082-.272-.014-.142-.028-.285-.066-.285-.012 0-.026.013-.044.046zm.191.512c0-.004.002-.004.003-.004l-.002.013.002.023c.028.282.083 0 .11-.285-.014-.036-.031-.055-.048-.055-.04 0-.078.116-.065.308zm-.462 0c-.03.126-.061 0-.03.126 0 .395.047.181.073-.033.015-.126.023-.252.009-.252-.01 0-.025.045-.052.159zm-1.247.64c.083-.378.193-.378.276-.255-.02-.26-.06-.356-.106-.356-.087 0-.188.362-.17.612zm-.387.13c-.054.638.166 0 .11-.252-.027 0-.11.252-.11.252zm-.469.386v.382c-.109-.052-.17.062-.225.178-.071.146-.132.295-.272.078-.11.89-.772 1.023-.939.644.083.383.111.383.111.888.11.13.11-.126.193-.256 0 .13 0 .256-.027.512.331-.003.44-1.403.829-1.024.054-.382.386-.897.44-.256.056.127.056-.13.11-.13.028-.764-.137-.634-.054-1.016-.11.252-.028.252-.166 0zm.663.25c.055 0 .083.129.11.255 0-.308-.03-.476-.06-.476-.02 0-.04.071-.05.22zm-2.36 1.353c-.039.058-.08.117-.125.062.083 1.017-.22 1.146-.359.764-.055.26-.11 1.02-.221.512 0-.253.138-.13.11-.382-.03-.14-.044-.085-.069-.03-.02.046-.047.088-.096.03.083.89-.22 1.02-.303.89.027-.252.137-.252.137-.635-.108-.18-.176.172-.243.532-.07.375-.14.751-.254.489-.138.512-.441.894-.607.897.027-.256.11-.26.138-.641-.221.13-.47.259-.553.767.044.27.117.117.193-.035.07-.136.141-.272.194-.091-.11.379-.22.508-.441.638.028-.382-.028-.382-.084-.509-.054.253-.165.127-.248.253 0 .26.056.765-.027.765-.04.184-.067.077-.09-.03-.026-.116-.047-.236-.076.03.055 0 .028.255.056.511-.111-.256-.056 0-.193.004.027.634.11.123.138.76 0-.255.055-.129.11-.255 0-.127-.028-.509.028-.509.275-.259.469-.767.8-.897.331-.126.524-1.02.883-1.15.221-.13.415-.764.607-.894.034 0 .058.042.081.085.034.058.064.12.114.038.08.055.15-.113.216-.281.09-.234.172-.47.252-.1 0-.639.165-.51.194-.762-.029 0 .027-.13 0-.385-.138.126-.276.508-.332.259 0-.512.22-.133.22-.638-.023-.107-.046-.143-.07-.143-.026 0-.052.039-.08.081zm-2.554 3.637c0 .512-.11.386-.165.512-.029-.508.082-.512.165-.512zm4.667-.242c.012 0 .03.016.048.032.053.052.11.107.09-.32-.083 0-.11.003-.138.288zm-6.075 2.034v.76c.166-.252.166-.122.304 0 .048-.598.136-.488.235-.378.066.078.138.152.206-.003-.027-.256.027-.894-.027-.765-.055.126-.138.126-.166-.126.028-.256.249-.126.22-.638a.13.13 0 00-.048-.013c-.236 0-.492.803-.724 1.163zm.22.165c-.028-.425.166-.425.194-.282-.02.204-.07.337-.128.337-.021 0-.043-.02-.065-.055zm-.496.473c-.111-.127.028.508-.083.508h-.055c0 .337-.031.318-.064.301-.03-.016-.061-.029-.074.21.083.127-.055.383-.083.383-.055-.764.221-.764.082-1.273-.303.765-.607 1.147-1.103 2.17.165.509-.11.635 0 1.017 0-.13.055-.256.11-.256-.027-.634.083-.634.138-.893.027.259-.027.385-.027.64.055 0 .083 0 .083.124.11-.764.497-.509.551-1.529-.083-.126.028-.508.11-.379-.027.505.056.505.056.761.193-.003.221-.638.303-.894.028.127.056.256.111.127-.017-.321.042-.285.104-.25.034.023.07.042.09-.003-.029-.382-.083-.382-.029-.641-.11 0-.11.259-.22.13 0-.095.08-.338.057-.338-.007 0-.024.023-.057.085zm-.814 1.966c-.015-.004-.029-.007-.042-.007.027-.285.055-.427.138-.427.018.382-.014.44-.061.44a.142.142 0 01-.035-.006zm-.262.2c.026 0 .026 0 .026-.126.029-.126.056-.126.083-.126v.253c-.027 0-.027.13-.027.13s-.027.129-.056.129c0 0-.026-.13-.026-.26zm1.519-1.486c.061 0 .093-.146.093-.428-.062.143-.124 0-.093.428zm-2.127 2.384c.083.252-.055.887.138.635 0-.298-.051-.755-.1-.755-.013 0-.026.036-.038.12zm-.162.19c-.025.066-.046.13-.087.066 0 .508-.054.634-.082 1.146.166 0 .11-.764.303-.515.028-.505-.054-.379-.027-.761-.017-.02-.03-.026-.043-.026-.029 0-.048.045-.064.09zm2.178.814c.11-.127.11-.509.138-.888-.083.123-.11.506-.138.888zm-2.546.408c-.017.317.002.635.089.499.027-.383-.056-.253-.028-.765.055 0 .083 0 .055-.256-.005-.003-.009-.006-.014-.006-.047 0-.087.266-.102.528z" id="a"/></defs><g fill="none" fill-rule="evenodd"><path d="M51.746 184v-38.52h14.688v-11.952H22.082v11.952h14.616V184h15.048zm40.835 1.008c4.656 0 8.736-.9 12.24-2.7 3.504-1.8 6.204-4.344 8.1-7.632 1.896-3.288 2.844-7.14 2.844-11.556v-29.592h-14.976v29.592c0 2.88-.768 5.172-2.304 6.876-1.536 1.704-3.504 2.556-5.904 2.556-2.448 0-4.488-.864-6.12-2.592-1.632-1.728-2.448-4.008-2.448-6.84v-29.592H69.037v29.592c0 4.416.972 8.268 2.916 11.556 1.944 3.288 4.692 5.832 8.244 7.632 3.552 1.8 7.68 2.7 12.384 2.7zM137.159 184v-13.608h7.92L151.775 184h16.992l-10.224-16.488c2.736-1.584 4.836-3.732 6.3-6.444 1.464-2.712 2.196-5.916 2.196-9.612 0-5.712-1.86-10.128-5.58-13.248-3.72-3.12-8.964-4.68-15.732-4.68h-23.544V184h14.976zm8.568-25.128h-8.568v-13.824h8.568c2.256 0 3.996.588 5.22 1.764 1.224 1.176 1.836 2.868 1.836 5.076 0 2.256-.612 3.984-1.836 5.184-1.224 1.2-2.964 1.8-5.22 1.8zM186.849 184v-28.08L208.233 184h12.744v-50.472h-13.68v28.152l-21.384-28.152h-12.816V184h13.752zm70.22 0v-13.536l7.92-.072c6.529 0 11.58-1.656 15.157-4.968 3.576-3.312 5.364-7.968 5.364-13.968 0-5.712-1.788-10.128-5.364-13.248-3.576-3.12-8.628-4.68-15.156-4.68h-22.896V184h14.976zm7.2-25.128h-7.2v-13.824h7.2c2.257 0 3.997.588 5.22 1.764 1.225 1.176 1.837 2.868 1.837 5.076 0 2.256-.612 3.984-1.836 5.184-1.224 1.2-2.964 1.8-5.22 1.8zM296.465 184l3.024-8.064h20.376l2.952 8.064H338.8l-20.808-50.472h-15.408L281.056 184h15.408zm19.44-19.008h-12.24l6.192-16.488 6.048 16.488zm46.09 19.872c3.888 0 7.404-.6 10.548-1.8 3.144-1.2 5.64-3.012 7.488-5.436 1.848-2.424 2.772-5.388 2.772-8.892 0-3.456-.852-6.24-2.556-8.352-1.704-2.112-3.708-3.684-6.012-4.716-2.304-1.032-5.232-2.052-8.784-3.06-3.12-.864-5.4-1.668-6.84-2.412-1.44-.744-2.16-1.788-2.16-3.132 0-.96.372-1.692 1.116-2.196.744-.504 1.764-.756 3.06-.756 2.064 0 4.704.552 7.92 1.656 3.216 1.104 6.168 2.448 8.856 4.032l5.544-11.52c-2.784-1.776-6.048-3.204-9.792-4.284a40.602 40.602 0 00-11.304-1.62c-4.176 0-7.836.648-10.98 1.944-3.144 1.296-5.58 3.156-7.308 5.58-1.728 2.424-2.592 5.268-2.592 8.532 0 3.36.84 6.072 2.52 8.136 1.68 2.064 3.672 3.588 5.976 4.572s5.208 1.932 8.712 2.844c3.12.816 5.424 1.596 6.912 2.34 1.488.744 2.232 1.812 2.232 3.204 0 1.152-.456 2.04-1.368 2.664-.912.624-2.184.936-3.816.936-2.64 0-5.796-.756-9.468-2.268-3.672-1.512-6.78-3.372-9.324-5.58l-5.616 11.376c3.168 2.544 6.924 4.548 11.268 6.012 4.344 1.464 8.676 2.196 12.996 2.196zm45.875 0c3.888 0 7.404-.6 10.548-1.8 3.144-1.2 5.64-3.012 7.488-5.436 1.848-2.424 2.772-5.388 2.772-8.892 0-3.456-.852-6.24-2.556-8.352-1.704-2.112-3.708-3.684-6.012-4.716-2.304-1.032-5.232-2.052-8.784-3.06-3.12-.864-5.4-1.668-6.84-2.412-1.44-.744-2.16-1.788-2.16-3.132 0-.96.372-1.692 1.116-2.196.744-.504 1.764-.756 3.06-.756 2.064 0 4.704.552 7.92 1.656 3.216 1.104 6.168 2.448 8.856 4.032l5.544-11.52c-2.784-1.776-6.048-3.204-9.792-4.284a40.602 40.602 0 00-11.304-1.62c-4.176 0-7.836.648-10.98 1.944-3.144 1.296-5.58 3.156-7.308 5.58-1.728 2.424-2.592 5.268-2.592 8.532 0 3.36.84 6.072 2.52 8.136 1.68 2.064 3.672 3.588 5.976 4.572s5.208 1.932 8.712 2.844c3.12.816 5.424 1.596 6.912 2.34 1.488.744 2.232 1.812 2.232 3.204 0 1.152-.456 2.04-1.368 2.664-.912.624-2.184.936-3.816.936-2.64 0-5.796-.756-9.468-2.268-3.672-1.512-6.78-3.372-9.324-5.58l-5.616 11.376c3.168 2.544 6.924 4.548 11.268 6.012 4.344 1.464 8.676 2.196 12.996 2.196zm39.97-.864v-50.472h-14.976V184h14.976zm31.834 1.008c5.184 0 9.876-1.14 14.076-3.42 4.2-2.28 7.488-5.424 9.864-9.432 2.376-4.008 3.564-8.508 3.564-13.5 0-4.944-1.188-9.396-3.564-13.356-2.376-3.96-5.664-7.068-9.864-9.324-4.2-2.256-8.892-3.384-14.076-3.384-5.232 0-9.936 1.128-14.112 3.384-4.176 2.256-7.452 5.364-9.828 9.324-2.376 3.96-3.564 8.412-3.564 13.356 0 4.992 1.188 9.492 3.564 13.5 2.376 4.008 5.652 7.152 9.828 9.432 4.176 2.28 8.88 3.42 14.112 3.42zm.216-12.456c-2.208 0-4.26-.612-6.156-1.836-1.896-1.224-3.408-2.892-4.536-5.004-1.128-2.112-1.692-4.44-1.692-6.984 0-2.544.564-4.86 1.692-6.948 1.128-2.088 2.64-3.732 4.536-4.932 1.896-1.2 3.948-1.8 6.156-1.8 2.208 0 4.224.6 6.048 1.8 1.824 1.2 3.264 2.844 4.32 4.932 1.056 2.088 1.584 4.404 1.584 6.948 0 2.592-.528 4.932-1.584 7.02-1.056 2.088-2.508 3.744-4.356 4.968-1.848 1.224-3.852 1.836-6.012 1.836zM525.26 184v-28.08L546.643 184h12.744v-50.472h-13.68v28.152l-21.384-28.152h-12.816V184h13.752zM41.99 256v-50.472H27.014V256H41.99zm20.963 0v-28.08L84.337 256H97.08v-50.472H83.4v28.152l-21.384-28.152H49.2V256h13.752zm67.186 0v-38.52h14.688v-11.952h-44.352v11.952h14.616V256h15.048zm40.33 1.008c5.184 0 9.876-1.14 14.076-3.42 4.2-2.28 7.488-5.424 9.864-9.432 2.376-4.008 3.564-8.508 3.564-13.5 0-4.944-1.188-9.396-3.564-13.356-2.376-3.96-5.664-7.068-9.864-9.324-4.2-2.256-8.892-3.384-14.076-3.384-5.232 0-9.936 1.128-14.112 3.384-4.176 2.256-7.452 5.364-9.828 9.324-2.376 3.96-3.564 8.412-3.564 13.356 0 4.992 1.188 9.492 3.564 13.5 2.376 4.008 5.652 7.152 9.828 9.432 4.176 2.28 8.88 3.42 14.112 3.42zm.216-12.456c-2.208 0-4.26-.612-6.156-1.836-1.896-1.224-3.408-2.892-4.536-5.004-1.128-2.112-1.692-4.44-1.692-6.984 0-2.544.564-4.86 1.692-6.948 1.128-2.088 2.64-3.732 4.536-4.932 1.896-1.2 3.948-1.8 6.156-1.8 2.208 0 4.224.6 6.048 1.8 1.824 1.2 3.264 2.844 4.32 4.932 1.056 2.088 1.584 4.404 1.584 6.948 0 2.592-.528 4.932-1.584 7.02-1.056 2.088-2.508 3.744-4.356 4.968-1.848 1.224-3.852 1.836-6.012 1.836zm60.5 11.448v-13.536l7.92-.072c6.529 0 11.58-1.656 15.157-4.968 3.576-3.312 5.364-7.968 5.364-13.968 0-5.712-1.788-10.128-5.364-13.248-3.576-3.12-8.628-4.68-15.156-4.68H216.21V256h14.976zm7.2-25.128h-7.2v-13.824h7.2c2.257 0 3.997.588 5.22 1.764 1.225 1.176 1.837 2.868 1.837 5.076 0 2.256-.612 3.984-1.836 5.184-1.224 1.2-2.964 1.8-5.22 1.8zm48.467 26.136c4.656 0 8.736-.9 12.24-2.7 3.504-1.8 6.204-4.344 8.1-7.632 1.896-3.288 2.844-7.14 2.844-11.556v-29.592H295.06v29.592c0 2.88-.768 5.172-2.304 6.876-1.536 1.704-3.504 2.556-5.904 2.556-2.448 0-4.488-.864-6.12-2.592-1.632-1.728-2.448-4.008-2.448-6.84v-29.592h-14.976v29.592c0 4.416.972 8.268 2.916 11.556 1.944 3.288 4.692 5.832 8.244 7.632 3.552 1.8 7.68 2.7 12.384 2.7zM331.43 256v-13.608h7.92L346.046 256h16.992l-10.224-16.488c2.736-1.584 4.836-3.732 6.3-6.444 1.464-2.712 2.196-5.916 2.196-9.612 0-5.712-1.86-10.128-5.58-13.248-3.72-3.12-8.964-4.68-15.732-4.68h-23.544V256h14.976zm8.568-25.128h-8.568v-13.824h8.568c2.256 0 3.996.588 5.22 1.764 1.224 1.176 1.836 2.868 1.836 5.076 0 2.256-.612 3.984-1.836 5.184-1.224 1.2-2.964 1.8-5.22 1.8zM382.345 256v-13.536l7.92-.072c6.528 0 11.58-1.656 15.156-4.968 3.576-3.312 5.364-7.968 5.364-13.968 0-5.712-1.788-10.128-5.364-13.248-3.576-3.12-8.628-4.68-15.156-4.68h-22.896V256h14.976zm7.2-25.128h-7.2v-13.824h7.2c2.256 0 3.996.588 5.22 1.764 1.224 1.176 1.836 2.868 1.836 5.076 0 2.256-.612 3.984-1.836 5.184-1.224 1.2-2.964 1.8-5.22 1.8zm50.338 26.136c5.184 0 9.876-1.14 14.076-3.42 4.2-2.28 7.488-5.424 9.864-9.432 2.376-4.008 3.564-8.508 3.564-13.5 0-4.944-1.188-9.396-3.564-13.356-2.376-3.96-5.664-7.068-9.864-9.324-4.2-2.256-8.892-3.384-14.076-3.384-5.232 0-9.936 1.128-14.112 3.384-4.176 2.256-7.452 5.364-9.828 9.324-2.376 3.96-3.564 8.412-3.564 13.356 0 4.992 1.188 9.492 3.564 13.5 2.376 4.008 5.652 7.152 9.828 9.432 4.176 2.28 8.88 3.42 14.112 3.42zm.216-12.456c-2.208 0-4.26-.612-6.156-1.836-1.896-1.224-3.408-2.892-4.536-5.004-1.128-2.112-1.692-4.44-1.692-6.984 0-2.544.564-4.86 1.692-6.948 1.128-2.088 2.64-3.732 4.536-4.932 1.896-1.2 3.948-1.8 6.156-1.8 2.208 0 4.224.6 6.048 1.8 1.824 1.2 3.264 2.844 4.32 4.932 1.056 2.088 1.584 4.404 1.584 6.948 0 2.592-.528 4.932-1.584 7.02-1.056 2.088-2.508 3.744-4.356 4.968-1.848 1.224-3.852 1.836-6.012 1.836zm52.498 12.312c3.888 0 7.404-.6 10.548-1.8 3.144-1.2 5.64-3.012 7.488-5.436 1.848-2.424 2.772-5.388 2.772-8.892 0-3.456-.852-6.24-2.556-8.352-1.704-2.112-3.708-3.684-6.012-4.716-2.304-1.032-5.232-2.052-8.784-3.06-3.12-.864-5.4-1.668-6.84-2.412-1.44-.744-2.16-1.788-2.16-3.132 0-.96.372-1.692 1.116-2.196.744-.504 1.764-.756 3.06-.756 2.064 0 4.704.552 7.92 1.656 3.216 1.104 6.168 2.448 8.856 4.032l5.544-11.52c-2.784-1.776-6.048-3.204-9.792-4.284a40.602 40.602 0 00-11.304-1.62c-4.176 0-7.836.648-10.98 1.944-3.144 1.296-5.58 3.156-7.308 5.58-1.728 2.424-2.592 5.268-2.592 8.532 0 3.36.84 6.072 2.52 8.136 1.68 2.064 3.672 3.588 5.976 4.572s5.208 1.932 8.712 2.844c3.12.816 5.424 1.596 6.912 2.34 1.488.744 2.232 1.812 2.232 3.204 0 1.152-.456 2.04-1.368 2.664-.912.624-2.184.936-3.816.936-2.64 0-5.796-.756-9.468-2.268-3.672-1.512-6.78-3.372-9.324-5.58l-5.616 11.376c3.168 2.544 6.924 4.548 11.268 6.012 4.344 1.464 8.676 2.196 12.996 2.196zm66.97-.864v-11.52h-27v-7.992H556.4v-11.52h-23.832v-7.92h26.28v-11.52h-41.256V256h41.976z" fill="#252525" fill-rule="nonzero"/><use fill="#B48361" xlink:href="#a" transform="scale(-1 1) rotate(-41 30.946 393.995)"/><path d="M161.602 40.468a4.057 4.057 0 01-.224-.728c-.033-.186.022-.42.165-.7l.027-.39.516.198-.484 1.62zm-2.285 5.585l-.63-.848c.56-.1.938-.134 1.136-.105l-.506.953zm1.838.06a1.102 1.102 0 01-.313-.137l-.219-.153c-.003-.384.02-.612.072-.685.051-.073.232-.137.543-.191l.098.558c.044.248-.016.45-.18.608zm-1.203 2.995l.385-2.18c.252.34.4.634.444.882.066.372-.21.805-.829 1.298zm-2.573 1.221l-.346-.323.017.093-.51.378c.16-.54.548-1.248 1.163-2.124.128.361.165.658.11.892-.055.234-.2.595-.434 1.084zm-.764 1.67l-.192-.542c-.281-.142-.283-.334-.005-.575l.16.356.477-.564.203.06c-.07.332-.284.754-.643 1.265zm-1.583 5.749c.015-.643.012-1.026-.01-1.15l1.91-2.256-.61 1.451-.268.383a.83.83 0 00-.127.646c.088.497-.21.805-.895.926zm8.883-2.526l.083-1.166.642.366-.725.8zm-.163 1.342c-.066-.296-.006-.713.18-1.25l.18 1.025c-.186.032-.294.147-.324.345l-.036-.12zm-.679 3.7c.03-.197.085-.43.165-.7.08-.27.156-.572.226-.904l.115.651a.906.906 0 01-.165.701l.093-.016-.434.268zm-.11 1.555a1.159 1.159 0 00-.167-.402 1.159 1.159 0 01-.167-.403c-.044-.248.11-.467.46-.657l.291 1.1-.417.362zm-.766 6.564l-.466.082c-.106-1.324.125-2.74.693-4.248l.204-1.571c.03-.197.163-.349.4-.455v1.632c.054.31-.057.585-.335.826-.308.438-.44.782-.396 1.03l.016.093c.264.401.278.846.044 1.336l-.16 1.275zm-4.98-3.152l.708-.893c.088.497-.148.794-.708.893zm1.591 2.113c.018-.138.036-.283.051-.435.024-.229.077-.478.157-.748.15.486.071.947-.236 1.385l.028-.202zm-3.65 2.568l-.505-.678c.322.007.504.039.546.095.042.057.028.251-.041.583zm-.424 3.05c-.27-.08-.413-.247-.425-.501a5.002 5.002 0 00-.052-.567c.406.12.579.282.518.485-.06.202-.08.366-.058.49l.017.093zm6.34 12.508l.095-1.648c-.257.365-.357.702-.303 1.013.055.31.124.522.208.635zm-6.606-29.83l-.034.227a2.952 2.952 0 01-.498 1.115c-.253-.34-.395-.603-.428-.789-.044-.248.203-.483.741-.706l.22.153zm9.32 1.044l.269.432-.286 1.106c-.179-.288-.23-.583-.156-.884.075-.301.133-.52.173-.654zm-9.552 2.548c-.102.146-.225.36-.368.64-.143.281-.39.517-.74.707l.055-.778c.124-.022.175-.095.153-.219l.05.28.23-.33.62-.3zm2.536 8.38c-.07.333-.136.776-.198 1.33a31.372 31.372 0 01-.287 1.923c-.07.332-.12.772-.151 1.322a6.298 6.298 0 01-.229 1.431c-.04.135-.093.289-.159.46l-.062.166c-.038.106-.07.204-.097.294l.193-2.72c.048-.457.123-1.03.226-1.72.103-.69.233-1.496.39-2.42-.043-.248.06-.394.308-.438l.066.373zm-1.183 6.926c-.019.26-.032.55-.04.87-.007.322-.009.674-.005 1.057l-.001 1.632.033.186-.198.514.115.652-.034.23-.054.361c-.073-.05-.12-.138-.143-.263-.05.073-.066.172-.044.296-.22-.153-.34-.292-.362-.416.154-.219.25-.588.286-1.106l.156-3.482c-.011-.062.086-.239.29-.53zm.174 22.807l-.373.066-.23-1.303c.26.018.428.245.505.679l.098.558zm-1.19-42.203l-.137.312-.017-.093-.093.016c.238-1.193.692-2.073 1.362-2.639a.459.459 0 01-.053.25.459.459 0 00-.052.249c.172.609-.083 1.166-.763 1.67l.28-.05c-.103.146-.185.225-.247.236-.063.01-.105-.046-.126-.17l-.154.219zm2.556 10.68l-.022.092a3.738 3.738 0 00-.05.593c-.007.32-.124.565-.35.733l-.019-.071a1.833 1.833 0 00-.078-.2c-.053-.118-.054-.214-.002-.287l.225-.903.296.043zm8.187-14.11l.11-.054c.37-.202.384-.449.039-.74l-.472-.492c-.073-.051-.087-.129-.041-.233a.459.459 0 00.052-.249l.894.706.248-1.867-.576.006.528-1.916c.118.218.198.357.238.415l.017.022-.02.008c-.026.02-.038.061-.035.122l.008.068.056-.19h.003l.001-.013c.176-.095.247-.235.214-.422a1.05 1.05 0 01.011-.481c-.354-.194-.403-.473-.147-.838.33-.314.472-.595.428-.843l-.082-.465c-.033-.187.028-.39.181-.608.063-.011.088-.048.077-.11l.015.088-.009-.077a2.627 2.627 0 01-.003-.345l.009-.147c.018-.26.053-.426.104-.499.15-.602.302-1.013.456-1.232.102-.146.085-.334-.052-.566-.137-.232-.092-.432.135-.6-.325-.39-.36-.864-.106-1.42.254-.557.36-.96.316-1.208.278-.24.373-.61.286-1.105a1.05 1.05 0 01.01-.482l.122-.405.022-.964c.245-.427.398-1.014.459-1.76.06-.747.131-1.255.212-1.525l-.016-.093c-.18-.288-.26-.658-.244-1.108.017-.451.003-.8-.04-1.049l-.033-.186a.64.64 0 01.104-.498c.051-.073.14-.12.264-.143l-.318-.711-.202-1.692-.44-.306c-.164.157-.29.163-.38.019-.09-.144-.14-.247-.151-.31l-.878-.612-.29.53-.182.609c-.022-.125-.095-.176-.22-.154l-.986-.69c.026-.58-.105-.956-.392-1.13-.287-.173-.732-.334-1.336-.484l.121-.405c-.2-.412-.55-.67-1.05-.774-.499-.104-.946-.185-1.341-.244v1.632c.054.31.088.688.103 1.133.014.445.018.828.01 1.15l-.215 2.053c.066.372.022.668-.132.887-.377.77-.527 1.372-.45 1.806.021.124.138.424.35.898a4.46 4.46 0 00-.222.375c-.097.177-.135.328-.113.452-.169.861-.32 2.007-.452 3.438a95.78 95.78 0 00-.19 2.193c-.08 1.005-.276 1.887-.591 2.647-.04.135-.07.332-.088.59-.019.26-.017.452.005.576.061 1.076-.186 1.856-.742 2.338-.186.032-.269.111-.247.235.117.3.073.595-.132.887-.113.084-.198.243-.253.476-.055.234-.102.418-.143.553-.15.603-.338.988-.565 1.156a.737.737 0 00-.313.678c.018.285-.035.438-.16.46-.099.53-.389 1.157-.87 1.881-.481.725-.788 1.259-.92 1.602l-.428.843c-.04.135-.148.25-.324.345-.176.095-.258.173-.247.235.055.31-.013.562-.203.756-.19.193-.311.327-.363.4-.091.208-.2.499-.326.873-.127.374-.272.64-.437.797l-.878 1.018-1.214 1.845-1.41 2.36a1.491 1.491 0 01-.495.471c-.113.084-.25.22-.409.408-.159.188-.326.33-.502.424-.33.314-.705.637-1.128.967-.422.33-.886.7-1.39 1.109-.29.179-.784.378-1.482.597-.699.22-1.193.418-1.482.597a9.064 9.064 0 00-.301-.619l-.285-.525a2.58 2.58 0 00-.192-.542 2.925 2.925 0 00-.285-.525c-.22-.154-.37-.463-.452-.928-.082-.466-.233-.775-.452-.928a5.571 5.571 0 00-.096-1.087l-.238-1.35c-.36-2.047-.484-3.656-.37-4.828a.532.532 0 00-.02-.38 1.55 1.55 0 01-.111-.364c.237-.106.35-.286.337-.54a5.002 5.002 0 00-.052-.566c-.109-.62-.03-1.626.238-3.017l-.093.017c.029-.197.055-.506.077-.926.022-.42.136-.775.34-1.067.216-.23.286-.562.21-.997-.095-.175-.125-.522-.088-1.04.04-.135.145-.361.313-.679.169-.317.231-.6.187-.848-.098-.559-.04-.953.176-1.183.257-.365.383-.739.38-1.122a1.552 1.552 0 01.01-.482c.03-.197.034-.358.012-.482.018-.259.078-.557.179-.895.1-.338.129-.63.085-.879l-.05-.29a50.347 50.347 0 01-.19-1.346 4.066 4.066 0 00-.773-1.927l-.9.35.182-.607c-.757.07-1.253-.195-1.487-.794-.01-.062-.09-.144-.235-.246-.158-.164-.552-.495-1.185-.99-.632-.497-1.073-.723-1.322-.68l-1.222-.935c-.63.43-1.173 1.166-1.63 2.206.156.165.27.353.339.564.07.212.076.706.021 1.484l-.094 1.648c.022.124-.016.274-.113.451a4.46 4.46 0 01-.222.375l.427.789a2.347 2.347 0 00-.532.525c-.128.183-.165.43-.11.74.01.061.013.253.005.574-.007.321-.12.597-.335.827-.238.106-.262.334-.072.684.315.329.276.655-.115.98.032.186.078.354.137.504.058.15.073.323.043.52a3.23 3.23 0 01-.118.693c-.06.202-.105.402-.135.6.036.568.073 1.41.109 2.523a28.114 28.114 0 01-.03 2.836c.012.062.065.276.162.643s.006.67-.272.912l.05.279c.167.226.273.463.317.711a3.1 3.1 0 01.038.761l-.008.258c.002.17.017.338.046.503l.45 1.456.422.214c-.019.259-.05.536-.094.832a2.539 2.539 0 000 .816l.848 2.633-.696.41c.632-.047.97.053 1.014.301l.033.187c.066.372.233.774.501 1.207.269.432.462.798.579 1.097l.84-.148-.665.597.11.077.653-.116-.182.608-.312-.137.016.093.22.154.004.575 1.415 1.477-.263.143.784.63 2.187 2.588c.033.186.16.356.379.51.281.141.855.488 1.722 1.039.866.55 1.678.792 2.435.722a.995.995 0 01.538.05.995.995 0 00.537.048c1.244-.219 2.297-.245 3.16-.077.256-.365.498-.632.725-.8l.993-.367.098.559c.893-.03 1.443-.543 1.652-1.539.458-1.04.992-1.646 1.603-1.818.055.31.033.73-.066 1.26-.1.528-.127.917-.083 1.165l.05.28c-.166.157-.215.421-.15.793.055.31.057.502.006.575l-.33 1.402c-.008.321-.034.901-.078 1.74a23.15 23.15 0 01-.198 2.147c-.158.923-.218 2.037-.18 3.342.037 1.305.09 2.879.159 4.722l.081 2.097.306 2.825v1.63c.302.267.476.525.52.773.044.248.014.445-.088.591l1.222 2.567c-.011-.062.093-.016.312.137l.158.12c.316.257.641.63.975 1.12.389.57.704.995.945 1.272l.291-.53c.187-.034.312.04.376.221.064.18.132.296.206.348.391-.325.77-.36 1.135-.105l.862-1.111c-.033-.186-.142-.263-.329-.23-.187.033-.357.159-.51.378-.14-.424-.077-.706.187-.849.263-.142.42-.25.471-.323l.894.706c.33-.314.421-.522.275-.624a.724.724 0 00-.143-.263.837.837 0 01-.158-.356c-.11-.62-.323-1.286-.641-1.998a6.95 6.95 0 01.102-.785c.05-.265.057-.49.025-.677-.106-.237-.236-.79-.389-1.658-.153-.869-.226-1.464-.219-1.785l.56-.099-.256-2.545c.018-.26.048-.633.09-1.12.043-.487.062-.922.059-1.305l.21-2.628c-.176.095-.34.252-.494.47l-.455-.399c.113-.084.322-.265.625-.542.304-.278.454-.608.45-.991.293.204.39.395.294.572a4.46 4.46 0 01-.222.375l.285.526c.172-.479.23-.873.176-1.183l-.318-.712-.285-.525c-.015-.445.21-.805.675-1.079.125-.022.18-.255.165-.7-.205.291-.395.485-.57.58l-.148-.838-.053.075-.027-.004a6.48 6.48 0 00-.518-.028l-.165-.004c.651-.307.995-.72 1.032-1.238.07-.332.291-.53.664-.597.04-.135.12-.324.236-.57.117-.244.154-.49.11-.738l-.158-.356-.676 1.079c-.16-.548-.045-.984.346-1.309l-.285-.525-.384.547-.038-.203c-.075-.386-.154-.654-.236-.804a.595.595 0 01.209-.18c.088-.048.183-.145.285-.291l.368-.64c-.01-.063.035-.167.138-.313l-.203-.06c.032.186.023.316-.028.389-.23-.215-.28-.495-.148-.838.395.059.688.263.878.613.234-.489.132-.887-.307-1.193l-.044.295c-.446.015-.64-.175-.581-.569.088-.591.352-1.277.79-2.058l.599.662c.029-.197.156-.747.382-1.65.225-.904.323-1.801.295-2.692l.462-2.288c.08-.27.124-.566.132-.887.007-.321.02-.611.039-.87.296-.5.44-1.134.434-1.9-.007-.767.044-1.384.154-1.85.11-.468.21-.997.297-1.588.089-.592.254-1.292.495-2.103.18-.8.264-1.23.253-1.292-.043-.248-.102-.398-.175-.449zm24.408 23.812l-.28.05a2.243 2.243 0 01-1.27-.928 28.39 28.39 0 00-.583-.857c-.044-.248-.16-.356-.346-.323-.062.011-.098-.014-.11-.076-.361-.96-.81-1.872-1.348-2.737a.735.735 0 00-.09-.512 1.159 1.159 0 01-.167-.403c.07-.332-.042-.6-.334-.804a2.185 2.185 0 01-.027-.427c.003-.16-.031-.267-.104-.318-.074-.05-.087-.128-.041-.232.045-.104.026-.213-.058-.326-.073-.051-.1-.11-.08-.178.02-.068-.006-.127-.079-.178l-.115-.651a1.987 1.987 0 00-.104-.318.45.45 0 01.066-.443c-.01-.062-.111-.269-.301-.619a1.385 1.385 0 01.003-.528c.035-.166.041-.311.02-.435-.033-.187-.086-.305-.16-.356-.094-.175-.117-.395-.068-.66.05-.265.058-.49.025-.676l.105-.498-.126-.17-.082-.465a.64.64 0 00-.269-.433l-.05-.279c.144-.28.182-.608.117-.98l-.006-.575c-.01-.062.02-.163.091-.304.071-.14.008-.225-.19-.254l-.065-.372c.092-.208.077-.382-.043-.52a.846.846 0 01-.214-.395l.384-.547c-.128-.361-.229-.663-.304-.906a5.002 5.002 0 01-.145-.55c-.157-.164-.159-.356-.005-.575.154-.22.152-.41-.005-.575-.084-.113-.088-.224-.011-.334.077-.11.11-.195.099-.257-.044-.248-.102-.398-.176-.449-.073-.051-.08-.098-.024-.14.057-.042.08-.094.069-.156.153-.219.168-.317.044-.295-.209-.091-.262-.21-.16-.356.103-.146.149-.25.138-.312.059-.394.19-.737.395-1.03l-.345-.322.011-.482c-.044-.248-.04-.409.011-.482.103-.146.112-.276.028-.389l-.11-.076c.154-.22.215-.422.182-.608-.011-.062.022-.148.099-.257.077-.11.016-.18-.181-.208a.593.593 0 00.099-.258c.014-.098.078-.19.192-.273-.011-.062.128-.183.417-.362l-.504-.679c-.063.011-.059-.15.01-.481l.259-.718c.14-.664.353-1.085.642-1.264l-.016-.093.319-.92c.113-.084.287-.37.521-.86.132-.343.317-.567.555-.673a2.997 2.997 0 00-.685-1.703l-.252-.34c-.055-.31-.254-.53-.598-.661-.395-.059-.453-.208-.175-.45l-.423-.213-.11-.076c-.497.087-.86.024-1.09-.192-.023-.124-.14-.151-.352-.082-.212.07-.35.11-.411.12-.063.012-.175-.08-.338-.276-.162-.195-.337-.276-.523-.243-.125.022-.291-.013-.5-.104-.208-.091-.374-.126-.499-.104l-.11-.077c-.54-.16-.967-.213-1.278-.158l-.636.208c-.249.044-.501.248-.757.614-.125.021-.213.069-.264.142-.051.073-.146.17-.285.29a.464.464 0 00-.16.46l.017.093c.01.062-.02.163-.09.304-.072.14-.134.247-.185.32l-.11-.076c-.146-.102-.193-.19-.142-.263.04-.135.075-.301.105-.498.029-.197.115-.436.258-.718l.29-.53a.322.322 0 01.218-.135.322.322 0 00.216-.134c.249-.044.326-.153.23-.329.049-.456.28-.784.693-.985.175-.095.337-.268.485-.518a2.89 2.89 0 00.283-.577c.183-.416.363-.672.538-.767.051-.073.134-.151.247-.235.114-.084.154-.22.121-.405-.022-.124.03-.197.154-.22.238-.105.544-.367.92-.785.374-.418.712-.686 1.012-.803l.91-.832c.228-.168.465-.274.714-.318l.368-.64.11.076c.486-.15.864-.28 1.133-.391a2.9 2.9 0 00.573-.293c.165-.157.284-.21.357-.16.073.052.265.05.576-.005l1.103-.29c.497-.088.813-.112.949-.072.135.04.293.029.474-.035s.37-.082.568-.052c.395.058.903.032 1.525-.077l1.53.497c.063-.01.432.084 1.109.285.021.124.134.216.337.276.203.06.346.147.43.26.157.164.338.277.54.337.203.06.378.141.524.243.249-.044.384-.004.406.12.18.289.472.493.878.614l1.003.782.313.137c.084.113.179.288.285.525.106.238.232.407.378.51.366.255.643.558.833.908.011.062.066.1.165.115a.595.595 0 01.258.098c.033.187.085.305.159.356l.904 1.856c.033.186.116.475.249.868.133.392.253.707.359.944l.416 1.27c.011.062 0 .176-.036.342-.035.166.021.3.167.402.073.052.093.16.058.326-.035.166-.047.28-.036.342.022.124.06.246.112.364.053.119.065.277.036.474-.04.135-.023.42.054.854l.131.744c-.091.209-.13.535-.115.98.014.446-.025.772-.116.98l.213 1.21-.203-.06c.011.062.015.173.011.334a.442.442 0 01-.176.367c-.062.01-.082.078-.06.202.098.559.032 1.274-.199 2.147.011.062.005.207-.02.435a1.175 1.175 0 01-.189.561c-.04.135-.056.314-.05.536.008.223-.045.376-.159.46.106.238.068.564-.115.98-.183.416-.253.749-.21.997a.453.453 0 01-.082.35c-.077.11-.135.232-.176.367a2.098 2.098 0 00-.164.7c-.019.26-.08.463-.182.609-.102.146-.16.364-.173.654-.013.29-.07.508-.173.654.095.175.053.39-.127.646-.179.256-.258.445-.236.57.044.248-.059.394-.307.438.01.062.047.087.11.076-.019.26-.112.548-.28.865-.17.318-.231.6-.188.849.011.062-.06.202-.214.421l-.307.438-.121.406a1.05 1.05 0 00-.011.481c.021.124-.04.231-.184.32-.145.09-.206.197-.184.321l-.242.81c-.194.354-.264.687-.21.997-.018.259-.126.55-.326.873-.2.323-.283.578-.25.764-.238.106-.371.257-.4.454-.03.197-.07.332-.122.405-.153.22-.24.458-.258.718.022.124-.034.262-.167.413a4.464 4.464 0 00-.278.337l-.335.826c-.062.011-.166-.034-.312-.136a3.238 3.238 0 00-.212.709c-.05.264-.125.47-.228.616-.154.219-.328.41-.524.572a2.473 2.473 0 00-.447.463l.11.076c.021.124-.047.28-.207.468-.159.188-.259.35-.299.485-.04.135-.143.281-.307.438-.165.157-.267.303-.308.438a8.315 8.315 0 01-1.032 1.237c-.091.209-.261.335-.51.378-.692.442-1.255.701-1.69.778zm14.23-31.104l-.422-.214c.029-.197.064-.363.104-.498l.121-.405c.01.062.09.144.236.246-.052.073-.038.15.04.233a.459.459 0 01.135.216l-.214.422zm.213 1.21l-.373.065a.643.643 0 00-.027-.427 1.987 1.987 0 01-.104-.317c-.011-.062.015-.099.077-.11.062-.01.088-.047.077-.11l.093-.016.257.914zm2.136 7.203l-.532-.29.044-.295.17-.126.017.093.405.12-.104.498zm-4.544 3.68c-.168-.226-.197-.572-.087-1.04l.389.028.17-.126.11.076.033.186-.615.876zm3.275.988c-.177-.29-.235-.578-.176-.862.249-.044.41-.04.483.01l.192-.273c.077-.11.172-.207.286-.29l.005.574-.077.11c-.051.073-.142.105-.272.096-.13-.01-.215.054-.255.189.011.062.043.152.096.27.053.12-.014.195-.2.228l.016.093-.098-.145zm-1.646.069c.04-.135.14-.297.299-.485a.761.761 0 00.173-.654c.157.164.205.347.145.55-.06.203-.08.366-.058.49.055.31-.099.53-.461.657l-.098-.558zm-2.003.64l-.422-.213.395-1.029c.146.102.23.215.252.34l-.225.903zm-.868 2.169c-.106-.237-.04-.409.198-.515-.062.011-.167-.034-.313-.137l.703-1.467-.083 1.166c-.113.084-.164.253-.151.507.013.253-.105.402-.354.446zm3.62.897a.655.655 0 01-.301-.619l-.28.05c.018-.26.183-.416.494-.471-.011-.062-.053-.119-.126-.17-.073-.051-.053-.119.06-.203-.084-.113-.116-.203-.096-.27a.419.419 0 00.014-.195l.324-.345-.028.389.44.306-.352.734-.149.794zm-1.456 4.287a1.487 1.487 0 01-.471-.493l.324-.345c.062-.01.103-.05.123-.118.02-.067.061-.106.124-.117l.076-.11-.126-.17.154-.218c.077.434.225.728.444.88-.092.209-.247.236-.466.083l-.231.329.05.279zm-2.612 2.092l-.56.098-.016-.093c.289-.179.505-.409.648-.69-.011-.062.03-.1.123-.117a.322.322 0 00.217-.135c.033.187-.015.37-.143.553l-.224.319-.045.065zm-.533 1.341l-.422-.213.505-.953c.01.062-.001.176-.036.342-.035.166.047.264.244.293l-.291.531zm3.375-7.251c.048-.26.223-.47.524-.633.077.434-.103.69-.538.766l.014-.133zm4.522-7.96l.089-.066c.218-.196.284-.543.196-1.04l-.477.565.027-.389a6.17 6.17 0 01.196-.802c.1-.338.134-.6.102-.786l-.16-.355-.05-.046a.443.443 0 01-.092-.217c-.01-.062.015-.099.077-.11l.143.263c.113-.084.143-.185.09-.304a1.29 1.29 0 01-.096-.27l-.186.032c-.062.011-.12.053-.17.126-.052.073-.145.09-.28.05-.26-.019-.406-.12-.439-.307-.073-.051-.108-.157-.104-.317.004-.161.031-.278.083-.35.04-.136.023-.229-.05-.28-.073-.051-.115-.108-.126-.17.051-.073.201-.131.45-.175-.01-.062-.071-.131-.18-.208-.11-.077-.109-.157.005-.24l.154-.22c-.022-.124.027-.389.148-.794-.146-.102-.168-.226-.066-.372.103-.146.149-.25.138-.312l-.017-.093c-.124.022-.223.007-.296-.044.143-.281.192-.546.149-.794-.132-.744-.188-1.246-.17-1.505.04-.135.075-.301.105-.498a2.09 2.09 0 00-.022-.668l-.323-1.287-.368.64a2.041 2.041 0 01-.178-.735 1.494 1.494 0 00-.161-.644c-.168-.226-.29-.556-.367-.99a1.159 1.159 0 00-.167-.403l-.078-.14a.996.996 0 01-.09-.262l-.073-.419a.936.936 0 00-.167-.402c-.212-.475-.324-.743-.335-.805-.054-.31-.228-.568-.52-.772-.073-.05-.12-.139-.143-.263a1.064 1.064 0 00-.224-.728c-.168-.226-.29-.365-.362-.416-.19-.35-.28-.494-.269-.432-.076-.434-.376-.861-.899-1.28.392-.326.4-.647.023-.964a5.18 5.18 0 01-.395-.603 3.662 3.662 0 00-.269-.432.724.724 0 01.044-.296c.04-.135-.007-.222-.142-.262l-.548-.383-.253-.34a3.295 3.295 0 00-.767-.536 1.491 1.491 0 00-.626-.274c.04-.135-.022-.22-.189-.254a1.017 1.017 0 01-.359-.129c-.095-.175-.435-.467-1.02-.876l-1.876-.82-1.952-.712c-.147-.102-.25-.147-.313-.136-.186.033-.467-.014-.842-.14a3.966 3.966 0 00-.952-.216.92.92 0 00-.625-.273 2.94 2.94 0 01-.592-.088c-.063.011-.291-.012-.686-.07l-2.03-.603-.373.066c-.497.088-.892.03-1.184-.175-.22-.153-.423-.213-.61-.18l-.795-.148c-.75-.251-1.342-.339-1.777-.262a7.18 7.18 0 00-.505.137c-.274.08-.515.075-.724-.016l-1.152.01c-.355-.193-.645-.205-.872-.037-.227.168-.496.279-.807.334l-.466.082c-.187.033-.464.098-.831.195-.368.096-.665.229-.892.397-.176.095-.498.264-.969.506-.47.243-.827.578-1.073 1.005l-.06.203-.34.252a4.635 4.635 0 00-.417.361c-.205.292-.427.491-.664.597a.94.94 0 00-.278.337 3.55 3.55 0 01-.26.43c-.103.146-.303.373-.602.681-.298.309-.482.63-.551.961.073.051.12.139.142.263l-.093.016-.126-.17a2.528 2.528 0 01-.571.581c-.483.533-.734.93-.752 1.188-.03.197-.134.424-.313.68-.18.255-.29.45-.33.585l-.06.203.142.262c-.289.18-.411.393-.368.641l-.001.01-.087.581c-.256.365-.335.827-.236 1.385.003.384.011.702.024.956.013.253.03.442.052.566.076.435.157.708.24.822.012.062.026.235.044.52.018.284.106.509.263.673a.735.735 0 01.09.512.735.735 0 00.09.512c.21.09.392.219.55.383-.052.073-.061.202-.028.388l.065.373.625.273a.917.917 0 00.472.493c.208.091.386.188.532.29.33-.314.456-.688.38-1.122.343.13.54.16.592.087.05-.073.139-.12.263-.142.124-.022.212-.07.263-.143l.264-.142c.084.113.183.127.296.043a.728.728 0 01.263-.142c.147.102.253.068.319-.104.065-.172.166-.237.301-.197l.33.23a.322.322 0 00.249.052.322.322 0 01.25.052l-.363 1.215c.19.35.192.542.005.575-.216.23-.307.438-.275.624l.066.372c.066.373.073.595.022.668-.205.292-.213.613-.023.964l.126.17c-.153.218-.124.565.088 1.04.073.05.049.279-.072.684-.07.332.036.57.318.712a1.491 1.491 0 01-.494.47c.033.187.086.305.159.356.197.03.277.303.24.821-.08.27-.095.64-.044 1.112.051.47.062.805.033 1.002.095.175.11.348.043.52a1.828 1.828 0 01-.176.367c.147.102.225.184.236.246.011.062.043.152.096.27.053.12.054.215.003.288-.04.135-.003.257.112.364.115.108.147.198.096.271l-.247.236c.01.062.058.15.142.262.084.114.1.207.05.28-.052.073-.055.233-.012.481l-.01.482.174.449c.106.237.164.563.173.977.009.414.035.746.079.994.065.372.14.615.224.728l.066.372c.073.051.108.157.104.318-.004.16 0 .272.01.334l.055.854c.084.113.114.283.09.511a2.023 2.023 0 00-.003.529l.033.186c.147.102.233.23.26.386l.058.326a.837.837 0 01.159.355c.022.124.07.212.143.263.084.113.164.387.24.821l.488 2.217c.135.04.198.125.189.255-.01.13.022.22.096.27.073.052.128.186.167.403.038.217.1.382.183.496.073.05.148.293.225.728l.142.262c.095.176.227.376.395.602.168.227.274.464.318.712l.033.186c.135.04.234.15.298.331.064.181.102.302.113.364l.471.493c.095.175.236.246.422.213.136.04.178.097.127.17-.052.073-.072.14-.06.203.28.142.522.42.723.832.22.153.374.302.463.446.09.144.176.273.26.386l.05.279c.27.08.532.29.784.63.252.339.488.585.707.738l.658.46a.32.32 0 01.135.216c.016.093.055.134.117.123.271.08.49.234.659.46.208.091.485.298.83.621.346.323.705.452 1.078.386l.11.076.345.323c.48.172 1.249.356 2.31.553l.28-.05c.219.154.39.22.515.197.176-.095.443-.126.8-.093.36.033.606.07.741.11.644.014 1.028.01 1.152-.012l.467-.082a4.68 4.68 0 001.094-.337 5.078 5.078 0 011.188-.353c.311-.055.512-.187.604-.395.03-.197.235-.393.617-.588.383-.196.589-.392.618-.589.197.03.391-.053.582-.247a4.27 4.27 0 01.455-.416l-.22-.153c.125-.022.22-.119.286-.29.066-.172.13-.263.192-.274.516-.347.772-.712.769-1.095.113-.084.2-.227.26-.43.061-.202.154-.315.278-.337-.022-.124.04-.23.184-.32s.242-.17.293-.244l.336-.826a1.1 1.1 0 00.137-.312.619.619 0 01.23-.329c.165-.157.316-.391.453-.704.138-.312.258-.54.36-.687l.55-1.248c.186-.033.265-.127.238-.282-.027-.155-.015-.27.036-.342l.412-.936c.051-.073.066-.172.044-.296-.022-.124.024-.228.137-.312.33-.314.434-.812.314-1.495l-.05-.279.088-.591c.07-.332.17-.67.303-1.013.132-.343.221-.743.27-1.2a3.898 3.898 0 01-.044-.52 1.082 1.082 0 01.22-.662c.256-.365.422-.874.5-1.527.029-.197.096-.45.203-.756.106-.306.174-.558.203-.755.059-.395.094-.56.105-.499l.23-.328c-.168-.226-.14-.615.083-1.166.205-.292.28-.593.225-.904-.043-.248.032-.549.226-.903l.192-.274c.077-.11.099-.257.066-.443l-.054-.854zM201.7 63.818l.018.139c.024.355-.124.59-.446.704.01.062.09.144.236.246l-.604.394-.033-.186.198-.514c.07-.332.254-.557.554-.674l.077-.11zm.917-1.89l-.097.106c-.126.155-.242.37-.347.645-.132.343-.3.66-.506.953-.047-.632-.02-1.02.083-1.167.103-.146.181-.335.236-.569.055-.234.134-.423.237-.57.05-.072.091-.207.12-.405.03-.197.138-.312.324-.345.063-.01.077-.11.044-.295-.032-.186.048-.456.242-.81.103-.147.158-.38.165-.701.008-.321.13-.535.368-.64l.05.278c.021.124-.025.228-.138.312-.04.135-.06.299-.058.49.002.192-.054.33-.167.414.021.124-.016.274-.113.451s-.14.297-.13.359l.017.093c-.113.084-.18.256-.198.515-.018.259-.078.461-.181.607l.05.28zM242.035 30.7l-.097.037c-.186.056-.32.01-.402-.141.04-.135.078-.286.113-.452.035-.166.067-.347.096-.544.095.175.192.541.29 1.1zm-1.806 3.39c-.22-.154-.296-.317-.23-.488.066-.172.18-.336.346-.493l.34-.252c.358.577.206.987-.456 1.232zm3.137.885l-.203-.06.456-1.232c.18.288.195.558.047.808-.149.25-.248.411-.3.484zm-4.032 7.175a1.375 1.375 0 01-.3-.654c-.043-.248 0-.543.133-.886l.163-.548.109-.364c.14-.473.381-.835.722-1.087l.197 1.117-.39-.027c-.091.208-.116.612-.075 1.212.042.6-.102 1.058-.43 1.372l-.129-.135zm-27.365 7.286c-.169-.227-.197-.478-.085-.753.112-.276.162-.445.151-.507.011.062.072.228.184.496.111.268.028.523-.25.764zm31.305-5.712l.461-.657.126.17c-.102.145-.115.435-.039.87.077.434-.03.74-.318.92l-.23-1.303zm-6.065 5.963c.03-.197.1-.434.212-.71.111-.275.15-.506.118-.692l-.159-.355c-.07.332-.156.57-.258.717.01.062-.03.197-.121.405-.092.208-.022.42.208.635zm-23.637 6.663c-.332-.07-.515-.197-.548-.383.018-.26-.036-.57-.164-.931a5.673 5.673 0 01-.241-.821l.055-.778c.27.08.397.25.378.51-.018.259-.016.45.006.574.01.062.09.144.235.247.293.204.407.488.343.85-.064.364-.086.608-.064.732zm24.278-4.665c.31-.055.496-.184.557-.386.06-.203.116-.34.167-.413-.021-.125-.195-.382-.52-.772-.257.365-.324.889-.204 1.571zm-1.701 1.26c.267-.303.42-.522.46-.658.041-.135.038-.518-.01-1.15-.153.22-.382.74-.686 1.561l.11.077c.01.062.052.118.126.17zm1.31.344l.697-.41-.147-.838c-.443.398-.653.659-.631.783l.082.465zm-23.876 4.21l-.768-.536c.205-.292.389-.34.551-.145.163.195.312.313.447.353l-.23.328zm21.267 3.351l.466-.082-.148.794-.187.033-.131-.745zm-1.33 2.825l-.219-.153.242-.81c.146.102.25.148.313.137l-.335.826zm2.552-.258l.57-.58.204.06-.506.953-.268-.433zm-6.714 8.285a1.19 1.19 0 00-.515-.197l1.081-.958a.215.215 0 00-.05-.114l-.028-.019.155.023-.643 1.265zm14.146-26.675l.159.355c-.297.5-.482 1.269-.556 2.305.074.051.172.066.297.044l-.247.235c-.03.198-.105.499-.226.904-.12.405-.18.8-.176 1.182-.018.26-.106.579-.264.959-.157.38-.276.704-.357.974a24.9 24.9 0 01-.338 1.355c-.156.571-.3 1.029-.431 1.372l-.368.64c-.154.22-.214.422-.181.608.19.35.213.666.07.947l-.647.69a.643.643 0 00.027.427c.058.15.067.292.027.427.011.062-.035.166-.137.312a6.51 6.51 0 00-.802 2.54c-.03.198-.378.77-1.044 1.72l-.214.421-.658-.46c.578-.357.89-.956.934-1.795-.015-.445.09-.944.313-1.495.223-.551.38-.93.472-1.139l1.17-3.18.128-1.462c.05-.073.127-.279.228-.616.1-.338.337-.54.71-.606l.094-.016c-.12-.682-.152-1.22-.093-1.615.059-.394.284-.754.675-1.079l-.378-.509c.29-.179.466-.45.53-.813.064-.363.09-.576.08-.638l.632-2.414.57-.58zM234.23 61.15c-.04.135-.073.317-.096.545-.024.228-.04.503-.048.824-.263-.401-.387-.651-.372-.75.014-.098.186-.305.516-.619zm2.11 2.699c.304.266.34.468.107.605-.232.137-.374.242-.425.315-.015-.446.092-.752.318-.92zm-1.49-3l-.036.01a5.678 5.678 0 00-.584.291l.335-.826a.657.657 0 00.096.27.419.419 0 01.08.179c.01.062.047.087.109.076zm2.19-2.305l-.213-1.21.186-.033.614.755-.587.488zm2.386-20.284l.011-.163.044-.615.016.094.077-.11c-.022-.124-.064-.18-.126-.17l-.049-.279c.31-.055.523-.124.636-.208-.04.135.037.297.23.487.194.19.116.38-.236.57-.036.518-.238.65-.603.394zm0 0l-.06.08c-.075.095-.137.147-.187.155l.093-.016c-.091.208-.219.486-.382.835-.163.348-.222.647-.178.895.021.124-.036.342-.174.654-.137.312-.19.561-.156.748l.142.262c.095.176.129.457.101.846-.027.389-.056.682-.085.879-.425.139-.593.456-.505.953l.334.804.703-1.467c.296.587.341 1.027.136 1.32-.08.27-.22.662-.417 1.176-.198.515-.259.99-.182 1.424l.543-.192-.461.657.082.465c.055.31.221.345.5.104l.164-.7c.019-.26.105-.499.258-.718l.077-.11-.126-.169c-.066-.372-.024-.683.124-.933s.413-.569.793-.956l-.378-.509.214-.421c-.208-.092-.267-.241-.175-.45.091-.207.163-.348.214-.421l-.093.016c-.062.011.082-.078.433-.268l-.504-.679a8.5 8.5 0 00.414-.648c.123-.214.23-.425.322-.633l-.241-.821-.017-.093c.227-.168.367-.465.42-.89.054-.425.163-.716.327-.873l-.609-.18.709-.893c.091-.208.08-.366-.036-.474a.628.628 0 01-.205-.347l-.017-.093.676-1.079c-.344-.131-.538-.321-.582-.57l-.005-.574c-.022-.124.034-.262.168-.413.133-.152.22-.295.26-.43l-.285-.526c.238-.106.434-.268.588-.487l.016.093c.22.153.373.478.46.974.044.249-.055.506-.296.772a7.101 7.101 0 00-.516.62c.486-.15.726-.065.718.256.066.373.013.798-.16 1.276-.223.551-.29 1.075-.203 1.571l.049.28c.066.372.044.791-.066 1.259l-.333 1.114c-.141.472-.215.87-.223 1.19-.018.26-.085.607-.2 1.043-.116.437-.146.81-.092 1.12l.033.186c.044.248-.006.513-.148.794-.143.281-.235.49-.275.624-.183.416-.346 1.037-.49 1.862-.142.825-.274 1.44-.395 1.845l-.61 1.45c-.132.344-.274.897-.428 1.66-.154.762-.41 1.4-.77 1.91-.102.146-.117.245-.044.296.212.474.182.848-.09 1.12-.273.271-.501.616-.684 1.032-.245-.66-.215-1.402.089-2.223l-.043-1.336c-.56.099-.79.427-.692.986l.033.186c.266.784.017 1.372-.747 1.763.43.628.233 1.142-.594 1.544l-.022.963c.267-.303.57-.404.908-.304.338.1.57.14.694.118l.042.112c.054.177.02.303-.1.378-.144.09-.242.17-.294.244.011.062.054.214.13.457.074.242-.033.453-.322.632l-.318-.712-1.108-.284.028-.389-.467.083c.297-.5.412-.937.347-1.309l-.115-.651c.37-.45.662-1.06.878-1.835.217-.773.281-1.409.193-1.905-.508.026-.755.261-.74.707l-.144 1.368c-.07.332-.166.605-.288.819-.123.213-.23.424-.322.632-.314.76-.445 1.294-.39 1.604.106.237.051.471-.165.701-.216.23-.307.438-.274.624.032.186-.048.456-.242.81-.194.355-.27.656-.226.904l.05.28c-.278.24-.521.683-.728 1.327-.207.644-.45 1.087-.728 1.328-.226.168-.333.474-.318.92l-.198.514a1.363 1.363 0 00-.593.728c-.106.307-.18.528-.22.663-.091.208-.216.502-.373.881-.158.38-.339.716-.544 1.008l-2.695 3.258c-1.221-.744-2.274-1.806-3.158-3.186-.095-.175-.289-.365-.581-.569a1.646 1.646 0 01-.614-.755c-.212-.475-.634-1.232-1.266-2.272-.085-.113-.154-.325-.209-.635-.054-.31-.13-.553-.224-.728a.776.776 0 01.005-.24c.015-.1-.014-.174-.087-.225-.241-.278-.421-.662-.54-1.153a9.496 9.496 0 00-.353-1.185 14.821 14.821 0 01-.293-.572 2.951 2.951 0 01-.233-.774l-.607-3.444c-.055-.31-.119-.49-.192-.542-.263-.401-.349-.706-.257-.914.05-.073.038-.327-.038-.76l-.663-2.667c-.095-.175-.129-.457-.1-.846a4.03 4.03 0 00-.025-.955 1.872 1.872 0 00-.334-.805l-.017-.093c.205-.292.286-.562.242-.81-.01-.062-.133-.392-.367-.99-.172-.61-.076-.979.286-1.107-.022-.124-.139-.423-.35-.897a1.159 1.159 0 00-.168-.403c-.09-.144-.109-.253-.057-.326a6.054 6.054 0 01-.096-1.086 5.54 5.54 0 00-.079-.994 1.835 1.835 0 00-.076-.706 1.323 1.323 0 01-.06-.613c.03-.197.006-.417-.069-.66-.074-.243-.092-.431-.051-.566.464-.274.675-.535.63-.784-.043-.248-.101-.397-.174-.448-.073-.051-.137-.232-.192-.542-.022-.124-.008-.319.041-.583.05-.265.058-.49.025-.676a9.464 9.464 0 01-.117-1.755c.01-.673-.055-1.222-.194-1.645-.127-.361-.16-.82-.098-1.374.063-.555.098-.993.105-1.314.019-.26.029-.565.03-.917a7.266 7.266 0 00-.127-1.273l-.066-.372c-.117-.3-.173-.801-.17-1.506l-1.853-1.784-.477.564-2.485-1.001c-.87.153-1.435.22-1.695.203-.274-.464-.734-.799-1.38-1.005-.645-.206-1.165-.338-1.56-.396-.475.212-.737.546-.785 1.002a3.195 3.195 0 01-.362 1.215l1.064.58c.021.125.033.282.035.474.002.192.045.344.129.457.168.226.285.526.35.898.066.372.013.797-.16 1.275l1.032.394-.571.58c.117.3.23.584.342.852.112.268.22.521.326.758-.391.325-.535.782-.431 1.372.104.59.127 1.08.068 1.475l.812.24-.51.379.284.525c.095.175.165.387.208.635l-.027.389c-.052.073-.039.326.038.76l.175 1.004c.111.663.158 1.11.142 1.34l.415 2.901c.135.04.265.05.39.028.062-.011.13.009.203.06-.205.292-.45.719-.736 1.281.084.113.192.27.323.47.132.201.208.364.23.488l.432 2.994c-.102.146.024.316.378.51l-.11 1.554c-.048.456.06.885.323 1.287.212.474.323.742.334.804.022.124.007.223-.044.296-.048.456.06.885.323 1.286.084.114.17.418.258.915.032.186.052.39.06.613.007.222.063.452.17.69.149.485.342 1.123.577 1.913.236.79.371 1.47.408 2.039-.03.197.021.396.153.597.132.2.208.363.23.487l.318.712c.117.299.232.678.345 1.138.113.46.281.958.504 1.495l.4 1.177c.168.226.329.501.482.826.154.325.35.626.592.903.168.226.412.52.732.879.32.36.544.72.671 1.08.14.424.42.838.845 1.243.424.405.714.69.872.854a.322.322 0 00.25.052l.089-.005c.058.004.11.023.16.057.054.31.118.491.191.542l1.443 1.09c.084.112.238.261.463.445.225.184.354.37.386.556.033.186.024.315-.027.388.033.187.148.294.345.323.198.03.333.07.406.12l1.316.92c.147.102.381.253.705.452.324.199.615.307.875.325.26.018.486.122.68.312.194.19.364.336.51.438.406.12.64.175.702.164.538-.223 1.042-.088 1.514.405a.643.643 0 00.499.104c.724-.256 1.544-.336 2.458-.242.062-.01.088-.047.077-.11.248-.043.588-.119 1.017-.227.43-.107.95-.247 1.561-.419-.179-.288-.155-.516.072-.684.227-.168.371-.258.434-.269l.62-.3 1.15-1.115c.601-.586 1.034-1.222 1.298-1.908l.23-.329c.25-.044.336-.187.261-.43-.075-.242-.05-.375.075-.397.175-.095.376-.226.603-.394.227-.168.485-.341.774-.52l-.22-.154c.041-.135.076-.3.105-.498.03-.197.116-.436.258-.717.019-.26.105-.498.259-.717.172-.478.3-.933.384-1.363.085-.431.213-.886.385-1.364.242-.81.516-1.434.824-1.872.256-.365.382-.74.379-1.123l-.05-.279.352-.733-.033-.187c.183-.416.387-.9.61-1.45.315-.76.56-1.459.736-2.097.176-.64.365-1.296.566-1.971l.512-2.01c.106-.85.383-1.827.83-2.929.091-.208.138-.488.14-.84.002-.352.012-.658.03-.917l.45-.176c-.277-.846-.22-1.432.171-1.757.052-.073.053-.249.003-.528-.049-.28.014-.466.19-.561-.029-.891.15-1.69.539-2.398l-.11-.077c.018-.26.028-.66.028-1.204 0-.544.056-1.05.165-1.517l.276-2.256-.048-1.91c.124-1.11.176-1.727.154-1.85l-.159-.356c-.084-.114-.159-.356-.224-.729a8.062 8.062 0 01-.098-1.374c0-.543-.064-.996-.192-1.357a1.78 1.78 0 01-.005-.575 1.78 1.78 0 00-.005-.575l-1.21-3.049-.316-.424c-.126-.17-.2-.317-.222-.44a1.756 1.756 0 00-.57-1.052 10.114 10.114 0 00-.565-.476 32.44 32.44 0 00-1.519-.98c-.647-.397-1.45-.768-2.408-1.11l-1.03-.394-.385.547c-.146-.102-.373-.206-.68-.312-.307-.105-.514-.277-.62-.514-.779-.055-1.371-.142-1.777-.262-.406-.12-.803-.37-1.19-.75-.311.055-.682-.232-1.113-.86l-.385.548c-.051.073-.232.137-.543.192l-.006 1.056c.398.442.738.734 1.02.876.282.142.547.192.795.148.147.102.32.263.519.484.199.22.403.377.611.468.208.091.51.342.902.753.393.41.787.645 1.182.703l.016.093c.022.124.064.18.126.17.46.43.779 1.142.954 2.134l.115.652c.087.496.272.816.553.958l.047.112c.049.16.043.361-.017.602-.075.301-.102.514-.08.638l.252.34c-.226.167-.317.471-.272.911.046.44.017.733-.085.879-.051.073-.045.2.019.38s.107.333.129.457c-.008.321.076.978.25 1.971l.187-.033.434-.268.301.618c.044.249.103.398.176.45l-.812-.241c-.49-.234-.686-.071-.587.487-.008.321-.005.609.007.862.013.254.03.443.052.567l.187-.033zm8.743-24.668l.79-.427c.241.278.184.496-.173.654-.357.16-.519.332-.486.518l-.131-.745zm7.836-4.644c-.249.044-.41.04-.483-.01l-.049-.28c-.022-.124.06-.203.247-.235.062-.011.114-.084.154-.22a1.1 1.1 0 01.137-.312l1.234.455c-.175.095-.38.21-.612.347a1.933 1.933 0 01-.628.255zm-1.75.98c.336-.635.598-.969.785-1.002l.499.104c-.092.208-.272.368-.54.48a3.486 3.486 0 00-.744.418zm-1.641 1.057c.07-.332.236-.569.5-.711a5.17 5.17 0 00.565-.34l.219.153a3.474 3.474 0 00-.557.386 6.523 6.523 0 01-.727.512zm-1.196.307a2.198 2.198 0 00-.472-.492c.114-.084.326-.154.637-.208l-.165.7zm-.813 1.391c-.066-.372.057-.586.368-.64l.28-.05c-.059.394-.275.624-.648.69zm18.585 25.622a.395.395 0 00-.122.006c-.31.055-.565.067-.762.038l.537.865a3.248 3.248 0 01-.623.014c-.29-.013-.445.11-.463.37-.04.135-.156.299-.346.492-.19.194-.275.353-.253.477l.126.17-.785 1.001-.4.455.142.263-.68.504a.842.842 0 00-.357.158c-.114.084-.137.312-.072.685l-.513.09c-.28.05-.454.24-.524.572l-.23.329-4.09 4.08-.477.563a.936.936 0 00.02-.435c-.028-.155-.016-.269.035-.342.413-.2.65-.498.708-.892.059-.395.083-.623.072-.685l.307-.438c-.252-.34-.389-.57-.41-.695-.034-.186-.024-.316.027-.389.194-.354.209-.996.045-1.927l-.148-.837c-.003-.384.072-.685.225-.904l.094-.016c-.22-.153-.317-.344-.293-.572.023-.228.03-.373.019-.435.051-.073.062-.555.034-1.446l.62-.301-.46-.974-.374.065c.227-.168.39-.42.492-.758.1-.338.176-.543.228-.616l-.379-.509.222-4.741-.048-1.91c-.131-.745-.095-1.263.11-1.555.103-.146.06-.395-.13-.745-.235-.598-.247-1.396-.038-2.392-.011-.062.02-.164.09-.304.072-.14.071-.237-.002-.288-.084-.113-.159-.355-.225-.728-.098-.558-.061-1.076.111-1.554.256-.366.156-.572-.301-.62l.106-3.76-.79-1.204-1.162-1.139 1.207-.788c.578-.358 1.43-.796 2.557-1.315l1.902-.671c.543-.192.97-.315 1.28-.37l1.57-.372c.186-.033.602-.043 1.245-.028.073.05.249-.044.527-.285.303.266.71.387 1.218.361.508-.026.892-.03 1.152-.011 1.975.291 3.666.793 5.073 1.504.637.336 1.04.808 1.212 1.418.234.598.367.99.4 1.177.098.558.152 1.044.161 1.459.009.414.01.782.002 1.103.015.445-.069.972-.25 1.58l-.393 1.316c-.121.405-.204.756-.248 1.051a5.145 5.145 0 01-.126.646c-.114 1.172-.41 2.216-.89 3.132l-.259.717-.28.05-.746 1.762-.182.608-.406-.12-.78 1.577a.659.659 0 00.62-.302c.022.125.065.277.13.458.063.18.154.42.27.72-.72.638-1.158 1.067-1.311 1.286a4.107 4.107 0 01-.363.4c-.19.193-.258.445-.203.756.077.434-.16.731-.708.892l-.472-.493-.4.455c-.513.73-.932 1.444-1.258 2.14a4.46 4.46 0 00-.222.376c-.097.177-.135.327-.113.452l.212.285-.04-.012zm11.79-25.7l-.707-.74c-.223.552.013.798.708.74zm-8.694 19.957c.114-.084.32-.185.62-.302.3-.116.448-.366.445-.75-.457-.047-.742-.029-.856.055-.113.084-.183.416-.209.997zm.058 4.691c-.23-.215-.284-.43-.161-.643.122-.213.178-.351.167-.413l.45-.175c.066.372.081.64.046.807-.035.166-.202.308-.502.424zm2.255-.301c-.157-.164-.175-.353-.052-.567.123-.213.21-.357.26-.43.012.062.07.212.176.45.106.236-.022.419-.384.547zm-12.95 16.005c-.947-.28-1.561-.492-1.842-.635l1.525-1.708c1.062-.89 1.771-1.592 2.13-2.103.04-.135.174-.286.4-.454.228-.168.367-.289.418-.362.12-.405.374-.785.76-1.141s.656-.644.81-.863c.307-.438.572-.756.793-.955.221-.2.352-.366.393-.501.05-.073.05-.265-.006-.575.052-.073.17-.126.357-.159.187-.033.263-.142.23-.328l-.016-.094.632-.783-.033-.186c.01.062.047.088.11.077l.91-.832-.185-1.599.69.646c.33-.314.504-.6.522-.86.143-.28.359-.51.648-.69l.12-.405.583-1.062.63.848c.052-.073-.214.422-.796 1.484l-.181.608c-.684.12-1.114.228-1.29.323-.131.343-.093.56.115.652.209.09.423.213.642.366-.497.088-.828.306-.99.655-.163.348-.265.59-.305.725l-.593-.087.213 1.21-.526.284.159.356c-.655-.076-1.026.181-1.114.772-.03.197-.137.408-.322.633a9.602 9.602 0 00-.354.446l-.093.016.11.077c.048-.008-.066.05-.343.177l-.277.124c-.476.212-.774.52-.895.926l1.026-.181-1.263 1.566-.296-.044c-.19.737-.529 1.181-1.015 1.33-.476.213-.67.567-.583 1.063l-.597-.662c-.051.073-.021.243.09.512.111.268.017.46-.283.577.044.248-.071.413-.346.493-.274.08-.431.188-.472.323zm8.733-8.833c.051-.073.089-.223.113-.451.024-.228.129-.359.315-.392l.39.028c-.165.157-.317.295-.456.416-.139.12-.26.253-.362.4zm-.67 1.654c-.392.325-.75.292-1.075-.098l1.07-.477c-.051.073-.05.265.005.575zm-2.152 3.066c-.347-.514-.325-.934.066-1.259.052-.073.194-.082.428-.027.234.054.419.102.554.142l-1.048 1.144zm-3.994.8c.479.172.664-.053.554-.673l-.554.673zm-8.307 2.52l-.094.017-.196-1.117.888.132.143.262-.746.132.005.575zm6.495.295l.713-.318-.954-.503-.17.126.41.695zm-6.68 8.47c-.271-.08-.449-.176-.533-.29-.084-.113-.06-.34.072-.684l.46.975zm-1.756.406l-.89-.131.522-.86.368.991zm28.92 2.577c.238-.106.205-.292-.099-.558-.343-.131-.64-.175-.888-.131-.249.044-.501.248-.758.613l1.745.076zm-15.545-14.531c-.059.394-.204.66-.437.797a2.418 2.418 0 01-.815.287c.04-.135.094-.288.16-.46.066-.171.119-.325.16-.46l.932-.164zM273 40.977l-.18.165c-.345.32-.582.573-.714.76l-.107.152-.034.05-.013.017c-.062.011-.163.077-.302.198-.139.12-.313.135-.52.043.164-.156.359-.415.584-.774.225-.36.462-.562.71-.605.311-.055.503-.057.576-.006zM253.778 8.862l-.113.09a2.632 2.632 0 00-.22.208c-.107.115-.198.147-.27.096a1.94 1.94 0 00-.623.014c-.218.039-.404.167-.557.386-.103.146-.27.288-.503.425a6.354 6.354 0 00-.518.331l-.895.925.285.526c-.446.015-.912.193-1.396.534-.485.341-.788.715-.909 1.12l.11.076-.15.029c-.28.057-.443.117-.487.18-.11.467-.373.881-.79 1.243-.417.36-.734.657-.95.887-.073-.051-.234-.055-.482-.011-.089.591-.416 1.097-.983 1.516-.051.073-.244.251-.58.534-.334.283-.463.642-.387 1.076l.033.186-.263.143-1.004.849a54.208 54.208 0 01-.61 1.45c-.183.417-.346.765-.489 1.046l-.373.066a.643.643 0 00.027.427c.059.15.068.292.027.427l-.796 1.484c.234.598.356.929.367.99.077.435.168.77.274 1.008.095.175.2.412.318.712.117.299.245.66.383 1.083.066.373.254.531.565.477.373-.066.764.153 1.174.656.398.442.884.836 1.458 1.182.293.205.657.269 1.092.192.622-.11.966-.522 1.032-1.238l1.207-.788a1.55 1.55 0 00-.112-.364.532.532 0 01-.019-.38c.07-.333.317-.84.741-1.523.425-.683.667-1.221.725-1.615-.01-.062.038-.15.146-.266.108-.115.187-.209.239-.282.237-.106.715-.67 1.432-1.692.253-.748.859-1.494 1.817-2.24l-.066 1.26.043 1.336c.033.186.058.421.076.706.019.285-.024.5-.126.646-.154.219-.15.426.013.621.163.196.224.36.184.496a.532.532 0 00.019.38c.053.119.06.246.019.38-.224.552-.231 1.417-.023 2.596l.273 1.007c.055.31.011.606-.132.887a.32.32 0 00-.052.249c.016.093.056.134.118.123.208.091.313.233.315.424.002.192.008.319.02.38-.144.282-.192.642-.147 1.082.046.44.06.79.04 1.048.045.249.08.626.104 1.134.026.507.035.921.027 1.242l-.12.406a1.05 1.05 0 00-.012.481l.04.074.071.132.174.32c-.051.073-.17.222-.354.446-.185.225-.255.46-.212.71.033.185.086.304.16.355l.093-.017-.005.007-.072.103c.354 1.28.275 2.286-.238 3.017-.05.073.013.253.192.541.314.329.301.619-.039.87.022.125.061.438.118.94.056.502-.07.972-.377 1.41l.05.279c.163.93.236 1.525.218 1.784.044.249.034.378-.028.39-.175.094-.26.253-.252.476.007.222.016.364.027.427.022.124.013.349-.025.676-.039.326-.036.614.008.862.065.372.135.584.208.635.033.186-.044.296-.23.328-.217.23-.272.464-.166.701.084.113.119.22.104.318a.776.776 0 00-.005.24l-.023.964-.34.252c-.033.902-.055 1.689-.064 2.362-.01.674-.007 1.233.007 1.678.014.446-.047 1.096-.185 1.952-.137.856-.199 1.507-.184 1.952l.778.054c.14.424.215.762.228 1.016.012.253-.12.5-.398.742l-.318-.712c-.3 1.205-.444 2.03-.43 2.475l1.032.394-.68.503c-.133.344-.052.617.24.822.428.244.647.397.658.46l-.181.607-.093.017-.582-.57-.05 2.984.466-.082a4.62 4.62 0 01-.198.514c-.092.208-.126.375-.104.499.065.372.25.691.553.958-.475.211-.556.481-.242.81l-.088.591c.157.164.33.502.515 1.013.187.51.452.832.795.963.063-.01.086.033.072.131-.015.099.014.174.087.225l.252.34c.084.112.205.251.362.415.22.154.34.292.362.416.307.65.965 1.11 1.974 1.38.147.102.25.147.313.136l-.12.405c-.041.135-.076.301-.105.499l1.728-.017.027-.389c.198.03.332-.027.404-.167.071-.14.132-.247.184-.32.04-.135.136-.408.288-.819.152-.41.195-.802.13-1.174-.044-.248-.103-.398-.176-.45l-.016-.092-.093.016c.007-.32-.021-.844-.085-1.568-.063-.725-.06-1.253.01-1.585.182-.416-.002-.735-.554-.958-.073-.051-.12-.139-.143-.263l.62-.301-.712-1.314.247-.235.406.12-.033-.186-.296-.044c-.19-.35-.29-.556-.302-.618l.527-.285-.378-.51.4-.454-.24-.82c-.022-.125-.002-.192.06-.203.154-.22.211-.437.173-.655l-.074-.418c.03-.197.045-.472.047-.824.002-.352-.01-.782-.035-1.29l.331-3.033-.104-1.133-.093.017c-.124.022-.192.002-.203-.06-.062.01-.24-.086-.532-.29.457.047.682-.04.675-.263-.007-.223.01-.402.05-.537.102-.146.142-.377.118-.693a3.595 3.595 0 01.009-.769l.466-.082.082.465 1.327.438 1.032.394c.343.131.661.3.954.503.146.103.446.258.9.466.453.207 1.153.452 2.1.733l1.42.42 2.132.633c.608.18 1.141.294 1.599.341.416.183.825.319 1.225.408.4.09.768.169 1.1.238.52.036.841.043.966.022.322.007.74.013 1.253.018.514.006.927-.019 1.237-.074.063-.01.297.044.703.164.438.307.782.438 1.03.394.187-.033.418-.361.692-.985.136.04.421.021.856-.055.125-.022.448-.095.971-.22.523-.124.999-.064 1.427.18.084.114.27.081.56-.098.175-.095.426-.123.754-.085.327.038.615.036.864-.008.062-.011.268-.112.62-.302l.466-.082c.366.256.704.356 1.015.301.062-.01.33-.122.806-.334a.842.842 0 00.357-.159l.115-.074a.796.796 0 01.242-.085c.135.04.42.022.856-.055.31-.055.725-.16 1.242-.315.518-.155.969-.235 1.353-.238l-.767-2.168 1.487-.838-.4-1.177-.735-.35 1.175-.975a5.17 5.17 0 01.565-.34c.263-.142.368-.368.313-.678l-.033-.187c-.497.088-.845.117-1.042.088l.147.838-.86-.52-3.15 1.227c-.176.095-.668.214-1.476.356l-2.288.116c-.062.01-.269.111-.62.301.128.361.347.515.658.46l2.239-.395c.373-.066.857-.135 1.454-.208.596-.073 1.064-.236 1.404-.488.351-.19.554-.13.609.18.073.052.08.274.022.668l1.267.64c-.465.275-.729.417-.79.428-.187.033-.483-.01-.89-.131-.54-.16-.914-.095-1.119.197-.05.073-.243.075-.576.006l.462-.657c-.582-.026-1.052.217-1.41.728-.304-.266-.603-.326-.898-.178-.294.148-.535.239-.721.272l-.131-.745a1.83 1.83 0 01-.884.444c-.373.065-.861.024-1.464-.126a.535.535 0 00-.382.02 1.56 1.56 0 01-.365.112l-1.947-.137c.216-.23.448-.367.697-.41.124-.022.285-.019.483.01.197.03.358.033.482.011l.886-.156c.342-.06.59-.2.744-.419l-.22-.153-2.94.23-.373.066c-.812-.24-1.59-.295-2.337-.164a6.33 6.33 0 00-.598.154c-.274.08-.593.184-.955.312a4.982 4.982 0 00-1.343-.53c-.136-.04-.32-.088-.554-.143-.234-.054-.414-.07-.538-.049-.249.044-.399.102-.45.175a1.487 1.487 0 00-.472-.492c-.486.15-1.036.119-1.65-.093-.418-.182-.938-.314-1.561-.396-.624-.082-1.07-.164-1.341-.244a15.05 15.05 0 01-1.1-.238 2.243 2.243 0 01-1.308-.873c.987.146 1.467-.226 1.438-1.117-.011-.062.068-.156.238-.282l.426-.315c.63-.43 1.01-.817 1.141-1.16l.538-.767c.238-.106.34-.252.308-.438-.004-.383.253-.748.769-1.095l.367-.64.494-.472c.956-1.128 1.407-1.655 1.356-1.582l1.307-1.862c.091-.208.355-.622.79-1.243.436-.62.599-1.24.49-1.861.27.08.509.07.716-.03.206-.101.319-.28.337-.54.059-.394.198-.786.418-1.177.22-.39.38-.659.483-.805.04-.135.124-.294.253-.476.128-.183.18-.336.159-.46l-.017-.093.769-1.095c.256-.365.498-.904.725-1.615.227-.712.476-1.572.747-2.58.052-.072.118-.244.198-.514.08-.27.178-.447.291-.531.586-.679.818-1.36.698-2.042l.12-.405c.092-.208.214-.518.366-.928.152-.411.41-.68.771-.808l-.669.022.335-.827.077-.11-.126-.169.242-.81.73-.225c-.066-.372.002-.896.203-1.571.202-.675.239-1.194.11-1.555-.032-.186-.01-.43.064-.73.075-.302.128-.551.157-.748.044-.84-.005-1.663-.147-2.47-.131-.744-.244-1.203-.34-1.379-.076-.434-.218-.697-.427-.788-.292-.204-.46-.43-.504-.679-.033-.186.048-.456.242-.81-.344-.131-.579-.282-.705-.451-.126-.17-.259-.467-.397-.89l-1.141-.47c.022.124.122.33.301.618.18.288.285.526.318.712.044.248-.042.487-.258.717-.044-.248-.102-.398-.175-.449a6.424 6.424 0 01-1.168-1.713c-.61-.916-1.182-1.615-1.716-2.097-.073-.05-.132-.2-.175-.448.248-.044.398-.103.45-.176l-.33-.23c-.292-.204-.803-.466-1.532-.785-.73-.319-1.257-.674-1.583-1.064.011.062-.093.016-.312-.137a9.986 9.986 0 00-1.04-.44 8.567 8.567 0 01-1.368-.67c-.512-.358-1.119-.62-1.82-.783a22.517 22.517 0 00-1.35-.29c-.136-.04-.247-.037-.335.01-.088.048-.2.052-.335.012-.376-.317-.666-.506-.869-.566-.203-.06-.49-.058-.864.008l-.093.016c-.26-.018-.55-.03-.872-.038-.322-.007-.7.028-1.136.105-.31.054-.642.177-.993.367l-.187.032c-.343-.13-.608-.18-.795-.147-.435.077-.849.277-1.24.602l-1.437-.514-1.114.772c-.146-.102-.25-.147-.313-.137-.365-.255-.592-.359-.68-.311-.088.047-.156.299-.203.755l-.324.345-.784-.63c-.619.494-1.145.778-1.58.855l-.483-.01-.34.251.065.372-.483-.01c-.124.022-.212.069-.263.142l-.445.75.653-.115z" fill="#B48361" fill-rule="nonzero"/></g></svg>