<?xml version="1.0" encoding="UTF-8"?>
<svg id="Layer_1" xmlns="http://www.w3.org/2000/svg" xmlns:xlink="http://www.w3.org/1999/xlink" viewBox="0 0 383.56 76.58">
  <defs>
    <style>
      .cls-1, .cls-2 {
        fill: none;
      }

      .cls-3 {
        fill: #8dd1c1;
      }

      .cls-2 {
        stroke: #b48361;
        stroke-miterlimit: 10;
        stroke-width: 2px;
      }

      .cls-4 {
        fill: #008783;
      }

      .cls-5 {
        fill: #b48361;
      }

      .cls-6 {
        clip-path: url(#clippath);
      }
    </style>
    <clipPath id="clippath">
      <rect class="cls-1" width="383.56" height="76.58"/>
    </clipPath>
  </defs>
  <g class="cls-6">
    <path class="cls-4" d="M98.07,42.11c5.66,0,6.62,2.99,6.62,5.1s-1.38,3.93-3.44,4.61l3.48,8.49h-2.13l-3.3-8.19h-3.62v8.19h-1.92v-18.19h4.3ZM95.68,50.48h2.57c3.76,0,4.51-1.66,4.51-3.34,0-2.5-1.57-3.39-4.16-3.39h-2.92v6.73Z"/>
    <polygon class="cls-4" points="117.19 43.74 109.24 43.74 109.24 49.94 114.93 49.94 114.93 51.58 109.24 51.58 109.24 58.66 117.73 58.66 117.73 60.3 107.33 60.3 107.33 42.11 117.19 42.11 117.19 43.74"/>
    <path class="cls-4" d="M130.01,47.02c-.61-2.03-1.45-3.72-3.79-3.72-1.66,0-3.2,1.33-3.2,3.11,0,4.54,8.86,2.76,8.86,9.12,0,3.18-2.36,5.14-5.43,5.14-3.25,0-5.57-1.99-6.2-5.14l1.85-.44c.44,2.15,2.08,4.02,4.37,4.02,1.87,0,3.48-1.43,3.48-3.37,0-5.05-8.86-2.95-8.86-9.05,0-2.99,2.34-4.96,5.24-4.96s4.72,2.13,5.4,4.75l-1.73.54Z"/>
    <path class="cls-4" d="M147.45,51.2c0,5.99-2.81,9.47-6.6,9.47s-6.59-3.48-6.59-9.47,2.81-9.47,6.59-9.47,6.6,3.48,6.6,9.47M136.18,51.2c0,5.52,2.15,7.9,4.68,7.9s4.68-2.38,4.68-7.9-2.15-7.9-4.68-7.9-4.68,2.38-4.68,7.9"/>
    <path class="cls-4" d="M161.64,54.6c0,4.89-3.2,6.08-5.78,6.08s-5.78-1.19-5.78-6.08v-12.49h1.92v11.16c0,2.83.21,5.59,3.86,5.59s3.86-2.76,3.86-5.59v-11.16h1.92v12.49Z"/>
    <path class="cls-4" d="M168.98,42.11c5.66,0,6.62,2.99,6.62,5.1s-1.38,3.93-3.44,4.61l3.48,8.49h-2.13l-3.3-8.19h-3.62v8.19h-1.92v-18.19h4.3ZM166.59,50.48h2.57c3.76,0,4.51-1.66,4.51-3.34,0-2.5-1.57-3.39-4.16-3.39h-2.92v6.73Z"/>
    <path class="cls-4" d="M188.36,47.63c-.49-2.1-1.43-4.33-3.93-4.33s-4.68,2.38-4.68,7.9,2.15,7.91,4.68,7.91c2.39,0,3.49-2.17,3.93-4.33l1.78.47c-.51,2.99-2.43,5.43-5.71,5.43-3.79,0-6.59-3.48-6.59-9.47s2.81-9.47,6.59-9.47c3.23,0,5.1,2.39,5.64,5.47l-1.71.42Z"/>
    <polygon class="cls-4" points="202.88 43.74 194.93 43.74 194.93 49.94 200.61 49.94 200.61 51.58 194.93 51.58 194.93 58.66 203.42 58.66 203.42 60.3 193.01 60.3 193.01 42.11 202.88 42.11 202.88 43.74"/>
    <path class="cls-4" d="M222.92,47.63c-.49-2.1-1.43-4.33-3.93-4.33s-4.68,2.38-4.68,7.9,2.15,7.91,4.68,7.91c2.39,0,3.49-2.17,3.93-4.33l1.78.47c-.51,2.99-2.43,5.43-5.71,5.43-3.79,0-6.59-3.48-6.59-9.47s2.81-9.47,6.59-9.47c3.23,0,5.1,2.39,5.64,5.47l-1.71.42Z"/>
    <path class="cls-4" d="M240.36,51.2c0,5.99-2.81,9.47-6.6,9.47s-6.59-3.48-6.59-9.47,2.81-9.47,6.59-9.47,6.6,3.48,6.6,9.47M229.09,51.2c0,5.52,2.15,7.9,4.68,7.9s4.68-2.38,4.68-7.9-2.15-7.9-4.68-7.9-4.68,2.38-4.68,7.9"/>
    <polygon class="cls-4" points="245.01 58.66 252.78 58.66 252.78 60.3 243.09 60.3 243.09 42.11 245.01 42.11 245.01 58.66"/>
    <polygon class="cls-4" points="257.1 58.66 264.86 58.66 264.86 60.3 255.18 60.3 255.18 42.11 257.1 42.11 257.1 58.66"/>
    <path class="cls-4" d="M278.89,60.3h-1.96l-1.66-5.8h-5.92l-1.57,5.8h-1.96l5.12-18.19h2.71l5.24,18.19ZM272.27,43.32h-.05l-2.39,9.54h4.98l-2.55-9.54Z"/>
    <path class="cls-4" d="M280.57,60.3v-18.19h5c4.65,0,5.87,2.64,5.87,4.68s-1.12,3.46-3.02,3.93c2.17.66,3.44,2.2,3.44,4.51,0,2.15-.94,5.07-6.01,5.07h-5.28ZM284.2,49.94c2.34,0,5.33.05,5.33-3.13s-2.83-3.06-5.19-3.06h-1.85v6.2h1.71ZM282.49,58.66h2.27c4.42,0,5.19-1.33,5.19-3.32,0-2.18-1.01-3.77-5-3.77h-2.46v7.09Z"/>
    <path class="cls-4" d="M307.44,51.2c0,5.99-2.81,9.47-6.6,9.47s-6.59-3.48-6.59-9.47,2.81-9.47,6.59-9.47,6.6,3.48,6.6,9.47M296.17,51.2c0,5.52,2.15,7.9,4.68,7.9s4.68-2.38,4.68-7.9-2.15-7.9-4.68-7.9-4.68,2.38-4.68,7.9"/>
    <path class="cls-4" d="M314.47,42.11c5.66,0,6.62,2.99,6.62,5.1s-1.38,3.93-3.44,4.61l3.48,8.49h-2.13l-3.3-8.19h-3.62v8.19h-1.92v-18.19h4.3ZM312.09,50.48h2.57c3.77,0,4.51-1.66,4.51-3.34,0-2.5-1.57-3.39-4.16-3.39h-2.92v6.73Z"/>
    <path class="cls-4" d="M335.35,60.3h-1.97l-1.66-5.8h-5.92l-1.57,5.8h-1.96l5.12-18.19h2.71l5.24,18.19ZM328.74,43.32h-.05l-2.39,9.54h4.98l-2.55-9.54Z"/>
    <polygon class="cls-4" points="346.37 43.74 341.48 43.74 341.48 60.3 339.56 60.3 339.56 43.74 334.68 43.74 334.68 42.11 346.37 42.11 346.37 43.74"/>
    <rect class="cls-4" x="348.42" y="42.11" width="1.92" height="18.19"/>
    <polygon class="cls-4" points="358.97 60.3 357.21 60.3 352.02 42.11 353.99 42.11 358.08 56.91 358.13 56.91 362.47 42.11 364.35 42.11 358.97 60.3"/>
    <polygon class="cls-4" points="375.9 43.74 367.95 43.74 367.95 49.94 373.63 49.94 373.63 51.58 367.95 51.58 367.95 58.66 376.43 58.66 376.43 60.3 366.03 60.3 366.03 42.11 375.9 42.11 375.9 43.74"/>
    <polygon class="cls-5" points="107.7 34.32 105.83 34.32 102.74 19.45 102.7 19.45 99.45 34.32 97.58 34.32 93.77 16.13 95.59 16.13 98.58 30.81 98.63 30.81 101.9 16.13 103.7 16.13 106.81 30.81 106.86 30.81 110.06 16.13 111.87 16.13 107.7 34.32"/>
    <polygon class="cls-2" points="107.7 34.32 105.83 34.32 102.74 19.45 102.7 19.45 99.45 34.32 97.58 34.32 93.77 16.13 95.59 16.13 98.58 30.81 98.63 30.81 101.9 16.13 103.7 16.13 106.81 30.81 106.86 30.81 110.06 16.13 111.87 16.13 107.7 34.32"/>
    <path class="cls-5" d="M127.15,25.22c0,5.99-2.81,9.47-6.59,9.47s-6.6-3.48-6.6-9.47,2.81-9.47,6.6-9.47,6.59,3.48,6.59,9.47M115.88,25.22c0,5.52,2.15,7.9,4.68,7.9s4.68-2.38,4.68-7.9-2.15-7.9-4.68-7.9-4.68,2.38-4.68,7.9"/>
    <path class="cls-2" d="M127.15,25.22c0,5.99-2.81,9.47-6.59,9.47s-6.6-3.48-6.6-9.47,2.81-9.47,6.6-9.47,6.59,3.48,6.59,9.47ZM115.88,25.22c0,5.52,2.15,7.9,4.68,7.9s4.68-2.38,4.68-7.9-2.15-7.9-4.68-7.9-4.68,2.38-4.68,7.9Z"/>
    <path class="cls-5" d="M143.5,25.22c0,5.99-2.81,9.47-6.6,9.47s-6.59-3.48-6.59-9.47,2.81-9.47,6.59-9.47,6.6,3.48,6.6,9.47M132.23,25.22c0,5.52,2.15,7.9,4.68,7.9s4.68-2.38,4.68-7.9-2.15-7.9-4.68-7.9-4.68,2.38-4.68,7.9"/>
    <path class="cls-2" d="M143.5,25.22c0,5.99-2.81,9.47-6.6,9.47s-6.59-3.48-6.59-9.47,2.81-9.47,6.59-9.47,6.6,3.48,6.6,9.47ZM132.23,25.22c0,5.52,2.15,7.9,4.68,7.9s4.68-2.38,4.68-7.9-2.15-7.9-4.68-7.9-4.68,2.38-4.68,7.9Z"/>
    <path class="cls-5" d="M151.54,16.13c5.28,0,7.67,3.81,7.67,9,0,5.8-2.39,9.19-8.16,9.19h-4v-18.19h4.49ZM148.97,32.68h1.8c4.54,0,6.52-2.34,6.52-7.62,0-4.65-1.87-7.3-5.64-7.3h-2.69v14.92Z"/>
    <path class="cls-2" d="M151.54,16.13c5.28,0,7.67,3.81,7.67,9,0,5.8-2.39,9.19-8.16,9.19h-4v-18.19h4.49ZM148.97,32.68h1.8c4.54,0,6.52-2.34,6.52-7.62,0-4.65-1.87-7.3-5.64-7.3h-2.69v14.92Z"/>
    <rect class="cls-5" x="170.57" y="16.13" width="1.92" height="18.19"/>
    <rect class="cls-2" x="170.57" y="16.13" width="1.92" height="18.19"/>
    <polygon class="cls-5" points="178.35 34.32 176.44 34.32 176.44 16.13 179.48 16.13 186.73 30.46 186.77 30.46 186.77 16.13 188.69 16.13 188.69 34.32 186.77 34.32 178.4 17.79 178.35 17.79 178.35 34.32"/>
    <polygon class="cls-2" points="178.35 34.32 176.44 34.32 176.44 16.13 179.48 16.13 186.73 30.46 186.77 30.46 186.77 16.13 188.69 16.13 188.69 34.32 186.77 34.32 178.4 17.79 178.35 17.79 178.35 34.32"/>
    <path class="cls-5" d="M197.13,16.13c5.28,0,7.67,3.81,7.67,9,0,5.8-2.39,9.19-8.16,9.19h-4v-18.19h4.49ZM194.56,32.68h1.8c4.54,0,6.52-2.34,6.52-7.62,0-4.65-1.87-7.3-5.64-7.3h-2.69v14.92Z"/>
    <path class="cls-2" d="M197.13,16.13c5.28,0,7.67,3.81,7.67,9,0,5.8-2.39,9.19-8.16,9.19h-4v-18.19h4.49ZM194.56,32.68h1.8c4.54,0,6.52-2.34,6.52-7.62,0-4.65-1.87-7.3-5.64-7.3h-2.69v14.92Z"/>
    <path class="cls-5" d="M219.83,28.61c0,4.89-3.2,6.08-5.78,6.08s-5.78-1.19-5.78-6.08v-12.49h1.92v11.15c0,2.83.21,5.59,3.86,5.59s3.86-2.76,3.86-5.59v-11.15h1.92v12.49Z"/>
    <path class="cls-2" d="M219.83,28.61c0,4.89-3.2,6.08-5.78,6.08s-5.78-1.19-5.78-6.08v-12.49h1.92v11.15c0,2.83.21,5.59,3.86,5.59s3.86-2.76,3.86-5.59v-11.15h1.92v12.49Z"/>
    <path class="cls-5" d="M233.09,21.04c-.61-2.03-1.45-3.72-3.79-3.72-1.66,0-3.2,1.33-3.2,3.11,0,4.54,8.86,2.76,8.86,9.12,0,3.18-2.36,5.14-5.43,5.14-3.25,0-5.57-1.99-6.2-5.14l1.85-.44c.44,2.15,2.08,4.02,4.37,4.02,1.87,0,3.49-1.43,3.49-3.37,0-5.05-8.86-2.95-8.86-9.05,0-2.99,2.34-4.96,5.24-4.96s4.72,2.13,5.4,4.75l-1.73.54Z"/>
    <path class="cls-2" d="M233.09,21.04c-.61-2.03-1.45-3.72-3.79-3.72-1.66,0-3.2,1.33-3.2,3.11,0,4.54,8.86,2.76,8.86,9.12,0,3.18-2.36,5.14-5.43,5.14-3.25,0-5.57-1.99-6.2-5.14l1.85-.44c.44,2.15,2.08,4.02,4.37,4.02,1.87,0,3.49-1.43,3.49-3.37,0-5.05-8.86-2.95-8.86-9.05,0-2.99,2.34-4.96,5.24-4.96s4.72,2.13,5.4,4.75l-1.73.54Z"/>
    <polygon class="cls-5" points="249.17 17.76 244.29 17.76 244.29 34.32 242.37 34.32 242.37 17.76 237.48 17.76 237.48 16.13 249.17 16.13 249.17 17.76"/>
    <polygon class="cls-2" points="249.17 17.76 244.29 17.76 244.29 34.32 242.37 34.32 242.37 17.76 237.48 17.76 237.48 16.13 249.17 16.13 249.17 17.76"/>
    <path class="cls-5" d="M256.35,16.13c5.66,0,6.62,2.99,6.62,5.1s-1.38,3.93-3.44,4.61l3.48,8.49h-2.13l-3.3-8.18h-3.62v8.18h-1.92v-18.19h4.3ZM253.97,24.5h2.57c3.77,0,4.51-1.66,4.51-3.34,0-2.5-1.57-3.39-4.16-3.39h-2.92v6.74Z"/>
    <path class="cls-2" d="M256.35,16.13c5.66,0,6.62,2.99,6.62,5.1s-1.38,3.93-3.44,4.61l3.48,8.49h-2.13l-3.3-8.18h-3.62v8.18h-1.92v-18.19h4.3ZM253.97,24.5h2.57c3.77,0,4.51-1.66,4.51-3.34,0-2.5-1.57-3.39-4.16-3.39h-2.92v6.74Z"/>
    <polygon class="cls-5" points="271.97 26.7 271.97 34.32 270.05 34.32 270.05 26.7 264.63 16.13 266.64 16.13 271.03 24.85 271.08 24.85 275.22 16.13 277.16 16.13 271.97 26.7"/>
    <polygon class="cls-2" points="271.97 26.7 271.97 34.32 270.05 34.32 270.05 26.7 264.63 16.13 266.64 16.13 271.03 24.85 271.08 24.85 275.22 16.13 277.16 16.13 271.97 26.7"/>
    <path class="cls-3" d="M8.98,16.9v35.43c0,1.21.64,2.34,1.69,2.95l30.73,18.15c1.33.78,3-.17,3-1.71v-36.78c0-.64-.33-1.24-.87-1.58l-5.39-3.43c-1.2-.77-2.77.1-2.77,1.52v19.12c0,1.47-1.59,2.39-2.86,1.66-.6-.34-.96-.97-.96-1.66v-10.81c0-1-.53-1.92-1.4-2.43l-5.75-3.33c-1.02-.59-2.29.14-2.29,1.32v7.27c0,1.45-1.6,2.34-2.83,1.56-.54-.34-.86-.93-.86-1.56v-22.97c0-.81-.43-1.57-1.13-1.98l-4.72-2.8c-1.58-.94-3.59.2-3.59,2.04"/>
    <path class="cls-5" d="M30.61,25.43l-6.14-3.76c-1.03-.63-2.37.1-2.39,1.31l-.09,5.15c-.01.86.44,1.67,1.19,2.1l6.42,3.7c1.05.6,2.35-.15,2.35-1.36v-4.73c0-.98-.51-1.89-1.34-2.4"/>
    <path class="cls-5" d="M16.16,12.17l18.58-7.08s1.72-.61,4.59-1.4c2.98-.81,6.67-1.8,10.12,0,3.14,1.64,3.14,6.43,3.14,6.43l21.07,2.95c.43.06.54.64.16.85l-7.11,3.92c-.72.4-1.57.51-2.38.31l-16.04-3.98c-.22-.06-.46-.03-.67.08l-3.37,1.81c-.68.37-.64,1.35.05,1.67l11.64,5.32c.42.19.45.79.05,1.02l-8.74,5.07c-.85.5-1.9.51-2.77.03l-28.43-15.71c-.53-.29-.48-1.08.09-1.29M44.87,10.57s2.8-1.27.75-3.05c-1.61-1.4-4.24,0-4.24,0l-10.25,3.83,6.15,2.87,7.59-3.65Z"/>
    <path class="cls-4" d="M47.67,71.75v-36.25c0-.9.47-1.73,1.25-2.19l27.7-16.48c1.22-.73,2.77.15,2.77,1.58v7.62c0,1.07-.57,2.06-1.5,2.6l-18.42,10.76c-.71.41-1.14,1.17-1.14,1.99v14.03c0,.71.77,1.15,1.38.78l18.58-11.09c.85-.51,1.92.1,1.92,1.09v8.25c0,1.17-.62,2.25-1.63,2.83l-27.92,16.19c-1.33.77-2.99-.19-2.99-1.72"/>
  </g>
</svg>