<?xml version="1.0" encoding="UTF-8"?>
<svg width="40px" height="20px" viewBox="0 0 40 20" version="1.1" xmlns="http://www.w3.org/2000/svg" xmlns:xlink="http://www.w3.org/1999/xlink">
    <title>5</title>
    <g id="Symbols" stroke="none" stroke-width="1" fill="none" fill-rule="evenodd">
        <g id="Glyphs/White/hand-plane" transform="translate(0.000000, -10.000000)" fill="#FFFFFF" fill-rule="nonzero">
            <g id="5" transform="translate(0.000000, 10.000000)">
                <path d="M35.3412764,17.1324168 C35.8444018,17.1516022 36.2731521,17.2117166 36.6531524,17.315318 L36.5462773,17.7239678 C36.196277,17.6286801 35.7969017,17.5730423 35.3256514,17.5551359 L35.3412764,17.1324168 Z M33.2693998,17.1931707 C30.799398,17.3421776 27.7262707,17.5263578 24.143768,15.3417761 C23.4062675,14.8921974 22.735017,14.4605251 22.0856415,14.0422825 C21.5087661,13.6713641 20.9675157,13.3228287 20.4518903,13.0094666 L20.2400151,13.3733503 C20.7531405,13.6854334 21.2912659,14.0314108 21.8650163,14.4004107 C22.5162668,14.8192927 23.1900173,15.2528836 23.9318929,15.7050204 C26.6531449,17.3639211 29.0756467,17.6977477 31.1737733,17.6977477 C31.9218988,17.6977477 32.6293994,17.6549002 33.2937749,17.6152503 L33.7219002,17.5896697 L33.6994002,17.1675901 L33.2693998,17.1931707 Z M39.0881542,19.9488388 L39.0056541,19.9168631 C38.9362791,19.9693033 38.851904,20 38.7619039,20 L1.54000115,20 C0.690000515,19.9948839 0,19.2850227 0,18.4172015 L0,16.4411016 C0,16.327268 0.0450000336,16.2185505 0.124375093,16.1386112 C0.203750152,16.0586719 0.328125245,16.0183825 0.422500316,16.017743 C0.453750339,16.0196615 1.72437629,16.0382074 3.4806276,15.779204 L3.4806276,15.2368957 C3.4806276,15.1358524 3.51625263,15.0380067 3.58062767,14.9612649 C3.6168777,14.917778 4.46375333,13.8574628 4.07750305,12.0981583 C3.24500242,11.4413769 2.75250206,10.4239093 2.75250206,9.34568777 C2.75250206,7.42842318 4.27687819,5.86864722 6.15062959,5.86864722 C8.02438099,5.86864722 9.54875713,7.42842318 9.54875713,9.34568777 C9.54875713,10.4469318 9.04188175,11.4752712 8.18500611,12.1307736 C7.97375596,13.1258582 8.15563109,13.8971127 8.37875626,14.411922 C9.61750718,13.8574628 10.8087581,13.1130679 11.7868838,12.1122277 C14.5731359,9.26063234 16.6237624,9.06174331 18.9362641,10.0517118 L20.5562654,8.59553722 L19.9918899,8.04107811 L19.1500143,8.81872779 L18.5956389,8.19072451 L20.9206406,6.04323469 L21.475016,6.67123797 L20.6075154,7.47254968 L21.1800158,8.03532248 L24.166893,5.35064044 L24.7131435,5.98695741 L23.4368925,7.13424649 L22.2050166,11.9126991 C22.3381417,11.9983941 22.4725168,12.0847285 22.6093919,12.172342 C23.2581424,12.5893055 23.9287679,13.0209778 24.6637684,13.4692775 C25.8162693,14.172104 26.9150201,14.6223222 27.9593959,14.9094643 C28.6106464,14.7630154 30.3356477,14.1740225 31.0856482,11.9664184 C31.5562736,10.5825089 30.3956477,9.82340513 28.4281462,8.73750944 C26.72877,7.79934161 24.8031435,6.73646845 25.5768941,4.73990406 C26.4162697,2.57450783 30.1325225,0.998743999 33.1018997,0.0580181117 C33.6087751,-0.102500038 34.1400255,0.0765640333 34.4556507,0.514631493 C34.769401,0.950140894 34.779401,1.51930883 34.4812758,1.96505047 C33.6819002,3.15774509 33.5950251,4.37410174 34.2219006,5.58022616 C34.4019007,5.92620353 34.9181511,6.3911306 35.5162765,6.92960184 C37.8612783,9.03872079 41.7869062,12.5720386 39.0881542,19.9488388 Z M29.456272,15.2215474 C31.0087732,15.447296 32.4193992,15.3647986 33.6719001,15.2893359 C34.9819011,15.2106756 36.110652,15.1428871 37.1200277,15.4178783 C38.0275284,15.6653705 38.6725289,16.1501225 39.0387792,16.856786 C39.7625297,11.8826419 36.8325275,9.24016787 34.9694011,7.56336075 C34.2837756,6.94622922 33.7419002,6.45827962 33.491275,5.97672518 C32.7187744,4.4911329 32.8250245,2.93775208 33.7981502,1.48541456 C33.9450254,1.26606108 33.8281503,1.07100914 33.7887752,1.01601089 C33.7487752,0.960373127 33.5969001,0.785785658 33.3456499,0.865085461 C29.392522,2.11725493 26.9062701,3.60412623 26.3456447,5.05070812 C25.8768943,6.26066963 26.9681451,6.96925174 28.8206465,7.99183549 C30.5931478,8.97029274 32.6025243,10.0785714 31.8668988,12.2439677 C31.3187734,13.8555443 30.3231476,14.7380744 29.456272,15.2215474 Z M19.7556398,10.4411762 C20.3031402,10.7276787 20.8706406,11.0672609 21.470016,11.4432955 L22.3231417,8.1331682 L19.7556398,10.4411762 Z M4.30750322,15.3788679 L4.30750322,15.6410689 C5.33812899,15.4498541 6.47937984,15.1607935 7.61063068,14.7278421 C7.32563047,14.0582704 7.1018803,13.0535931 7.41625554,11.7752035 C7.44125556,11.6741602 7.5012556,11.5859072 7.58563067,11.5277114 C8.2962562,11.0372037 8.72063151,10.2218227 8.72063151,9.34568777 C8.72063151,7.89526879 7.56750565,6.71536447 6.15000459,6.71536447 C4.73250353,6.71536447 3.57937767,7.89526879 3.57937767,9.34568777 C3.57937767,10.2032768 3.99062798,11.0090651 4.6806285,11.5021308 C4.76125356,11.5596871 4.8193786,11.6453821 4.84375362,11.7432278 C5.32937898,13.6611319 4.59000343,14.9702181 4.30750322,15.3788679 Z M1.54250115,19.1539223 L38.4494037,19.1539223 C38.5444038,18.7375983 38.6562789,17.9298914 38.3144036,17.2622383 C38.0612784,16.767254 37.5875281,16.4219162 36.9075276,16.2358174 C36.0275269,15.9959995 34.9594011,16.0599509 33.7212752,16.1341346 C31.1668983,16.2876181 27.9881459,16.4794725 24.2412681,14.194487 C23.4968925,13.7404317 22.822517,13.3068408 22.1700166,12.8866798 C18.0937635,10.2640306 16.047512,8.94854924 12.3725092,12.7095342 C8.7081315,16.4596475 2.51187688,16.8324845 0.828121983,16.8625417 L0.828121983,18.416562 C0.826875618,18.8207352 1.14812586,19.1513642 1.54250115,19.1539223 Z" id="Shape"></path>
            </g>
        </g>
    </g>
</svg>