<svg height="50.933" viewBox="0 0 50.933 50.933" width="50.933" xmlns="http://www.w3.org/2000/svg" xmlns:xlink="http://www.w3.org/1999/xlink"><clipPath id="a"><path d="m0 0h50.933v50.933h-50.933z"/></clipPath><g clip-path="url(#a)" fill="#479390"><path d="m25.466 50.933a25.466 25.466 0 1 1 25.466-25.467 25.5 25.5 0 0 1 -25.466 25.467m0-49.445a23.978 23.978 0 1 0 23.978 23.978 24.005 24.005 0 0 0 -23.978-23.978"/><path d="m0 0h49.445v1.488h-49.445z" transform="translate(.744 24.722)"/><path d="m40.537 50.943a.742.742 0 0 1 -.549-.243 38.551 38.551 0 0 1 -10.088-25.208 38.568 38.568 0 0 1 10.087-25.239.766.766 0 0 1 1.1 0 38.552 38.552 0 0 1 10.082 25.208 38.567 38.567 0 0 1 -10.083 25.239.742.742 0 0 1 -.549.243m0-49.072a37.066 37.066 0 0 0 -9.145 23.621 37.049 37.049 0 0 0 9.145 23.591 37.067 37.067 0 0 0 9.145-23.621 37.048 37.048 0 0 0 -9.145-23.59" transform="translate(-15.07 -.01)"/><path d="m0 0h1.488v49.445h-1.488z" transform="translate(24.722 .744)"/><path d="m34.168 21a25.868 25.868 0 0 1 -16.932-6.761l1-1.1a24.361 24.361 0 0 0 15.928 6.372 24.345 24.345 0 0 0 15.9-6.372l1 1.1a25.85 25.85 0 0 1 -16.896 6.761" transform="translate(-8.686 -6.624)"/><path d="m50.065 80.954a24.359 24.359 0 0 0 -15.928-6.371 24.343 24.343 0 0 0 -15.9 6.371l-1-1.1a25.849 25.849 0 0 1 16.9-6.761 25.865 25.865 0 0 1 16.932 6.761z" transform="translate(-8.686 -36.837)"/></g></svg>